<svg width="22" height="26" viewBox="0 0 22 26" fill="none" xmlns="http://www.w3.org/2000/svg">
<path d="M18.7778 11.8008H3.22222C1.99492 11.8008 1 12.8753 1 14.2008V22.6008C1 23.9263 1.99492 25.0008 3.22222 25.0008H18.7778C20.0051 25.0008 21 23.9263 21 22.6008V14.2008C21 12.8753 20.0051 11.8008 18.7778 11.8008Z" stroke="white" stroke-linecap="round" stroke-linejoin="round"/>
<path d="M5.44434 11.8V7C5.44434 5.4087 6.02965 3.88258 7.07152 2.75736C8.11339 1.63214 9.52647 1 10.9999 1C12.4733 1 13.8864 1.63214 14.9283 2.75736C15.9701 3.88258 16.5554 5.4087 16.5554 7V11.8" stroke="white" stroke-linecap="round" stroke-linejoin="round"/>
</svg>
