<svg width="68" height="93" viewBox="0 0 68 93" fill="none" xmlns="http://www.w3.org/2000/svg">
<path d="M64.5557 0H3.12987C1.93605 0 0.968262 1.03405 0.968262 2.30962V89.8827C0.968262 91.1583 1.93605 92.1923 3.12987 92.1923H64.5557C65.7495 92.1923 66.7173 91.1583 66.7173 89.8827V2.30962C66.7173 1.03405 65.7495 0 64.5557 0Z" stroke="white" stroke-miterlimit="10"/>
<path d="M59.5335 6.6875H8.15193C7.15707 6.6875 6.35059 7.54921 6.35059 8.61218V20.6415C6.35059 21.7044 7.15707 22.5661 8.15193 22.5661H59.5335C60.5283 22.5661 61.3348 21.7044 61.3348 20.6415V8.61218C61.3348 7.54921 60.5283 6.6875 59.5335 6.6875Z" stroke="white" stroke-width="2" stroke-miterlimit="10"/>
<path d="M8.57191 52.5737L8.20685 52.9154L8.57191 52.5737C8.2563 52.2365 8.07373 51.7725 8.07373 51.2823V44.6729C8.07373 44.1827 8.2563 43.7186 8.57191 43.3814C8.88647 43.0453 9.30574 42.8633 9.73534 42.8633H15.9193C16.3489 42.8633 16.7682 43.0453 17.0828 43.3814C17.3984 43.7186 17.581 44.1827 17.581 44.6729V51.2823C17.581 51.7725 17.3984 52.2365 17.0828 52.5737C16.7682 52.9098 16.3489 53.0919 15.9193 53.0919H9.73534C9.30574 53.0919 8.88647 52.9098 8.57191 52.5737Z" stroke="white"/>
<path d="M22.4894 52.5737L22.1243 52.9154L22.4894 52.5737C22.1738 52.2365 21.9912 51.7725 21.9912 51.2823V44.6729C21.9912 44.1827 22.1738 43.7186 22.4894 43.3814C22.8039 43.0453 23.2232 42.8633 23.6528 42.8633H29.8386C30.2682 42.8633 30.6875 43.0453 31.0021 43.3814C31.3177 43.7186 31.5002 44.1827 31.5002 44.6729V51.2823C31.5002 51.7725 31.3177 52.2365 31.0021 52.5737C30.6875 52.9098 30.2682 53.0919 29.8386 53.0919H23.6528C23.2232 53.0919 22.8039 52.9098 22.4894 52.5737Z" stroke="white"/>
<path d="M36.9772 52.5737L36.616 52.9117L36.9772 52.5737C36.6616 52.2365 36.479 51.7725 36.479 51.2823V44.6729C36.479 44.1827 36.6616 43.7186 36.9772 43.3814C37.2917 43.0453 37.711 42.8633 38.1406 42.8633H44.3264C44.756 42.8633 45.1753 43.0453 45.4899 43.3814C45.8055 43.7186 45.988 44.1827 45.988 44.6729V51.2823C45.988 51.7725 45.8055 52.2365 45.4899 52.5737C45.1753 52.9098 44.756 53.0919 44.3264 53.0919H38.1406C37.711 53.0919 37.2917 52.9098 36.9772 52.5737Z" stroke="white"/>
<path d="M52.4863 42.8633H58.6721C59.1017 42.8633 59.521 43.0453 59.8356 43.3814C60.1512 43.7186 60.3337 44.1827 60.3337 44.6729V51.2823C60.3337 51.7725 60.1512 52.2365 59.8356 52.5737C59.521 52.9098 59.1017 53.0919 58.6721 53.0919H52.4863C52.0567 53.0919 51.6374 52.9098 51.3229 52.5737L50.9578 52.9154L51.3229 52.5737C51.0073 52.2365 50.8247 51.7725 50.8247 51.2823V44.6729C50.8247 44.1827 51.0073 43.7186 51.3229 43.3814C51.6374 43.0453 52.0567 42.8633 52.4863 42.8633Z" stroke="white"/>
<path d="M9.73534 28.4902H15.9193C16.349 28.4902 16.7682 28.6723 17.0828 29.0084C17.3984 29.3456 17.581 29.8096 17.581 30.2999V36.9092C17.581 37.3994 17.3984 37.8635 17.0828 38.2007C16.7682 38.5368 16.349 38.7188 15.9193 38.7188H9.73534C9.30574 38.7188 8.88647 38.5368 8.57191 38.2007C8.2563 37.8635 8.07373 37.3994 8.07373 36.9092V30.2999C8.07373 29.8096 8.2563 29.3456 8.57191 29.0084C8.88647 28.6723 9.30574 28.4902 9.73534 28.4902Z" stroke="white"/>
<path d="M23.6528 28.4902H29.8386C30.2682 28.4902 30.6875 28.6723 31.0021 29.0084C31.3177 29.3456 31.5002 29.8096 31.5002 30.2999V36.9092C31.5002 37.3994 31.3177 37.8635 31.0021 38.2007C30.6875 38.5368 30.2682 38.7188 29.8386 38.7188H23.6528C23.2232 38.7188 22.8039 38.5368 22.4894 38.2007C22.1738 37.8635 21.9912 37.3994 21.9912 36.9092V30.2999C21.9912 29.8096 22.1738 29.3456 22.4894 29.0084C22.8039 28.6723 23.2232 28.4902 23.6528 28.4902Z" stroke="white"/>
<path d="M38.1406 28.4902H44.3264C44.756 28.4902 45.1753 28.6723 45.4899 29.0084C45.8055 29.3456 45.988 29.8096 45.988 30.2999V36.9092C45.988 37.3994 45.8055 37.8635 45.4899 38.2007C45.1753 38.5368 44.756 38.7188 44.3264 38.7188H38.1406C37.711 38.7188 37.2917 38.5368 36.9772 38.2007C36.6616 37.8635 36.479 37.3994 36.479 36.9092V30.2999C36.479 29.8096 36.6616 29.3456 36.9772 29.0084C37.2917 28.6723 37.711 28.4902 38.1406 28.4902Z" stroke="white"/>
<path d="M52.4863 28.4902H58.6721C59.1017 28.4902 59.521 28.6723 59.8356 29.0084C60.1512 29.3456 60.3337 29.8096 60.3337 30.2999V36.9092C60.3337 37.3994 60.1512 37.8635 59.8356 38.2007C59.521 38.5368 59.1017 38.7188 58.6721 38.7188H52.4863C52.0567 38.7188 51.6374 38.5368 51.3229 38.2007C51.0073 37.8635 50.8247 37.3994 50.8247 36.9092V30.2999C50.8247 29.8096 51.0073 29.3456 51.3229 29.0084C51.6374 28.6723 52.0567 28.4902 52.4863 28.4902Z" stroke="white"/>
<path d="M8.57191 67.9019L8.20685 68.2435L8.57191 67.9019C8.2563 67.5647 8.07373 67.1006 8.07373 66.6104V60.001C8.07373 59.5108 8.2563 59.0468 8.57191 58.7095C8.88647 58.3734 9.30574 58.1914 9.73534 58.1914H15.9193C16.3489 58.1914 16.7682 58.3734 17.0828 58.7095C17.3984 59.0468 17.581 59.5108 17.581 60.001V66.6104C17.581 67.1006 17.3984 67.5647 17.0828 67.9019C16.7682 68.238 16.349 68.42 15.9193 68.42H9.73534C9.30574 68.42 8.88647 68.238 8.57191 67.9019Z" stroke="white"/>
<path d="M22.4894 67.9019L22.1243 68.2435L22.4894 67.9019C22.1738 67.5647 21.9912 67.1006 21.9912 66.6104V60.001C21.9912 59.5108 22.1738 59.0468 22.4894 58.7095C22.8039 58.3734 23.2232 58.1914 23.6528 58.1914H29.8386C30.2682 58.1914 30.6875 58.3734 31.0021 58.7095C31.3177 59.0468 31.5002 59.5108 31.5002 60.001V66.6104C31.5002 67.1006 31.3177 67.5647 31.0021 67.9019C30.6875 68.238 30.2682 68.42 29.8386 68.42H23.6528C23.2232 68.42 22.8039 68.238 22.4894 67.9019Z" stroke="white"/>
<path d="M36.9772 67.9019L36.616 68.2399L36.9772 67.9019C36.6616 67.5647 36.479 67.1006 36.479 66.6104V60.001C36.479 59.5108 36.6616 59.0468 36.9772 58.7095C37.2917 58.3734 37.711 58.1914 38.1406 58.1914H44.3264C44.756 58.1914 45.1753 58.3734 45.4899 58.7095C45.8055 59.0468 45.988 59.5108 45.988 60.001V66.6104C45.988 67.1006 45.8055 67.5647 45.4899 67.9019C45.1753 68.238 44.756 68.42 44.3264 68.42H38.1406C37.711 68.42 37.2917 68.238 36.9772 67.9019Z" stroke="white"/>
<path d="M52.4863 58.6914H58.6721C58.958 58.6914 59.2468 58.8122 59.4705 59.0512L60.1929 58.3751L59.4705 59.0512C59.6963 59.2925 59.8337 59.6331 59.8337 60.001V81.9424C59.8337 82.3103 59.6963 82.6509 59.4705 82.8922C59.2468 83.1313 58.958 83.252 58.6721 83.252H52.4863C52.2004 83.252 51.9117 83.1313 51.6879 82.8922C51.4621 82.6509 51.3247 82.3103 51.3247 81.9424V60.001C51.3247 59.6331 51.4621 59.2925 51.6879 59.0512C51.9117 58.8122 52.2004 58.6914 52.4863 58.6914Z" stroke="white" stroke-width="2"/>
<path d="M8.57191 83.228L8.20685 83.5697L8.57191 83.228C8.2563 82.8908 8.07373 82.4268 8.07373 81.9366V75.3272C8.07373 74.837 8.2563 74.3729 8.57191 74.0357C8.88647 73.6996 9.30574 73.5176 9.73534 73.5176H15.9193C16.349 73.5176 16.7682 73.6996 17.0828 74.0357C17.3984 74.3729 17.581 74.837 17.581 75.3272V81.9366C17.581 82.4268 17.3984 82.8908 17.0828 83.228C16.7682 83.5641 16.349 83.7462 15.9193 83.7462H9.73534C9.30574 83.7462 8.88647 83.5641 8.57191 83.228Z" stroke="white"/>
<path d="M23.6528 73.5176H29.8386C30.2682 73.5176 30.6875 73.6996 31.0021 74.0357C31.3177 74.3729 31.5002 74.837 31.5002 75.3272V81.9366C31.5002 82.4268 31.3177 82.8908 31.0021 83.228C30.6875 83.5641 30.2682 83.7462 29.8386 83.7462H23.6528C23.2232 83.7462 22.8039 83.5641 22.4894 83.228L22.1243 83.5697L22.4894 83.228C22.1738 82.8908 21.9912 82.4268 21.9912 81.9366V75.3272C21.9912 74.837 22.1738 74.3729 22.4894 74.0357C22.8039 73.6996 23.2232 73.5176 23.6528 73.5176Z" stroke="white"/>
<path d="M36.9772 83.228L36.616 83.566L36.9772 83.228C36.6616 82.8908 36.479 82.4268 36.479 81.9366V75.3272C36.479 74.837 36.6616 74.3729 36.9772 74.0357C37.2917 73.6996 37.711 73.5176 38.1406 73.5176H44.3264C44.756 73.5176 45.1753 73.6996 45.4899 74.0357C45.8055 74.3729 45.988 74.837 45.988 75.3272V81.9366C45.988 82.4268 45.8055 82.8908 45.4899 83.228C45.1753 83.5641 44.756 83.7462 44.3264 83.7462H38.1406C37.711 83.7462 37.2917 83.5641 36.9772 83.228Z" stroke="white"/>
</svg>
