<svg width="100" height="100" viewBox="0 0 100 100" fill="none" xmlns="http://www.w3.org/2000/svg">
<path d="M40.728 58.2982C45.3943 58.2982 49.1771 54.5465 49.1771 49.9186C49.1771 45.2907 45.3943 41.5391 40.728 41.5391C36.0616 41.5391 32.2788 45.2907 32.2788 49.9186C32.2788 54.5465 36.0616 58.2982 40.728 58.2982Z" stroke="white" stroke-width="2" stroke-miterlimit="10"/>
<path d="M28.1983 44.3626C27.0614 43.0896 25.5609 42.1898 23.8961 41.7827C22.2313 41.3756 20.481 41.4805 18.8777 42.0835C17.2745 42.6864 15.8941 43.7588 14.9201 45.1583C13.946 46.5578 13.4243 48.2181 13.4243 49.9186C13.4243 51.6192 13.946 53.2794 14.9201 54.6789C15.8941 56.0784 17.2745 57.1509 18.8777 57.7538C20.481 58.3567 22.2313 58.4616 23.8961 58.0545C25.5609 57.6475 27.0614 56.7477 28.1983 55.4747" stroke="white" stroke-width="2" stroke-linecap="round" stroke-linejoin="round"/>
<path d="M86.6065 44.3626C85.4696 43.0896 83.9691 42.1898 82.3043 41.7827C80.6395 41.3756 78.8892 41.4805 77.2859 42.0835C75.6827 42.6864 74.3023 43.7588 73.3283 45.1583C72.3542 46.5578 71.8325 48.2181 71.8325 49.9186C71.8325 51.6192 72.3542 53.2794 73.3283 54.6789C74.3023 56.0784 75.6827 57.1509 77.2859 57.7538C78.8892 58.3567 80.6395 58.4616 82.3043 58.0545C83.9691 57.6475 85.4696 56.7477 86.6065 55.4747" stroke="white" stroke-width="2" stroke-linecap="round" stroke-linejoin="round"/>
<path d="M71.8042 50.1016H81.4475" stroke="white" stroke-width="2" stroke-linecap="round" stroke-linejoin="round"/>
<path d="M59.5738 41.5719L55.7734 41.6003C55.1764 41.6048 54.6054 41.8432 54.1848 42.2634C53.7643 42.6837 53.5283 43.2518 53.5283 43.8439V56.0191C53.5283 56.3152 53.5874 56.6083 53.7022 56.8817C53.8169 57.155 53.9851 57.4031 54.197 57.6117C54.4089 57.8202 54.6603 57.9851 54.9368 58.0969C55.2132 58.2086 55.5093 58.265 55.8078 58.2627L59.5738 58.2343C61.8035 58.2343 63.9419 57.3559 65.5185 55.7922C67.0952 54.2286 67.9809 52.1078 67.9809 49.8965C67.9809 47.6851 67.0952 45.5644 65.5185 44.0007C63.9419 42.437 61.8035 41.5586 59.5738 41.5586V41.5719Z" stroke="white" stroke-width="2" stroke-miterlimit="10"/>
<path d="M8.55713 41L1.31747 48.1781C0.794046 48.6973 0.5 49.4015 0.5 50.1356C0.5 50.8698 0.794046 51.574 1.31747 52.0932L8.66795 59.3831" stroke="white" stroke-miterlimit="10" stroke-linecap="round"/>
<path d="M91.4429 41L98.6825 48.18C99.2059 48.6992 99.5 49.4034 99.5 50.1375C99.5 50.8717 99.2059 51.5759 98.6825 52.095L91.332 59.385" stroke="white" stroke-miterlimit="10" stroke-linecap="round"/>
</svg>
