<svg width="76" height="89" viewBox="0 0 76 89" fill="none" xmlns="http://www.w3.org/2000/svg">
<path d="M8.37646 78.7145V83.4306L8.44539 88.1467C8.44539 88.4278 8.98956 88.6528 9.65888 88.6528H41.0028C41.6703 88.6528 42.2163 88.4224 42.2163 88.1431V78.7109C42.2163 78.4297 41.6721 78.2012 41.0028 78.2012H9.58995C8.92244 78.2048 8.37646 78.4352 8.37646 78.7145Z" stroke="white" stroke-width="2" stroke-miterlimit="10"/>
<path d="M14.7485 83.4297H35.844" stroke="white" stroke-miterlimit="10" stroke-linecap="round"/>
<path d="M37.8356 77.8398V74.4442L37.7867 71.0522C37.7867 70.8509 37.3931 70.6895 36.9124 70.6895H14.3567C13.876 70.6895 13.4824 70.8545 13.4824 71.0522V77.8362C13.4824 78.0375 13.876 78.1989 14.3567 78.1989H36.9559C37.442 78.2062 37.8356 78.0411 37.8356 77.8398Z" stroke="white" stroke-width="2" stroke-miterlimit="10"/>
<path d="M37.3442 46.6033C37.4132 46.6232 46.4137 32.0686 48.1786 25.0416C48.2356 24.8055 48.2393 24.5597 48.1892 24.322C48.1392 24.0843 48.0368 23.8608 47.8894 23.6677C47.742 23.4746 47.5534 23.3168 47.3374 23.2059C47.1213 23.095 46.8832 23.0336 46.6404 23.0264L41.4581 22.8613" stroke="white" stroke-width="2" stroke-miterlimit="10"/>
<path d="M8.45262 22.8911C8.23132 20.64 8.11523 18.701 8.11523 17.21V17.1991C8.11715 16.9277 8.22641 16.6682 8.41913 16.4772C8.61185 16.2862 8.87236 16.1792 9.14371 16.1797H40.8232C41.0945 16.1792 41.3551 16.2862 41.5478 16.4772C41.7405 16.6682 41.8498 16.9277 41.8517 17.1991V17.21C41.8535 29.2487 34.3005 70.3241 24.9844 70.3241C20.1086 70.3241 15.7172 59.0781 12.6372 46.6276" stroke="white" stroke-width="2" stroke-miterlimit="10"/>
<path d="M8.45259 22.8906C9.082 29.2973 10.5603 38.2343 12.6372 46.6271C12.5683 46.6471 3.38641 32.0634 1.61062 25.0419C1.55356 24.8058 1.54991 24.5599 1.59993 24.3222C1.64995 24.0846 1.75238 23.861 1.89976 23.6679C2.04713 23.4749 2.23573 23.3171 2.45181 23.2062C2.66789 23.0952 2.906 23.0339 3.14879 23.0267L8.45259 22.8906Z" stroke="white" stroke-width="2" stroke-miterlimit="10"/>
<path d="M40.8579 61.1197H73.3082C73.8855 61.1197 74.4392 60.8904 74.8474 60.4822C75.2556 60.074 75.4849 59.5204 75.4849 58.9431V2.62197C75.4849 2.04469 75.2556 1.49104 74.8474 1.08284C74.4392 0.674638 73.8855 0.445313 73.3082 0.445312H53.1741L33.06 0.568657C32.7764 0.565304 32.495 0.618054 32.2318 0.723869C31.9687 0.829684 31.7291 0.986477 31.5268 1.18523C31.3245 1.38398 31.1635 1.62077 31.0531 1.88197C30.9427 2.14318 30.885 2.42364 30.8833 2.70723V8.47357" stroke="white" stroke-miterlimit="10" stroke-linecap="round"/>
<path d="M45.6201 31.4481L47.8885 34.0021C48.0487 34.1581 48.1686 34.3507 48.2379 34.5634C48.3071 34.7761 48.3235 35.0024 48.2857 35.2228L47.6654 38.8361C47.623 39.0888 47.6519 39.3483 47.7488 39.5855C47.8458 39.8226 48.0069 40.0281 48.2141 40.1788C48.4213 40.3295 48.6665 40.4195 48.922 40.4386C49.1775 40.4578 49.4333 40.4053 49.6606 40.2872L52.9057 38.5821C53.1034 38.4782 53.3235 38.4239 53.5469 38.4239C53.7703 38.4239 53.9903 38.4782 54.1881 38.5821L57.4531 40.2836C57.6804 40.4017 57.9362 40.4542 58.1917 40.435C58.4472 40.4159 58.6924 40.3259 58.8996 40.1752C59.1068 40.0245 59.2679 39.819 59.3649 39.5818C59.4618 39.3447 59.4907 39.0851 59.4483 38.8324L58.8189 35.2283C58.7811 35.0078 58.7976 34.7815 58.8668 34.5688C58.936 34.3561 59.0559 34.1635 59.2162 34.0075L61.8409 31.4481C62.027 31.2689 62.159 31.0409 62.2219 30.7902C62.2847 30.5395 62.2758 30.2762 62.1961 30.0304C62.1165 29.7845 61.9694 29.566 61.7716 29.3997C61.5737 29.2335 61.3331 29.1262 61.0772 29.0901L57.4494 28.5622C57.2283 28.53 57.0183 28.4444 56.8375 28.313C56.6568 28.1815 56.5107 28.0081 56.4119 27.8077L54.7903 24.5209C54.6773 24.289 54.5016 24.0935 54.2831 23.9565C54.0645 23.8196 53.8119 23.7467 53.554 23.7461C53.2961 23.7455 53.0432 23.8173 52.8241 23.9533C52.6049 24.0893 52.4283 24.2841 52.3143 24.5155L50.6927 27.8022C50.5939 28.0027 50.4478 28.1761 50.2671 28.3075C50.0863 28.439 46.9538 29.0578 46.7326 29.0901" stroke="white" stroke-width="2" stroke-miterlimit="10"/>
</svg>
