<svg width="98" height="82" viewBox="0 0 98 82" fill="none" xmlns="http://www.w3.org/2000/svg">
<path d="M13.7208 7.14453H95.4113C96.0979 7.14453 96.7564 7.43197 97.2419 7.9436C97.7274 8.45523 98.0001 9.14916 98.0001 9.87272V77.9637C98.0001 78.6872 97.7274 79.3812 97.2419 79.8928C96.7564 80.4044 96.0979 80.6919 95.4113 80.6919H7.0332" stroke="white" stroke-width="2" stroke-miterlimit="10"/>
<path d="M0.490234 73.4917V8.69727" stroke="white" stroke-width="2" stroke-miterlimit="10"/>
<path d="M13.8655 8.84859C13.8655 6.97939 13.1609 5.18676 11.9067 3.86504C10.6526 2.54332 8.95154 1.80078 7.17787 1.80078C5.4042 1.80078 3.70317 2.54332 2.449 3.86504C1.19482 5.18676 0.490234 6.97939 0.490234 8.84859" stroke="white" stroke-width="2" stroke-miterlimit="10" stroke-linecap="round"/>
<path d="M13.8655 8.92383V73.6432C13.8655 72.2493 13.4733 70.8866 12.7384 69.7276C12.0036 68.5686 10.9591 67.6653 9.73712 67.1319C8.51511 66.5984 7.17045 66.4589 5.87318 66.7308C4.5759 67.0027 3.38428 67.674 2.449 68.6596C1.51372 69.6453 0.876782 70.9011 0.618738 72.2682C0.360695 73.6354 0.493132 75.0525 0.999303 76.3403C1.50547 77.6281 2.36264 78.7288 3.46242 79.5032C4.5622 80.2776 5.85518 80.691 7.17787 80.691" stroke="white" stroke-width="2" stroke-linecap="round" stroke-linejoin="round"/>
<path d="M13.9365 14.8345H90.0288C90.584 14.8217 91.1213 15.0409 91.5235 15.4443C91.9258 15.8478 92.1601 16.4026 92.1753 16.9875V70.6873C92.1601 71.2722 91.9258 71.827 91.5235 72.2304C91.1213 72.6339 90.584 72.8531 90.0288 72.8403H14.2385" stroke="white" stroke-miterlimit="10"/>
<path d="M92.1756 59.2441H61.8224C61.3521 59.2441 60.9595 59.4715 60.9595 59.7489V72.7327" stroke="white" stroke-width="2" stroke-miterlimit="10"/>
<path d="M92.4627 62.502H60.6792" stroke="white" stroke-width="2" stroke-miterlimit="10"/>
<path d="M66.1436 32.0371H85.2723" stroke="white" stroke-miterlimit="10" stroke-linecap="round"/>
<path d="M66.1436 35.2207H79.1607" stroke="white" stroke-miterlimit="10" stroke-linecap="round"/>
<path d="M66.1436 38.3301H72.184" stroke="white" stroke-miterlimit="10" stroke-linecap="round"/>
<path d="M66.1436 41.4355H76.9301" stroke="white" stroke-miterlimit="10" stroke-linecap="round"/>
<path d="M66.1436 44.6953H85.2723" stroke="white" stroke-miterlimit="10" stroke-linecap="round"/>
<path d="M48.2743 30.334H25.4069C22.4283 30.334 20.0137 32.8787 20.0137 36.0177V47.7262C20.0137 50.8652 22.4283 53.4099 25.4069 53.4099H48.2743C51.2529 53.4099 53.6676 50.8652 53.6676 47.7262V36.0177C53.6676 32.8787 51.2529 30.334 48.2743 30.334Z" stroke="white" stroke-miterlimit="10"/>
<path d="M26.5225 30.1445V53.4841" stroke="white" stroke-miterlimit="10"/>
<path d="M26.5396 35.373H53.5597" stroke="white" stroke-miterlimit="10"/>
<path d="M26.4858 49.2422H53.506" stroke="white" stroke-miterlimit="10"/>
<path d="M38.6203 46.7025C40.9436 46.7025 42.827 44.7177 42.827 42.2692C42.827 39.8208 40.9436 37.8359 38.6203 37.8359C36.297 37.8359 34.4136 39.8208 34.4136 42.2692C34.4136 44.7177 36.297 46.7025 38.6203 46.7025Z" stroke="white" stroke-miterlimit="10"/>
<path d="M38.6206 44.6571C39.8716 44.6571 40.8858 43.5884 40.8858 42.27C40.8858 40.9516 39.8716 39.8828 38.6206 39.8828C37.3696 39.8828 36.3555 40.9516 36.3555 42.27C36.3555 43.5884 37.3696 44.6571 38.6206 44.6571Z" stroke="white" stroke-width="2" stroke-miterlimit="10"/>
</svg>
