<svg width="34" height="34" viewBox="0 0 34 34" fill="none" xmlns="http://www.w3.org/2000/svg">
<path d="M33 17C33 25.8366 25.8366 33 17 33C8.16344 33 1 25.8366 1 17C1 8.16344 8.16344 1 17 1C25.8366 1 33 8.16344 33 17Z" stroke="white" stroke-linecap="round" stroke-linejoin="round"/>
<path d="M24.9995 20.9791V23.3877C25.0004 23.6113 24.9545 23.8327 24.8648 24.0375C24.775 24.2424 24.6434 24.4263 24.4783 24.5775C24.3132 24.7286 24.1183 24.8437 23.906 24.9154C23.6938 24.987 23.4689 25.0136 23.2457 24.9935C20.7702 24.725 18.3923 23.8808 16.3031 22.5286C14.3594 21.2959 12.7114 19.6512 11.4763 17.7113C10.1167 15.6168 9.27059 13.2321 9.00653 10.7504C8.98643 10.5283 9.01286 10.3046 9.08416 10.0933C9.15546 9.88203 9.27005 9.6879 9.42065 9.52325C9.57124 9.35861 9.75453 9.22706 9.95886 9.13699C10.1632 9.04691 10.3841 9.00029 10.6074 9.00008H13.0209C13.4113 8.99624 13.7898 9.13422 14.0858 9.3883C14.3818 9.64237 14.5752 9.99521 14.6298 10.381C14.7317 11.1519 14.9206 11.9087 15.1929 12.6371C15.3012 12.9245 15.3246 13.2368 15.2604 13.5371C15.1963 13.8373 15.0472 14.1129 14.8309 14.3312L13.8092 15.3509C14.9545 17.3609 16.6221 19.0252 18.6361 20.1682L19.6578 19.1485C19.8765 18.9326 20.1527 18.7839 20.4535 18.7198C20.7544 18.6558 21.0673 18.6792 21.3552 18.7872C22.0851 19.059 22.8435 19.2476 23.6158 19.3492C24.0066 19.4042 24.3635 19.6007 24.6186 19.9012C24.8737 20.2017 25.0093 20.5853 24.9995 20.9791Z" stroke="white" stroke-linecap="round" stroke-linejoin="round"/>
</svg>
