<svg width="132" height="132" viewBox="0 0 132 132" fill="none" xmlns="http://www.w3.org/2000/svg">
<path d="M2.94531 50.625L7.625 61.3828L12.3203 50.625H12.9375V62H12.5156V51.25L7.79688 62H7.46094L2.76562 51.3047V62H2.34375V50.625H2.94531ZM18.8828 62.1562C18.2005 62.1562 17.5729 61.974 17 61.6094C16.4323 61.2396 15.987 60.7344 15.6641 60.0938C15.3411 59.4531 15.1797 58.7422 15.1797 57.9609V57.6094C15.1797 56.8281 15.3359 56.112 15.6484 55.4609C15.9609 54.8099 16.3906 54.3021 16.9375 53.9375C17.4844 53.5729 18.0807 53.3906 18.7266 53.3906C19.6693 53.3906 20.4401 53.7266 21.0391 54.3984C21.638 55.0703 21.9375 55.9531 21.9375 57.0469V57.4922H15.6016V57.9531C15.6016 58.6406 15.7448 59.2786 16.0312 59.8672C16.3229 60.4505 16.7214 60.9089 17.2266 61.2422C17.737 61.5755 18.2891 61.7422 18.8828 61.7422C19.4505 61.7422 19.9323 61.6484 20.3281 61.4609C20.7292 61.2682 21.0833 60.974 21.3906 60.5781L21.6875 60.7891C21.0573 61.7005 20.1224 62.1562 18.8828 62.1562ZM18.7266 53.8125C17.9036 53.8125 17.2057 54.1198 16.6328 54.7344C16.0599 55.3438 15.724 56.1224 15.625 57.0703H21.5156V56.9688C21.5156 56.3958 21.3932 55.8646 21.1484 55.375C20.9089 54.8802 20.5755 54.4974 20.1484 54.2266C19.7266 53.9505 19.2526 53.8125 18.7266 53.8125ZM26.7734 61.7344C27.5391 61.7344 28.1693 61.5312 28.6641 61.125C29.1641 60.7188 29.4375 60.1562 29.4844 59.4375H29.9062C29.8646 60.2552 29.5495 60.9141 28.9609 61.4141C28.3724 61.9089 27.6432 62.1562 26.7734 62.1562C25.7161 62.1562 24.875 61.7734 24.25 61.0078C23.6302 60.2422 23.3203 59.2031 23.3203 57.8906V57.6094C23.3203 56.3281 23.6302 55.3047 24.25 54.5391C24.875 53.7734 25.7109 53.3906 26.7578 53.3906C27.6536 53.3906 28.3932 53.6589 28.9766 54.1953C29.5599 54.7318 29.8698 55.4453 29.9062 56.3359H29.4844C29.4479 55.5755 29.1797 54.9661 28.6797 54.5078C28.1849 54.0443 27.5443 53.8125 26.7578 53.8125C25.8151 53.8125 25.0755 54.1536 24.5391 54.8359C24.0078 55.513 23.7422 56.4557 23.7422 57.6641V57.9375C23.7422 59.1198 24.0104 60.0495 24.5469 60.7266C25.0885 61.3984 25.8307 61.7344 26.7734 61.7344ZM37.8906 53.9766H34.5703V62H34.1484V53.9766H31V53.5469H37.8906V53.9766ZM38.5781 57.6094C38.5781 56.8021 38.7318 56.0781 39.0391 55.4375C39.3516 54.7917 39.7891 54.2891 40.3516 53.9297C40.9193 53.5703 41.5599 53.3906 42.2734 53.3906C42.9818 53.3906 43.6172 53.5651 44.1797 53.9141C44.7422 54.263 45.1797 54.7578 45.4922 55.3984C45.8099 56.0391 45.9714 56.7604 45.9766 57.5625V57.9375C45.9766 58.75 45.8229 59.4766 45.5156 60.1172C45.2083 60.7578 44.7708 61.2578 44.2031 61.6172C43.6406 61.9766 43.0026 62.1562 42.2891 62.1562C41.5755 62.1562 40.9349 61.9792 40.3672 61.625C39.8047 61.2708 39.3672 60.776 39.0547 60.1406C38.7422 59.5 38.5833 58.7812 38.5781 57.9844V57.6094ZM39 57.9375C39 58.6406 39.138 59.2865 39.4141 59.875C39.6953 60.4583 40.0833 60.9141 40.5781 61.2422C41.0781 61.5703 41.6484 61.7344 42.2891 61.7344C43.2526 61.7344 44.0365 61.3724 44.6406 60.6484C45.25 59.9245 45.5547 58.9922 45.5547 57.8516V57.6094C45.5547 56.9167 45.4141 56.276 45.1328 55.6875C44.8516 55.099 44.4609 54.6406 43.9609 54.3125C43.4661 53.9792 42.9036 53.8125 42.2734 53.8125C41.3099 53.8125 40.5234 54.1797 39.9141 54.9141C39.3047 55.6484 39 56.5729 39 57.6875V57.9375ZM51.5391 61.5781L51.8359 61.1797C52.6016 60.1328 53.0469 58.6146 53.1719 56.625L53.3359 53.5469H57.875V61.5781H58.5469V64.4844H58.125V62H51.3203V64.4844H50.9766V61.5781H51.5391ZM52.0547 61.5781H57.4531V53.9688H53.7344L53.5859 56.7656C53.4401 58.8854 52.9297 60.4896 52.0547 61.5781ZM66.625 53.5469V62H66.1953V53.9766H62.1484L61.9844 57.9297C61.901 59.4349 61.6979 60.487 61.375 61.0859C61.0573 61.6849 60.5469 61.9896 59.8438 62H59.5469V61.5859H59.8984C60.4297 61.5651 60.8177 61.2865 61.0625 60.75C61.3125 60.2135 61.4766 59.3177 61.5547 58.0625L61.7422 53.5469H66.625ZM75.1875 53.5469V62H74.7656V58.4844H71.6719L69.5547 62H69.0547L71.1875 58.4453C70.5781 58.3464 70.0964 58.0807 69.7422 57.6484C69.388 57.2161 69.2109 56.6719 69.2109 56.0156C69.2109 55.2812 69.4583 54.6901 69.9531 54.2422C70.4531 53.7943 71.1302 53.5625 71.9844 53.5469H75.1875ZM69.6328 56.0312C69.6328 56.6406 69.8151 57.1276 70.1797 57.4922C70.5495 57.8568 71.0469 58.0443 71.6719 58.0547H74.7656V53.9766H72.0625C71.3021 53.9766 70.7057 54.1589 70.2734 54.5234C69.8464 54.888 69.6328 55.3906 69.6328 56.0312ZM87.3984 53.5469H87.8281V62H87.3984V54.2969L82.1719 62H81.75V53.5469H82.1719V61.25L87.3984 53.5469ZM92.4844 57.8672H90.9375V62H90.5078V53.5469H90.9375V57.4531H92.5625L95.9141 53.5469H96.5234L92.9297 57.6875L97.0156 62H96.3828L92.4844 57.8672ZM97.6406 57.6094C97.6406 56.8021 97.7943 56.0781 98.1016 55.4375C98.4141 54.7917 98.8516 54.2891 99.4141 53.9297C99.9818 53.5703 100.622 53.3906 101.336 53.3906C102.044 53.3906 102.68 53.5651 103.242 53.9141C103.805 54.263 104.242 54.7578 104.555 55.3984C104.872 56.0391 105.034 56.7604 105.039 57.5625V57.9375C105.039 58.75 104.885 59.4766 104.578 60.1172C104.271 60.7578 103.833 61.2578 103.266 61.6172C102.703 61.9766 102.065 62.1562 101.352 62.1562C100.638 62.1562 99.9974 61.9792 99.4297 61.625C98.8672 61.2708 98.4297 60.776 98.1172 60.1406C97.8047 59.5 97.6458 58.7812 97.6406 57.9844V57.6094ZM98.0625 57.9375C98.0625 58.6406 98.2005 59.2865 98.4766 59.875C98.7578 60.4583 99.1458 60.9141 99.6406 61.2422C100.141 61.5703 100.711 61.7344 101.352 61.7344C102.315 61.7344 103.099 61.3724 103.703 60.6484C104.312 59.9245 104.617 58.9922 104.617 57.8516V57.6094C104.617 56.9167 104.477 56.276 104.195 55.6875C103.914 55.099 103.523 54.6406 103.023 54.3125C102.529 53.9792 101.966 53.8125 101.336 53.8125C100.372 53.8125 99.5859 54.1797 98.9766 54.9141C98.3672 55.6484 98.0625 56.5729 98.0625 57.6875V57.9375ZM113.172 62H112.742V57.8672H107.516V62H107.094V53.5469H107.516V57.4453H112.742V53.5469H113.172V62ZM117.828 57.8672H116.281V62H115.852V53.5469H116.281V57.4531H117.906L121.258 53.5469H121.867L118.273 57.6875L122.359 62H121.727L117.828 57.8672ZM129.445 53.5469H129.875V62H129.445V54.2969L124.219 62H123.797V53.5469H124.219V61.25L129.445 53.5469ZM13.7578 76.8672H12.2109V81H11.7812V72.5469H12.2109V76.4531H13.8359L17.1875 72.5469H17.7969L14.2031 76.6875L18.2891 81H17.6562L13.7578 76.8672ZM22.3125 80.3438L22.3672 80.1875L25.2891 72.5469H25.7578L21.9766 82.4688L21.7891 82.9375C21.3828 83.9219 20.7109 84.4141 19.7734 84.4141C19.4714 84.4141 19.263 84.3854 19.1484 84.3281L19.1406 83.9297C19.3073 83.9766 19.4974 84 19.7109 84C20.1536 84 20.5208 83.8698 20.8125 83.6094C21.1042 83.3542 21.3568 82.9349 21.5703 82.3516L22.0859 80.9531L18.7188 72.5469H19.1797L22.3125 80.3438ZM33.8281 76.8516C33.8281 78.1693 33.5443 79.2161 32.9766 79.9922C32.4089 80.7682 31.6354 81.1562 30.6562 81.1562C30.0156 81.1562 29.4453 81.026 28.9453 80.7656C28.4453 80.5052 28.0547 80.1458 27.7734 79.6875V84.25H27.3516V72.5469H27.7734V74.0547C28.0651 73.5182 28.4583 73.1068 28.9531 72.8203C29.4479 72.5339 30.0104 72.3906 30.6406 72.3906C31.6302 72.3906 32.4089 72.7708 32.9766 73.5312C33.5443 74.2865 33.8281 75.349 33.8281 76.7188V76.8516ZM33.3984 76.6875C33.3984 75.474 33.1562 74.526 32.6719 73.8438C32.1927 73.1562 31.5182 72.8125 30.6484 72.8125C29.9401 72.8125 29.3385 72.9974 28.8438 73.3672C28.349 73.7318 27.9922 74.2578 27.7734 74.9453V78.8984C27.9922 79.4818 28.349 79.9349 28.8438 80.2578C29.3438 80.5755 29.9505 80.7344 30.6641 80.7344C31.5286 80.7344 32.2005 80.3906 32.6797 79.7031C33.1589 79.0156 33.3984 78.0104 33.3984 76.6875ZM39 80.7344C39.7656 80.7344 40.3958 80.5312 40.8906 80.125C41.3906 79.7188 41.6641 79.1562 41.7109 78.4375H42.1328C42.0911 79.2552 41.776 79.9141 41.1875 80.4141C40.599 80.9089 39.8698 81.1562 39 81.1562C37.9427 81.1562 37.1016 80.7734 36.4766 80.0078C35.8568 79.2422 35.5469 78.2031 35.5469 76.8906V76.6094C35.5469 75.3281 35.8568 74.3047 36.4766 73.5391C37.1016 72.7734 37.9375 72.3906 38.9844 72.3906C39.8802 72.3906 40.6198 72.6589 41.2031 73.1953C41.7865 73.7318 42.0964 74.4453 42.1328 75.3359H41.7109C41.6745 74.5755 41.4062 73.9661 40.9062 73.5078C40.4115 73.0443 39.7708 72.8125 38.9844 72.8125C38.0417 72.8125 37.3021 73.1536 36.7656 73.8359C36.2344 74.513 35.9688 75.4557 35.9688 76.6641V76.9375C35.9688 78.1198 36.237 79.0495 36.7734 79.7266C37.3151 80.3984 38.0573 80.7344 39 80.7344ZM49.7188 81C49.6146 80.6406 49.5625 80.125 49.5625 79.4531C49.2292 79.9948 48.7734 80.4141 48.1953 80.7109C47.6172 81.0078 46.9635 81.1562 46.2344 81.1562C45.4531 81.1562 44.8229 80.9453 44.3438 80.5234C43.8698 80.0964 43.6328 79.5417 43.6328 78.8594C43.6328 78.0833 43.9818 77.4635 44.6797 77C45.3828 76.5312 46.3151 76.2917 47.4766 76.2812H49.5625V75.0469C49.5625 74.3385 49.3385 73.7891 48.8906 73.3984C48.4479 73.0078 47.8125 72.8125 46.9844 72.8125C46.2135 72.8125 45.5703 73.0104 45.0547 73.4062C44.5391 73.8021 44.2812 74.2917 44.2812 74.875L43.8594 74.8594C43.8594 74.1719 44.1615 73.5885 44.7656 73.1094C45.3698 72.6302 46.1094 72.3906 46.9844 72.3906C47.8958 72.3906 48.6198 72.6198 49.1562 73.0781C49.6927 73.5312 49.9688 74.1719 49.9844 75V79.0391C49.9844 79.9661 50.0573 80.5964 50.2031 80.9297V81H49.7188ZM46.2344 80.7422C47.026 80.7422 47.7057 80.5651 48.2734 80.2109C48.8464 79.8568 49.276 79.3594 49.5625 78.7188V76.7109H47.6094C46.401 76.7109 45.4766 76.9505 44.8359 77.4297C44.3151 77.8203 44.0547 78.3073 44.0547 78.8906C44.0547 79.4062 44.2604 79.8438 44.6719 80.2031C45.0833 80.5625 45.6042 80.7422 46.2344 80.7422ZM62.1875 72.5469H62.6172V81H62.1875V73.2969L56.9609 81H56.5391V72.5469H56.9609V80.25L62.1875 72.5469ZM71.3828 72.5469V81H70.9531V72.9766H66.9062L66.7422 76.9297C66.6589 78.4349 66.4557 79.487 66.1328 80.0859C65.8151 80.6849 65.3047 80.9896 64.6016 81H64.3047V80.5859H64.6562C65.1875 80.5651 65.5755 80.2865 65.8203 79.75C66.0703 79.2135 66.2344 78.3177 66.3125 77.0625L66.5 72.5469H71.3828ZM79.7188 72.5469H80.1484V81H79.7188V73.2969L74.4922 81H74.0703V72.5469H74.4922V80.25L79.7188 72.5469ZM86.2734 76.7656C86.2734 75.4271 86.5417 74.3646 87.0781 73.5781C87.6146 72.7865 88.3568 72.3906 89.3047 72.3906C89.9505 72.3906 90.487 72.5651 90.9141 72.9141V69H91.3359V72.9062C91.7474 72.5625 92.2786 72.3906 92.9297 72.3906C93.862 72.3906 94.5964 72.776 95.1328 73.5469C95.6693 74.3125 95.9453 75.3516 95.9609 76.6641V76.9297C95.9609 78.2422 95.6901 79.276 95.1484 80.0312C94.612 80.7865 93.8776 81.1641 92.9453 81.1641C92.3099 81.1641 91.7734 81.0026 91.3359 80.6797V84.25H90.9141V80.6797C90.4661 81.0026 89.9245 81.1641 89.2891 81.1641C88.4036 81.1641 87.6927 80.8203 87.1562 80.1328C86.6198 79.4401 86.3281 78.4818 86.2812 77.2578L86.2734 76.7656ZM86.7109 76.9297C86.7109 78.1432 86.9349 79.0833 87.3828 79.75C87.8359 80.4115 88.4688 80.7422 89.2812 80.7422C89.8542 80.7422 90.3438 80.6016 90.75 80.3203L90.9141 80.2031V73.4766C90.6172 73.0339 90.0781 72.8125 89.2969 72.8125C88.4948 72.8125 87.862 73.1615 87.3984 73.8594C86.9401 74.5573 86.7109 75.5807 86.7109 76.9297ZM95.5391 76.7656C95.5391 75.5521 95.3099 74.5911 94.8516 73.8828C94.3984 73.1693 93.7604 72.8125 92.9375 72.8125C92.1562 72.8125 91.6224 73.0286 91.3359 73.4609V80.2109C91.7786 80.5651 92.3177 80.7422 92.9531 80.7422C93.7812 80.7422 94.4193 80.4062 94.8672 79.7344C95.3151 79.0625 95.5391 78.0729 95.5391 76.7656ZM97.6172 76.6094C97.6172 75.8021 97.7708 75.0781 98.0781 74.4375C98.3906 73.7917 98.8281 73.2891 99.3906 72.9297C99.9583 72.5703 100.599 72.3906 101.312 72.3906C102.021 72.3906 102.656 72.5651 103.219 72.9141C103.781 73.263 104.219 73.7578 104.531 74.3984C104.849 75.0391 105.01 75.7604 105.016 76.5625V76.9375C105.016 77.75 104.862 78.4766 104.555 79.1172C104.247 79.7578 103.81 80.2578 103.242 80.6172C102.68 80.9766 102.042 81.1562 101.328 81.1562C100.615 81.1562 99.974 80.9792 99.4062 80.625C98.8438 80.2708 98.4062 79.776 98.0938 79.1406C97.7812 78.5 97.6224 77.7812 97.6172 76.9844V76.6094ZM98.0391 76.9375C98.0391 77.6406 98.1771 78.2865 98.4531 78.875C98.7344 79.4583 99.1224 79.9141 99.6172 80.2422C100.117 80.5703 100.688 80.7344 101.328 80.7344C102.292 80.7344 103.076 80.3724 103.68 79.6484C104.289 78.9245 104.594 77.9922 104.594 76.8516V76.6094C104.594 75.9167 104.453 75.276 104.172 74.6875C103.891 74.099 103.5 73.6406 103 73.3125C102.505 72.9792 101.943 72.8125 101.312 72.8125C100.349 72.8125 99.5625 73.1797 98.9531 73.9141C98.3438 74.6484 98.0391 75.5729 98.0391 76.6875V76.9375ZM112.758 72.9766H109.438V81H109.016V72.9766H105.867V72.5469H112.758V72.9766ZM113.445 76.6094C113.445 75.8021 113.599 75.0781 113.906 74.4375C114.219 73.7917 114.656 73.2891 115.219 72.9297C115.786 72.5703 116.427 72.3906 117.141 72.3906C117.849 72.3906 118.484 72.5651 119.047 72.9141C119.609 73.263 120.047 73.7578 120.359 74.3984C120.677 75.0391 120.839 75.7604 120.844 76.5625V76.9375C120.844 77.75 120.69 78.4766 120.383 79.1172C120.076 79.7578 119.638 80.2578 119.07 80.6172C118.508 80.9766 117.87 81.1562 117.156 81.1562C116.443 81.1562 115.802 80.9792 115.234 80.625C114.672 80.2708 114.234 79.776 113.922 79.1406C113.609 78.5 113.451 77.7812 113.445 76.9844V76.6094ZM113.867 76.9375C113.867 77.6406 114.005 78.2865 114.281 78.875C114.562 79.4583 114.951 79.9141 115.445 80.2422C115.945 80.5703 116.516 80.7344 117.156 80.7344C118.12 80.7344 118.904 80.3724 119.508 79.6484C120.117 78.9245 120.422 77.9922 120.422 76.8516V76.6094C120.422 75.9167 120.281 75.276 120 74.6875C119.719 74.099 119.328 73.6406 118.828 73.3125C118.333 72.9792 117.771 72.8125 117.141 72.8125C116.177 72.8125 115.391 73.1797 114.781 73.9141C114.172 74.6484 113.867 75.5729 113.867 76.6875V76.9375Z" fill="white"/>
</svg>
