<svg width="81" height="98" viewBox="0 0 81 98" fill="none" xmlns="http://www.w3.org/2000/svg">
<mask id="path-1-inside-1" fill="white">
<path d="M44.7499 44.1013H62.7305C62.8153 44.1013 62.8966 44.0755 62.9566 44.0296C63.0165 43.9836 63.0502 43.9213 63.0502 43.8563C63.0502 43.7913 63.0165 43.729 62.9566 43.6831C62.8966 43.6371 62.8153 43.6113 62.7305 43.6113H44.7499C44.6651 43.6113 44.5838 43.6371 44.5238 43.6831C44.4639 43.729 44.4302 43.7913 44.4302 43.8563C44.4302 43.9213 44.4639 43.9836 44.5238 44.0296C44.5838 44.0755 44.6651 44.1013 44.7499 44.1013Z"/>
</mask>
<path d="M44.7499 44.1013H62.7305C62.8153 44.1013 62.8966 44.0755 62.9566 44.0296C63.0165 43.9836 63.0502 43.9213 63.0502 43.8563C63.0502 43.7913 63.0165 43.729 62.9566 43.6831C62.8966 43.6371 62.8153 43.6113 62.7305 43.6113H44.7499C44.6651 43.6113 44.5838 43.6371 44.5238 43.6831C44.4639 43.729 44.4302 43.7913 44.4302 43.8563C44.4302 43.9213 44.4639 43.9836 44.5238 44.0296C44.5838 44.0755 44.6651 44.1013 44.7499 44.1013Z" fill="white"/>
<path d="M44.7499 45.1013H62.7305V43.1013H44.7499V45.1013ZM62.7305 45.1013C63.0069 45.1013 63.3091 45.0193 63.5648 44.8233L62.3483 43.2359C62.4841 43.1317 62.6237 43.1013 62.7305 43.1013V45.1013ZM63.5648 44.8233C63.8263 44.6229 64.0502 44.2854 64.0502 43.8563H62.0502C62.0502 43.5572 62.2067 43.3444 62.3483 43.2359L63.5648 44.8233ZM64.0502 43.8563C64.0502 43.4272 63.8263 43.0898 63.5648 42.8894L62.3483 44.4768C62.2067 44.3683 62.0502 44.1555 62.0502 43.8563H64.0502ZM63.5648 42.8894C63.3091 42.6934 63.0069 42.6113 62.7305 42.6113V44.6113C62.6237 44.6113 62.4841 44.5809 62.3483 44.4768L63.5648 42.8894ZM62.7305 42.6113H44.7499V44.6113H62.7305V42.6113ZM44.7499 42.6113C44.4735 42.6113 44.1713 42.6934 43.9155 42.8894L45.1321 44.4768C44.9962 44.5809 44.8566 44.6113 44.7499 44.6113V42.6113ZM43.9155 42.8894C43.654 43.0898 43.4302 43.4273 43.4302 43.8563H45.4302C45.4302 44.1554 45.2737 44.3682 45.1321 44.4768L43.9155 42.8894ZM43.4302 43.8563C43.4302 44.2854 43.654 44.6228 43.9155 44.8233L45.1321 43.2359C45.2737 43.3444 45.4302 43.5572 45.4302 43.8563H43.4302ZM43.9155 44.8233C44.1713 45.0193 44.4735 45.1013 44.7499 45.1013V43.1013C44.8566 43.1013 44.9962 43.1317 45.1321 43.2359L43.9155 44.8233Z" fill="white" mask="url(#path-1-inside-1)"/>
<mask id="path-3-inside-2" fill="white">
<path d="M33.479 50.9607H74.0013C74.0859 50.9607 74.167 50.9349 74.2268 50.889C74.2866 50.843 74.3202 50.7807 74.3202 50.7157C74.3202 50.6507 74.2866 50.5884 74.2268 50.5425C74.167 50.4965 74.0859 50.4707 74.0013 50.4707H33.479C33.3944 50.4707 33.3133 50.4965 33.2535 50.5425C33.1937 50.5884 33.1602 50.6507 33.1602 50.7157C33.1602 50.7807 33.1937 50.843 33.2535 50.889C33.3133 50.9349 33.3944 50.9607 33.479 50.9607Z"/>
</mask>
<path d="M33.479 50.9607H74.0013C74.0859 50.9607 74.167 50.9349 74.2268 50.889C74.2866 50.843 74.3202 50.7807 74.3202 50.7157C74.3202 50.6507 74.2866 50.5884 74.2268 50.5425C74.167 50.4965 74.0859 50.4707 74.0013 50.4707H33.479C33.3944 50.4707 33.3133 50.4965 33.2535 50.5425C33.1937 50.5884 33.1602 50.6507 33.1602 50.7157C33.1602 50.7807 33.1937 50.843 33.2535 50.889C33.3133 50.9349 33.3944 50.9607 33.479 50.9607Z" fill="white"/>
<path d="M33.479 51.9607H74.0013V49.9607H33.479V51.9607ZM74.0013 51.9607C74.2781 51.9607 74.5805 51.8783 74.8361 51.6819L73.6175 50.096C73.7535 49.9915 73.8937 49.9607 74.0013 49.9607V51.9607ZM74.8361 51.6819C75.0974 51.481 75.3202 51.1437 75.3202 50.7157H73.3202C73.3202 50.4176 73.4757 50.205 73.6175 50.096L74.8361 51.6819ZM75.3202 50.7157C75.3202 50.2877 75.0974 49.9504 74.8361 49.7495L73.6175 51.3354C73.4757 51.2264 73.3202 51.0138 73.3202 50.7157H75.3202ZM74.8361 49.7495C74.5805 49.5531 74.2781 49.4707 74.0013 49.4707V51.4707C73.8937 51.4707 73.7535 51.4399 73.6175 51.3354L74.8361 49.7495ZM74.0013 49.4707H33.479V51.4707H74.0013V49.4707ZM33.479 49.4707C33.2022 49.4707 32.8999 49.5531 32.6442 49.7495L33.8628 51.3354C33.7268 51.4399 33.5866 51.4707 33.479 51.4707V49.4707ZM32.6442 49.7495C32.3828 49.9504 32.1602 50.2877 32.1602 50.7157H34.1602C34.1602 51.0137 34.0047 51.2264 33.8628 51.3354L32.6442 49.7495ZM32.1602 50.7157C32.1602 51.1437 32.3828 51.481 32.6442 51.6819L33.8628 50.096C34.0047 50.205 34.1602 50.4177 34.1602 50.7157H32.1602ZM32.6442 51.6819C32.8999 51.8783 33.2022 51.9607 33.479 51.9607V49.9607C33.5866 49.9607 33.7268 49.9915 33.8628 50.096L32.6442 51.6819Z" fill="white" mask="url(#path-3-inside-2)"/>
<mask id="path-5-inside-3" fill="white">
<path d="M33.4752 55.3709H50.4852C50.5687 55.3709 50.6488 55.345 50.7079 55.2991C50.767 55.2532 50.8002 55.1908 50.8002 55.1259C50.8002 55.0609 50.767 54.9986 50.7079 54.9526C50.6488 54.9067 50.5687 54.8809 50.4852 54.8809H33.4752C33.3916 54.8809 33.3115 54.9067 33.2524 54.9526C33.1933 54.9986 33.1602 55.0609 33.1602 55.1259C33.1602 55.1908 33.1933 55.2532 33.2524 55.2991C33.3115 55.345 33.3916 55.3709 33.4752 55.3709Z"/>
</mask>
<path d="M33.4752 55.3709H50.4852C50.5687 55.3709 50.6488 55.345 50.7079 55.2991C50.767 55.2532 50.8002 55.1908 50.8002 55.1259C50.8002 55.0609 50.767 54.9986 50.7079 54.9526C50.6488 54.9067 50.5687 54.8809 50.4852 54.8809H33.4752C33.3916 54.8809 33.3115 54.9067 33.2524 54.9526C33.1933 54.9986 33.1602 55.0609 33.1602 55.1259C33.1602 55.1908 33.1933 55.2532 33.2524 55.2991C33.3115 55.345 33.3916 55.3709 33.4752 55.3709Z" fill="white"/>
<path d="M33.4752 56.3709H50.4852V54.3709H33.4752V56.3709ZM50.4852 56.3709C50.7638 56.3709 51.0668 56.2868 51.3218 56.0885L50.094 54.5098C50.2308 54.4033 50.3736 54.3709 50.4852 54.3709V56.3709ZM51.3218 56.0885C51.5827 55.8856 51.8002 55.5488 51.8002 55.1259H49.8002C49.8002 54.8329 49.9512 54.6208 50.094 54.5098L51.3218 56.0885ZM51.8002 55.1259C51.8002 54.703 51.5827 54.3662 51.3218 54.1633L50.094 55.742C49.9512 55.631 49.8002 55.4188 49.8002 55.1259H51.8002ZM51.3218 54.1633C51.0668 53.9649 50.7638 53.8809 50.4852 53.8809V55.8809C50.3736 55.8809 50.2308 55.8484 50.094 55.742L51.3218 54.1633ZM50.4852 53.8809H33.4752V55.8809H50.4852V53.8809ZM33.4752 53.8809C33.1966 53.8809 32.8935 53.9649 32.6385 54.1633L33.8664 55.742C33.7295 55.8484 33.5867 55.8809 33.4752 55.8809V53.8809ZM32.6385 54.1633C32.3776 54.3662 32.1602 54.703 32.1602 55.1259H34.1602C34.1602 55.4188 34.0091 55.631 33.8664 55.742L32.6385 54.1633ZM32.1602 55.1259C32.1602 55.5488 32.3776 55.8856 32.6385 56.0885L33.8664 54.5098C34.0091 54.6208 34.1602 54.8329 34.1602 55.1259H32.1602ZM32.6385 56.0885C32.8935 56.2868 33.1966 56.3709 33.4752 56.3709V54.3709C33.5867 54.3709 33.7295 54.4033 33.8664 54.5098L32.6385 56.0885Z" fill="white" mask="url(#path-5-inside-3)"/>
<mask id="path-7-inside-4" fill="white">
<path d="M53.5708 55.3709H74.0002C74.0852 55.3709 74.1666 55.345 74.2267 55.2991C74.2868 55.2532 74.3205 55.1908 74.3205 55.1259C74.3205 55.0609 74.2868 54.9986 74.2267 54.9526C74.1666 54.9067 74.0852 54.8809 74.0002 54.8809H53.5708C53.4858 54.8809 53.4044 54.9067 53.3443 54.9526C53.2842 54.9986 53.2505 55.0609 53.2505 55.1259C53.2505 55.1908 53.2842 55.2532 53.3443 55.2991C53.4044 55.345 53.4858 55.3709 53.5708 55.3709Z"/>
</mask>
<path d="M53.5708 55.3709H74.0002C74.0852 55.3709 74.1666 55.345 74.2267 55.2991C74.2868 55.2532 74.3205 55.1908 74.3205 55.1259C74.3205 55.0609 74.2868 54.9986 74.2267 54.9526C74.1666 54.9067 74.0852 54.8809 74.0002 54.8809H53.5708C53.4858 54.8809 53.4044 54.9067 53.3443 54.9526C53.2842 54.9986 53.2505 55.0609 53.2505 55.1259C53.2505 55.1908 53.2842 55.2532 53.3443 55.2991C53.4044 55.345 53.4858 55.3709 53.5708 55.3709Z" fill="white"/>
<path d="M53.5708 56.3709H74.0002V54.3709H53.5708V56.3709ZM74.0002 56.3709C74.2763 56.3709 74.5784 56.2891 74.8343 56.0934L73.6191 54.5048C73.7548 54.401 73.894 54.3709 74.0002 54.3709V56.3709ZM74.8343 56.0934C75.0959 55.8932 75.3205 55.5557 75.3205 55.1259H73.3205C73.3205 54.826 73.4776 54.6131 73.6191 54.5048L74.8343 56.0934ZM75.3205 55.1259C75.3205 54.696 75.0959 54.3585 74.8343 54.1584L73.6191 55.7469C73.4776 55.6386 73.3205 55.4258 73.3205 55.1259H75.3205ZM74.8343 54.1584C74.5784 53.9626 74.2763 53.8809 74.0002 53.8809V55.8809C73.894 55.8809 73.7548 55.8507 73.6191 55.7469L74.8343 54.1584ZM74.0002 53.8809H53.5708V55.8809H74.0002V53.8809ZM53.5708 53.8809C53.2947 53.8809 52.9926 53.9626 52.7367 54.1584L53.9519 55.7469C53.8161 55.8507 53.677 55.8809 53.5708 55.8809V53.8809ZM52.7367 54.1584C52.4751 54.3585 52.2505 54.696 52.2505 55.1259H54.2505C54.2505 55.4258 54.0934 55.6386 53.9519 55.7469L52.7367 54.1584ZM52.2505 55.1259C52.2505 55.5557 52.4751 55.8932 52.7367 56.0934L53.9519 54.5048C54.0934 54.6131 54.2505 54.826 54.2505 55.1259H52.2505ZM52.7367 56.0934C52.9926 56.2891 53.2947 56.3709 53.5708 56.3709V54.3709C53.677 54.3709 53.8161 54.401 53.9519 54.5048L52.7367 56.0934Z" fill="white" mask="url(#path-7-inside-4)"/>
<mask id="path-9-inside-5" fill="white">
<path d="M33.4791 59.7808H62.2412C62.3258 59.7808 62.4069 59.7292 62.4668 59.6373C62.5266 59.5454 62.5602 59.4207 62.5602 59.2908C62.5602 59.1608 62.5266 59.0362 62.4668 58.9443C62.4069 58.8524 62.3258 58.8008 62.2412 58.8008H33.4791C33.3945 58.8008 33.3134 58.8524 33.2536 58.9443C33.1938 59.0362 33.1602 59.1608 33.1602 59.2908C33.1602 59.4207 33.1938 59.5454 33.2536 59.6373C33.3134 59.7292 33.3945 59.7808 33.4791 59.7808Z"/>
</mask>
<path d="M33.4791 59.7808H62.2412C62.3258 59.7808 62.4069 59.7292 62.4668 59.6373C62.5266 59.5454 62.5602 59.4207 62.5602 59.2908C62.5602 59.1608 62.5266 59.0362 62.4668 58.9443C62.4069 58.8524 62.3258 58.8008 62.2412 58.8008H33.4791C33.3945 58.8008 33.3134 58.8524 33.2536 58.9443C33.1938 59.0362 33.1602 59.1608 33.1602 59.2908C33.1602 59.4207 33.1938 59.5454 33.2536 59.6373C33.3134 59.7292 33.3945 59.7808 33.4791 59.7808Z" fill="white"/>
<path d="M33.4791 61.7808H62.2412V57.7808H33.4791V61.7808ZM62.2412 61.7808C63.2005 61.7808 63.8371 61.1982 64.143 60.7282L60.7905 58.5463C60.9768 58.2601 61.4511 57.7808 62.2412 57.7808V61.7808ZM64.143 60.7282C64.4506 60.2556 64.5602 59.7351 64.5602 59.2908H60.5602C60.5602 59.1063 60.6025 58.8352 60.7905 58.5463L64.143 60.7282ZM64.5602 59.2908C64.5602 58.8465 64.4507 58.326 64.143 57.8533L60.7905 60.0353C60.6025 59.7464 60.5602 59.4752 60.5602 59.2908H64.5602ZM64.143 57.8533C63.8371 57.3833 63.2004 56.8008 62.2412 56.8008V60.8008C61.4513 60.8008 60.9768 60.3215 60.7905 60.0353L64.143 57.8533ZM62.2412 56.8008H33.4791V60.8008H62.2412V56.8008ZM33.4791 56.8008C32.5199 56.8008 31.8833 57.3833 31.5773 57.8533L34.9298 60.0353C34.7435 60.3215 34.2691 60.8008 33.4791 60.8008V56.8008ZM31.5773 57.8533C31.2697 58.326 31.1602 58.8465 31.1602 59.2908H35.1602C35.1602 59.4752 35.1178 59.7464 34.9298 60.0353L31.5773 57.8533ZM31.1602 59.2908C31.1602 59.7351 31.2697 60.2556 31.5773 60.7282L34.9298 58.5463C35.1178 58.8352 35.1602 59.1063 35.1602 59.2908H31.1602ZM31.5773 60.7282C31.8832 61.1982 32.5198 61.7808 33.4791 61.7808V57.7808C34.2692 57.7808 34.7436 58.2601 34.9298 58.5463L31.5773 60.7282Z" fill="white" mask="url(#path-9-inside-5)"/>
<mask id="path-11-inside-6" fill="white">
<path d="M64.846 59.7808H73.995C74.0813 59.7808 74.1641 59.7292 74.2252 59.6373C74.2862 59.5454 74.3205 59.4207 74.3205 59.2908C74.3205 59.1608 74.2862 59.0362 74.2252 58.9443C74.1641 58.8524 74.0813 58.8008 73.995 58.8008H64.846C64.7597 58.8008 64.6769 58.8524 64.6158 58.9443C64.5548 59.0362 64.5205 59.1608 64.5205 59.2908C64.5205 59.4207 64.5548 59.5454 64.6158 59.6373C64.6769 59.7292 64.7597 59.7808 64.846 59.7808Z"/>
</mask>
<path d="M64.846 59.7808H73.995C74.0813 59.7808 74.1641 59.7292 74.2252 59.6373C74.2862 59.5454 74.3205 59.4207 74.3205 59.2908C74.3205 59.1608 74.2862 59.0362 74.2252 58.9443C74.1641 58.8524 74.0813 58.8008 73.995 58.8008H64.846C64.7597 58.8008 64.6769 58.8524 64.6158 58.9443C64.5548 59.0362 64.5205 59.1608 64.5205 59.2908C64.5205 59.4207 64.5548 59.5454 64.6158 59.6373C64.6769 59.7292 64.7597 59.7808 64.846 59.7808Z" fill="white"/>
<path d="M64.846 61.7808H73.995V57.7808H64.846V61.7808ZM73.995 61.7808C74.9368 61.7808 75.5754 61.2192 75.8911 60.7439L72.5592 58.5306C72.7529 58.2391 73.2259 57.7808 73.995 57.7808V61.7808ZM75.8911 60.7439C76.2065 60.2692 76.3205 59.743 76.3205 59.2908H72.3205C72.3205 59.0985 72.366 58.8215 72.5592 58.5306L75.8911 60.7439ZM76.3205 59.2908C76.3205 58.8386 76.2065 58.3124 75.8911 57.8376L72.5592 60.051C72.366 59.76 72.3205 59.483 72.3205 59.2908H76.3205ZM75.8911 57.8376C75.5753 57.3623 74.9366 56.8008 73.995 56.8008V60.8008C73.226 60.8008 72.7529 60.3425 72.5592 60.051L75.8911 57.8376ZM73.995 56.8008H64.846V60.8008H73.995V56.8008ZM64.846 56.8008C63.9044 56.8008 63.2657 57.3623 62.9499 57.8376L66.2818 60.051C66.0881 60.3425 65.615 60.8008 64.846 60.8008V56.8008ZM62.9499 57.8376C62.6345 58.3124 62.5205 58.8386 62.5205 59.2908H66.5205C66.5205 59.483 66.4751 59.76 66.2818 60.051L62.9499 57.8376ZM62.5205 59.2908C62.5205 59.743 62.6346 60.2692 62.9499 60.7439L66.2818 58.5306C66.475 58.8215 66.5205 59.0985 66.5205 59.2908H62.5205ZM62.9499 60.7439C63.2656 61.2192 63.9043 61.7808 64.846 61.7808V57.7808C65.6151 57.7808 66.0882 58.2391 66.2818 58.5306L62.9499 60.7439Z" fill="white" mask="url(#path-11-inside-6)"/>
<mask id="path-13-inside-7" fill="white">
<path d="M33.4796 63.7009H74.0007C74.0854 63.7009 74.1667 63.6751 74.2266 63.6292C74.2865 63.5832 74.3202 63.5209 74.3202 63.4559C74.3202 63.391 74.2865 63.3286 74.2266 63.2827C74.1667 63.2367 74.0854 63.2109 74.0007 63.2109H33.4796C33.3949 63.2109 33.3136 63.2367 33.2537 63.2827C33.1938 63.3286 33.1602 63.391 33.1602 63.4559C33.1602 63.5209 33.1938 63.5832 33.2537 63.6292C33.3136 63.6751 33.3949 63.7009 33.4796 63.7009Z"/>
</mask>
<path d="M33.4796 63.7009H74.0007C74.0854 63.7009 74.1667 63.6751 74.2266 63.6292C74.2865 63.5832 74.3202 63.5209 74.3202 63.4559C74.3202 63.391 74.2865 63.3286 74.2266 63.2827C74.1667 63.2367 74.0854 63.2109 74.0007 63.2109H33.4796C33.3949 63.2109 33.3136 63.2367 33.2537 63.2827C33.1938 63.3286 33.1602 63.391 33.1602 63.4559C33.1602 63.5209 33.1938 63.5832 33.2537 63.6292C33.3136 63.6751 33.3949 63.7009 33.4796 63.7009Z" fill="white"/>
<path d="M33.4796 64.7009H74.0007V62.7009H33.4796V64.7009ZM74.0007 64.7009C74.2772 64.7009 74.5794 64.6188 74.8352 64.4227L73.618 62.8357C73.7539 62.7314 73.8937 62.7009 74.0007 62.7009V64.7009ZM74.8352 64.4227C75.0967 64.2221 75.3202 63.8847 75.3202 63.4559H73.3202C73.3202 63.1571 73.4763 62.9443 73.618 62.8357L74.8352 64.4227ZM75.3202 63.4559C75.3202 63.0272 75.0967 62.6898 74.8352 62.4892L73.618 64.0762C73.4763 63.9675 73.3202 63.7547 73.3202 63.4559H75.3202ZM74.8352 62.4892C74.5794 62.2931 74.2772 62.2109 74.0007 62.2109V64.2109C73.8937 64.2109 73.7539 64.1804 73.618 64.0762L74.8352 62.4892ZM74.0007 62.2109H33.4796V64.2109H74.0007V62.2109ZM33.4796 62.2109C33.2031 62.2109 32.9009 62.2931 32.6452 62.4892L33.8623 64.0762C33.7264 64.1804 33.5866 64.2109 33.4796 64.2109V62.2109ZM32.6452 62.4892C32.3836 62.6898 32.1602 63.0272 32.1602 63.4559H34.1602C34.1602 63.7547 34.004 63.9675 33.8623 64.0762L32.6452 62.4892ZM32.1602 63.4559C32.1602 63.8847 32.3836 64.2221 32.6452 64.4227L33.8623 62.8357C34.004 62.9443 34.1602 63.1571 34.1602 63.4559H32.1602ZM32.6452 64.4227C32.9009 64.6188 33.2031 64.7009 33.4796 64.7009V62.7009C33.5866 62.7009 33.7264 62.7314 33.8623 62.8357L32.6452 64.4227Z" fill="white" mask="url(#path-13-inside-7)"/>
<mask id="path-15-inside-8" fill="white">
<path d="M40.6952 67.6211H33.4651C33.3843 67.6211 33.3067 67.6469 33.2495 67.6929C33.1923 67.7388 33.1602 67.8011 33.1602 67.8661C33.1602 67.9311 33.1923 67.9934 33.2495 68.0393C33.3067 68.0853 33.3843 68.1111 33.4651 68.1111H40.6952C40.7761 68.1111 40.8536 68.0853 40.9108 68.0393C40.968 67.9934 41.0002 67.9311 41.0002 67.8661C41.0002 67.8011 40.968 67.7388 40.9108 67.6929C40.8536 67.6469 40.7761 67.6211 40.6952 67.6211Z"/>
</mask>
<path d="M40.6952 67.6211H33.4651C33.3843 67.6211 33.3067 67.6469 33.2495 67.6929C33.1923 67.7388 33.1602 67.8011 33.1602 67.8661C33.1602 67.9311 33.1923 67.9934 33.2495 68.0393C33.3067 68.0853 33.3843 68.1111 33.4651 68.1111H40.6952C40.7761 68.1111 40.8536 68.0853 40.9108 68.0393C40.968 67.9934 41.0002 67.9311 41.0002 67.8661C41.0002 67.8011 40.968 67.7388 40.9108 67.6929C40.8536 67.6469 40.7761 67.6211 40.6952 67.6211Z" fill="white"/>
<path d="M33.4651 67.6211V68.6211V67.6211ZM40.6952 68.1111V69.1111V68.1111ZM40.6952 66.6211H33.4651V68.6211H40.6952V66.6211ZM33.4651 66.6211C33.1813 66.6211 32.8764 66.7098 32.6232 66.9133L33.8758 68.4724C33.7369 68.584 33.5872 68.6211 33.4651 68.6211V66.6211ZM32.6232 66.9133C32.3642 67.1213 32.1602 67.4564 32.1602 67.8661H34.1602C34.1602 68.1458 34.0204 68.3563 33.8758 68.4724L32.6232 66.9133ZM32.1602 67.8661C32.1602 68.2758 32.3642 68.6109 32.6232 68.8189L33.8758 67.2597C34.0203 67.3759 34.1602 67.5864 34.1602 67.8661H32.1602ZM32.6232 68.8189C32.8764 69.0223 33.1813 69.1111 33.4651 69.1111V67.1111C33.5872 67.1111 33.737 67.1482 33.8758 67.2597L32.6232 68.8189ZM33.4651 69.1111H40.6952V67.1111H33.4651V69.1111ZM40.6952 69.1111C40.979 69.1111 41.2839 69.0223 41.5371 68.8189L40.2846 67.2597C40.4234 67.1482 40.5731 67.1111 40.6952 67.1111V69.1111ZM41.5371 68.8189C41.7961 68.6109 42.0002 68.2758 42.0002 67.8661H40.0002C40.0002 67.5864 40.14 67.3759 40.2846 67.2597L41.5371 68.8189ZM42.0002 67.8661C42.0002 67.4564 41.7961 67.1213 41.5371 66.9133L40.2846 68.4724C40.14 68.3563 40.0002 68.1458 40.0002 67.8661H42.0002ZM41.5371 66.9133C41.2839 66.7098 40.979 66.6211 40.6952 66.6211V68.6211C40.5732 68.6211 40.4234 68.584 40.2846 68.4724L41.5371 66.9133Z" fill="white" mask="url(#path-15-inside-8)"/>
<mask id="path-17-inside-9" fill="white">
<path d="M58.8048 67.6211H43.7756C43.6893 67.6211 43.6065 67.6469 43.5455 67.6929C43.4845 67.7388 43.4502 67.8011 43.4502 67.8661C43.4502 67.9311 43.4845 67.9934 43.5455 68.0393C43.6065 68.0853 43.6893 68.1111 43.7756 68.1111H58.8048C58.8911 68.1111 58.9739 68.0853 59.0349 68.0393C59.0959 67.9934 59.1302 67.9311 59.1302 67.8661C59.1302 67.8011 59.0959 67.7388 59.0349 67.6929C58.9739 67.6469 58.8911 67.6211 58.8048 67.6211Z"/>
</mask>
<path d="M58.8048 67.6211H43.7756C43.6893 67.6211 43.6065 67.6469 43.5455 67.6929C43.4845 67.7388 43.4502 67.8011 43.4502 67.8661C43.4502 67.9311 43.4845 67.9934 43.5455 68.0393C43.6065 68.0853 43.6893 68.1111 43.7756 68.1111H58.8048C58.8911 68.1111 58.9739 68.0853 59.0349 68.0393C59.0959 67.9934 59.1302 67.9311 59.1302 67.8661C59.1302 67.8011 59.0959 67.7388 59.0349 67.6929C58.9739 67.6469 58.8911 67.6211 58.8048 67.6211Z" fill="white"/>
<path d="M43.7756 67.6211V68.6211V67.6211ZM58.8048 68.1111V69.1111V68.1111ZM58.8048 66.6211H43.7756V68.6211H58.8048V66.6211ZM43.7756 66.6211C43.5018 66.6211 43.2005 66.7008 42.9439 66.894L44.147 68.4917C44.0125 68.593 43.8768 68.6211 43.7756 68.6211V66.6211ZM42.9439 66.894C42.6818 67.0914 42.4502 67.4296 42.4502 67.8661H44.4502C44.4502 68.1727 44.2872 68.3862 44.147 68.4917L42.9439 66.894ZM42.4502 67.8661C42.4502 68.3026 42.6818 68.6408 42.9439 68.8382L44.147 67.2405C44.2871 67.346 44.4502 67.5595 44.4502 67.8661H42.4502ZM42.9439 68.8382C43.2005 69.0314 43.5017 69.1111 43.7756 69.1111V67.1111C43.8768 67.1111 44.0125 67.1392 44.147 67.2405L42.9439 68.8382ZM43.7756 69.1111H58.8048V67.1111H43.7756V69.1111ZM58.8048 69.1111C59.0787 69.1111 59.3799 69.0314 59.6364 68.8382L58.4333 67.2405C58.5679 67.1392 58.7036 67.1111 58.8048 67.1111V69.1111ZM59.6364 68.8382C59.8986 68.6408 60.1302 68.3026 60.1302 67.8661H58.1302C58.1302 67.5595 58.2932 67.346 58.4333 67.2405L59.6364 68.8382ZM60.1302 67.8661C60.1302 67.4296 59.8986 67.0914 59.6364 66.894L58.4333 68.4917C58.2932 68.3862 58.1302 68.1727 58.1302 67.8661H60.1302ZM59.6364 66.894C59.3799 66.7008 59.0786 66.6211 58.8048 66.6211V68.6211C58.7036 68.6211 58.5679 68.593 58.4333 68.4917L59.6364 66.894Z" fill="white" mask="url(#path-17-inside-9)"/>
<mask id="path-19-inside-10" fill="white">
<path d="M74.0081 67.6211H61.89C61.8078 67.6211 61.729 67.6469 61.6709 67.6929C61.6127 67.7388 61.5801 67.8011 61.5801 67.8661C61.5801 67.9311 61.6127 67.9934 61.6709 68.0393C61.729 68.0853 61.8078 68.1111 61.89 68.1111H74.0101C74.0923 68.1111 74.1712 68.0853 74.2293 68.0393C74.2874 67.9934 74.3201 67.9311 74.3201 67.8661C74.3201 67.8011 74.2874 67.7388 74.2293 67.6929C74.1712 67.6469 74.0923 67.6211 74.0101 67.6211H74.0081Z"/>
</mask>
<path d="M74.0081 67.6211H61.89C61.8078 67.6211 61.729 67.6469 61.6709 67.6929C61.6127 67.7388 61.5801 67.8011 61.5801 67.8661C61.5801 67.9311 61.6127 67.9934 61.6709 68.0393C61.729 68.0853 61.8078 68.1111 61.89 68.1111H74.0101C74.0923 68.1111 74.1712 68.0853 74.2293 68.0393C74.2874 67.9934 74.3201 67.9311 74.3201 67.8661C74.3201 67.8011 74.2874 67.7388 74.2293 67.6929C74.1712 67.6469 74.0923 67.6211 74.0101 67.6211H74.0081Z" fill="white"/>
<path d="M61.89 67.6211V68.6211V67.6211ZM74.0101 68.1111V69.1111V68.1111ZM74.0081 66.6211H61.89V68.6211H74.0081V66.6211ZM61.89 66.6211C61.6088 66.6211 61.3048 66.7075 61.0507 66.9084L62.291 68.4773C62.1531 68.5864 62.0068 68.6211 61.89 68.6211V66.6211ZM61.0507 66.9084C60.7907 67.1139 60.5801 67.4499 60.5801 67.8661H62.5801C62.5801 68.1523 62.4348 68.3637 62.291 68.4773L61.0507 66.9084ZM60.5801 67.8661C60.5801 68.2823 60.7907 68.6183 61.0507 68.8238L62.291 67.2549C62.4347 67.3685 62.5801 67.5798 62.5801 67.8661H60.5801ZM61.0507 68.8238C61.3048 69.0247 61.6088 69.1111 61.89 69.1111V67.1111C62.0068 67.1111 62.1531 67.1459 62.291 67.2549L61.0507 68.8238ZM61.89 69.1111H74.0101V67.1111H61.89V69.1111ZM74.0101 69.1111C74.2914 69.1111 74.5953 69.0247 74.8494 68.8238L73.6091 67.2549C73.747 67.1459 73.8933 67.1111 74.0101 67.1111V69.1111ZM74.8494 68.8238C75.1094 68.6183 75.3201 68.2824 75.3201 67.8661H73.3201C73.3201 67.5798 73.4655 67.3684 73.6091 67.2549L74.8494 68.8238ZM75.3201 67.8661C75.3201 67.4498 75.1094 67.1139 74.8494 66.9084L73.6091 68.4773C73.4654 68.3637 73.3201 68.1524 73.3201 67.8661H75.3201ZM74.8494 66.9084C74.5953 66.7075 74.2913 66.6211 74.0101 66.6211V68.6211C73.8934 68.6211 73.747 68.5863 73.6091 68.4773L74.8494 66.9084ZM74.0101 66.6211H74.0081V68.6211H74.0101V66.6211Z" fill="white" mask="url(#path-19-inside-10)"/>
<mask id="path-21-inside-11" fill="white">
<path d="M33.4796 72.5212H74.0007C74.0854 72.5212 74.1667 72.4954 74.2266 72.4495C74.2865 72.4035 74.3202 72.3412 74.3202 72.2762C74.3202 72.2113 74.2865 72.149 74.2266 72.103C74.1667 72.0571 74.0854 72.0312 74.0007 72.0312H33.4796C33.3949 72.0312 33.3136 72.0571 33.2537 72.103C33.1938 72.149 33.1602 72.2113 33.1602 72.2762C33.1602 72.3412 33.1938 72.4035 33.2537 72.4495C33.3136 72.4954 33.3949 72.5212 33.4796 72.5212Z"/>
</mask>
<path d="M33.4796 72.5212H74.0007C74.0854 72.5212 74.1667 72.4954 74.2266 72.4495C74.2865 72.4035 74.3202 72.3412 74.3202 72.2762C74.3202 72.2113 74.2865 72.149 74.2266 72.103C74.1667 72.0571 74.0854 72.0312 74.0007 72.0312H33.4796C33.3949 72.0312 33.3136 72.0571 33.2537 72.103C33.1938 72.149 33.1602 72.2113 33.1602 72.2762C33.1602 72.3412 33.1938 72.4035 33.2537 72.4495C33.3136 72.4954 33.3949 72.5212 33.4796 72.5212Z" fill="white"/>
<path d="M33.4796 73.5212H74.0007V71.5212H33.4796V73.5212ZM74.0007 73.5212C74.2772 73.5212 74.5794 73.4391 74.8352 73.243L73.618 71.656C73.7539 71.5518 73.8937 71.5212 74.0007 71.5212V73.5212ZM74.8352 73.243C75.0967 73.0424 75.3202 72.705 75.3202 72.2762H73.3202C73.3202 71.9774 73.4763 71.7647 73.618 71.656L74.8352 73.243ZM75.3202 72.2762C75.3202 71.8475 75.0966 71.5101 74.8352 71.3095L73.618 72.8965C73.4764 72.7879 73.3202 72.5751 73.3202 72.2762H75.3202ZM74.8352 71.3095C74.5795 71.1134 74.2772 71.0312 74.0007 71.0312V73.0312C73.8936 73.0312 73.7539 73.0007 73.618 72.8965L74.8352 71.3095ZM74.0007 71.0312H33.4796V73.0312H74.0007V71.0312ZM33.4796 71.0312C33.2031 71.0312 32.9008 71.1134 32.6452 71.3095L33.8623 72.8965C33.7264 73.0007 33.5867 73.0312 33.4796 73.0312V71.0312ZM32.6452 71.3095C32.3837 71.5101 32.1602 71.8475 32.1602 72.2762H34.1602C34.1602 72.5751 34.004 72.7879 33.8623 72.8965L32.6452 71.3095ZM32.1602 72.2762C32.1602 72.705 32.3836 73.0424 32.6452 73.243L33.8623 71.656C34.004 71.7647 34.1602 71.9774 34.1602 72.2762H32.1602ZM32.6452 73.243C32.9009 73.4391 33.2031 73.5212 33.4796 73.5212V71.5212C33.5866 71.5212 33.7264 71.5518 33.8623 71.656L32.6452 73.243Z" fill="white" mask="url(#path-21-inside-11)"/>
<mask id="path-23-inside-12" fill="white">
<path d="M33.4802 76.9312H64.6901C64.775 76.9312 64.8564 76.8796 64.9164 76.7877C64.9764 76.6958 65.0102 76.5711 65.0102 76.4412C65.0102 76.3112 64.9764 76.1866 64.9164 76.0947C64.8564 76.0028 64.775 75.9512 64.6901 75.9512H33.4802C33.3953 75.9512 33.3139 76.0028 33.2539 76.0947C33.1939 76.1866 33.1602 76.3112 33.1602 76.4412C33.1602 76.5711 33.1939 76.6958 33.2539 76.7877C33.3139 76.8796 33.3953 76.9312 33.4802 76.9312Z"/>
</mask>
<path d="M33.4802 76.9312H64.6901C64.775 76.9312 64.8564 76.8796 64.9164 76.7877C64.9764 76.6958 65.0102 76.5711 65.0102 76.4412C65.0102 76.3112 64.9764 76.1866 64.9164 76.0947C64.8564 76.0028 64.775 75.9512 64.6901 75.9512H33.4802C33.3953 75.9512 33.3139 76.0028 33.2539 76.0947C33.1939 76.1866 33.1602 76.3112 33.1602 76.4412C33.1602 76.5711 33.1939 76.6958 33.2539 76.7877C33.3139 76.8796 33.3953 76.9312 33.4802 76.9312Z" fill="white"/>
<path d="M33.4802 78.9312H64.6901V74.9312H33.4802V78.9312ZM64.6901 78.9312C65.6463 78.9312 66.2833 78.3523 66.5909 77.8813L63.2419 75.694C63.4295 75.4068 63.9037 74.9312 64.6901 74.9312V78.9312ZM66.5909 77.8813C66.8999 77.4083 67.0102 76.8868 67.0102 76.4412H63.0102C63.0102 76.2554 63.053 75.9833 63.2419 75.694L66.5909 77.8813ZM67.0102 76.4412C67.0102 75.9955 66.8999 75.4741 66.5909 75.001L63.2419 77.1883C63.053 76.8991 63.0102 76.6269 63.0102 76.4412H67.0102ZM66.5909 75.001C66.2833 74.53 65.6463 73.9512 64.6901 73.9512V77.9512C63.9037 77.9512 63.4295 77.4756 63.2419 77.1883L66.5909 75.001ZM64.6901 73.9512H33.4802V77.9512H64.6901V73.9512ZM33.4802 73.9512C32.524 73.9512 31.887 74.53 31.5794 75.001L34.9284 77.1883C34.7408 77.4756 34.2666 77.9512 33.4802 77.9512V73.9512ZM31.5794 75.001C31.2704 75.4741 31.1602 75.9955 31.1602 76.4412H35.1602C35.1602 76.6269 35.1173 76.8991 34.9284 77.1883L31.5794 75.001ZM31.1602 76.4412C31.1602 76.8868 31.2704 77.4083 31.5794 77.8813L34.9284 75.694C35.1173 75.9833 35.1602 76.2554 35.1602 76.4412H31.1602ZM31.5794 77.8813C31.887 78.3523 32.524 78.9312 33.4802 78.9312V74.9312C34.2666 74.9312 34.7408 75.4068 34.9284 75.694L31.5794 77.8813Z" fill="white" mask="url(#path-23-inside-12)"/>
<mask id="path-25-inside-13" fill="white">
<path d="M68.2712 76.9312H73.9992C74.0844 76.9312 74.166 76.8796 74.2262 76.7877C74.2864 76.6958 74.3202 76.5711 74.3202 76.4412C74.3202 76.3112 74.2864 76.1866 74.2262 76.0947C74.166 76.0028 74.0844 75.9512 73.9992 75.9512H68.2712C68.186 75.9512 68.1044 76.0028 68.0442 76.0947C67.984 76.1866 67.9502 76.3112 67.9502 76.4412C67.9502 76.5711 67.984 76.6958 68.0442 76.7877C68.1044 76.8796 68.186 76.9312 68.2712 76.9312Z"/>
</mask>
<path d="M68.2712 76.9312H73.9992C74.0844 76.9312 74.166 76.8796 74.2262 76.7877C74.2864 76.6958 74.3202 76.5711 74.3202 76.4412C74.3202 76.3112 74.2864 76.1866 74.2262 76.0947C74.166 76.0028 74.0844 75.9512 73.9992 75.9512H68.2712C68.186 75.9512 68.1044 76.0028 68.0442 76.0947C67.984 76.1866 67.9502 76.3112 67.9502 76.4412C67.9502 76.5711 67.984 76.6958 68.0442 76.7877C68.1044 76.8796 68.186 76.9312 68.2712 76.9312Z" fill="white"/>
<path d="M68.2712 78.9312H73.9992V74.9312H68.2712V78.9312ZM73.9992 78.9312C74.9529 78.9312 75.5902 78.3553 75.8992 77.8835L72.5531 75.6918C72.7418 75.4038 73.2158 74.9312 73.9992 74.9312V78.9312ZM75.8992 77.8835C76.2093 77.4102 76.3202 76.8879 76.3202 76.4412H72.3202C72.3202 76.2543 72.3635 75.9814 72.5531 75.6918L75.8992 77.8835ZM76.3202 76.4412C76.3202 75.9944 76.2093 75.4722 75.8992 74.9988L72.5531 77.1906C72.3635 76.901 72.3202 76.628 72.3202 76.4412H76.3202ZM75.8992 74.9988C75.5902 74.527 74.9529 73.9512 73.9992 73.9512V77.9512C73.2158 77.9512 72.7418 77.4786 72.5531 77.1906L75.8992 74.9988ZM73.9992 73.9512H68.2712V77.9512H73.9992V73.9512ZM68.2712 73.9512C67.3175 73.9512 66.6802 74.527 66.3712 74.9988L69.7172 77.1906C69.5286 77.4786 69.0546 77.9512 68.2712 77.9512V73.9512ZM66.3712 74.9988C66.0611 75.4722 65.9502 75.9944 65.9502 76.4412H69.9502C69.9502 76.628 69.9069 76.901 69.7172 77.1906L66.3712 74.9988ZM65.9502 76.4412C65.9502 76.8879 66.0611 77.4102 66.3712 77.8835L69.7172 75.6918C69.9069 75.9814 69.9502 76.2543 69.9502 76.4412H65.9502ZM66.3712 77.8835C66.6802 78.3553 67.3175 78.9312 68.2712 78.9312V74.9312C69.0546 74.9312 69.5286 75.4038 69.7172 75.6918L66.3712 77.8835Z" fill="white" mask="url(#path-25-inside-13)"/>
<mask id="path-27-inside-14" fill="white">
<path d="M33.4784 80.8513H74.0019C74.0863 80.8513 74.1673 80.8255 74.2269 80.7796C74.2866 80.7336 74.3202 80.6713 74.3202 80.6063C74.3202 80.5414 74.2866 80.479 74.2269 80.4331C74.1673 80.3871 74.0863 80.3613 74.0019 80.3613H33.4784C33.394 80.3613 33.313 80.3871 33.2534 80.4331C33.1937 80.479 33.1602 80.5414 33.1602 80.6063C33.1602 80.6713 33.1937 80.7336 33.2534 80.7796C33.313 80.8255 33.394 80.8513 33.4784 80.8513Z"/>
</mask>
<path d="M33.4784 80.8513H74.0019C74.0863 80.8513 74.1673 80.8255 74.2269 80.7796C74.2866 80.7336 74.3202 80.6713 74.3202 80.6063C74.3202 80.5414 74.2866 80.479 74.2269 80.4331C74.1673 80.3871 74.0863 80.3613 74.0019 80.3613H33.4784C33.394 80.3613 33.313 80.3871 33.2534 80.4331C33.1937 80.479 33.1602 80.5414 33.1602 80.6063C33.1602 80.6713 33.1937 80.7336 33.2534 80.7796C33.313 80.8255 33.394 80.8513 33.4784 80.8513Z" fill="white"/>
<path d="M33.4784 81.8513H74.0019V79.8513H33.4784V81.8513ZM74.0019 81.8513C74.279 81.8513 74.5815 81.7687 74.837 81.572L73.6169 79.9872C73.7531 79.8824 73.8936 79.8513 74.0019 79.8513V81.8513ZM74.837 81.572C75.0983 81.3708 75.3202 81.0335 75.3202 80.6063H73.3202C73.3202 80.3091 73.475 80.0965 73.6169 79.9872L74.837 81.572ZM75.3202 80.6063C75.3202 80.1792 75.0983 79.8419 74.837 79.6407L73.6169 81.2255C73.4749 81.1162 73.3202 80.9036 73.3202 80.6063H75.3202ZM74.837 79.6407C74.5814 79.444 74.2789 79.3613 74.0019 79.3613V81.3613C73.8937 81.3613 73.7531 81.3303 73.6169 81.2255L74.837 79.6407ZM74.0019 79.3613H33.4784V81.3613H74.0019V79.3613ZM33.4784 79.3613C33.2014 79.3613 32.8989 79.444 32.6433 79.6407L33.8634 81.2255C33.7272 81.3303 33.5866 81.3613 33.4784 81.3613V79.3613ZM32.6433 79.6407C32.382 79.8419 32.1602 80.1792 32.1602 80.6063H34.1602C34.1602 80.9036 34.0054 81.1162 33.8634 81.2255L32.6433 79.6407ZM32.1602 80.6063C32.1602 81.0335 32.382 81.3708 32.6433 81.572L33.8634 79.9872C34.0053 80.0965 34.1602 80.3091 34.1602 80.6063H32.1602ZM32.6433 81.572C32.8989 81.7687 33.2013 81.8513 33.4784 81.8513V79.8513C33.5867 79.8513 33.7272 79.8824 33.8634 79.9872L32.6433 81.572Z" fill="white" mask="url(#path-27-inside-14)"/>
<path d="M27.2803 71.6948V95.4345C27.2803 96.1151 27.5525 96.7679 28.037 97.2492C28.5214 97.7305 29.1786 98.0009 29.8637 98.0009H77.6168C78.302 98.0009 78.9591 97.7305 79.4436 97.2492C79.9281 96.7679 80.2003 96.1151 80.2003 95.4345V29.0274C80.2003 28.3467 79.9281 27.6939 79.4436 27.2126C78.9591 26.7313 78.302 26.4609 77.6168 26.4609H53.9853" stroke="white" stroke-miterlimit="10"/>
<path d="M30.1049 26.3062L53.7401 26.46V2.56646C53.7401 1.88579 53.4704 1.233 52.9904 0.751698C52.5104 0.270394 51.8593 0 51.1805 0H3.8696C3.19076 0 2.53974 0.270394 2.05973 0.751698C1.57972 1.233 1.31006 1.88579 1.31006 2.56646V68.9735C1.31006 69.6542 1.57972 70.307 2.05973 70.7883C2.53974 71.2696 3.19076 71.54 3.8696 71.54H27.2801L27.5453 28.8726C27.5453 28.192 27.815 27.5392 28.295 27.0579C28.775 26.5766 29.4851 26.46 30.1049 26.3062Z" stroke="white" stroke-miterlimit="10"/>
<path d="M9.25239 76.9297C7.80897 78.6206 7.07533 80.8025 7.20451 83.0203C7.33369 85.2381 8.31572 87.3204 9.94575 88.833C11.5758 90.3456 13.7279 91.1716 15.9533 91.1387C18.1787 91.1059 20.3054 90.2497 21.8899 88.6897" stroke="white" stroke-miterlimit="10" stroke-linecap="round"/>
<path d="M18.4597 87.3029L22.0178 88.7366L20.5842 92.2947" stroke="white" stroke-linecap="round" stroke-linejoin="round"/>
<path d="M72.4678 22.2246C73.9112 20.5337 74.6449 18.3517 74.5157 16.134C74.3865 13.9162 73.4045 11.8339 71.7745 10.3213C70.1444 8.80872 67.9923 7.9827 65.7669 8.01555C63.5415 8.0484 61.4148 8.90457 59.8303 10.4646" stroke="white" stroke-miterlimit="10" stroke-linecap="round"/>
<path d="M63.2605 11.8514L59.7024 10.4177L61.136 6.85961" stroke="white" stroke-linecap="round" stroke-linejoin="round"/>
</svg>
