<svg width="32" height="32" viewBox="0 0 32 32" fill="none" xmlns="http://www.w3.org/2000/svg">
<path d="M15.332 18.0391C15.0977 18.6016 14.9727 19.3438 14.957 20.2656H16.3516C16.3516 18.8516 16.793 17.7734 17.6758 17.0312C18.7461 16.0469 19.4727 15.1875 19.8555 14.4531C20.2383 13.7109 20.4297 12.918 20.4297 12.0742C20.4297 10.7305 20.0391 9.66797 19.2578 8.88672C18.4844 8.09766 17.4258 7.70312 16.082 7.70312C14.7695 7.70312 13.6875 8.08984 12.8359 8.86328C11.9844 9.62891 11.5508 10.6523 11.5352 11.9336H12.9297C12.9453 11.0195 13.2383 10.2969 13.8086 9.76562C14.3867 9.22656 15.1445 8.95703 16.082 8.95703C17.0117 8.95703 17.7344 9.23828 18.25 9.80078C18.7734 10.3555 19.0352 11.1211 19.0352 12.0977C19.0352 12.582 18.9727 13.0156 18.8477 13.3984C18.7305 13.7734 18.5586 14.1211 18.332 14.4414C18.1133 14.7539 17.6172 15.293 16.8438 16.0586C16.0703 16.8164 15.5664 17.4766 15.332 18.0391Z" fill="white"/>
<path d="M15.0156 23.5117C14.8516 23.6914 14.7695 23.9141 14.7695 24.1797C14.7695 24.4375 14.8516 24.6562 15.0156 24.8359C15.1875 25.0078 15.4258 25.0938 15.7305 25.0938C16.0273 25.0938 16.2617 25.0078 16.4336 24.8359C16.6133 24.6562 16.7031 24.4375 16.7031 24.1797C16.7031 23.9141 16.6133 23.6914 16.4336 23.5117C16.2617 23.3242 16.0273 23.2305 15.7305 23.2305C15.4258 23.2305 15.1875 23.3242 15.0156 23.5117Z" fill="white"/>
<path fill-rule="evenodd" clip-rule="evenodd" d="M32 16C32 24.8367 24.8365 32 16 32C7.16345 32 0 24.8367 0 16C0 7.16333 7.16345 0 16 0C24.8365 0 32 7.16333 32 16ZM31 16C31 24.2842 24.2843 31 16 31C7.7157 31 1 24.2842 1 16C1 7.71582 7.7157 1 16 1C24.2843 1 31 7.71582 31 16Z" fill="white"/>
</svg>
