<svg width="127" height="133" viewBox="0 0 127 133" fill="none" xmlns="http://www.w3.org/2000/svg">
<path d="M58.3379 98.3923C71.2939 98.3923 81.7969 87.6783 81.7969 74.4618C81.7969 61.2453 71.2939 50.5312 58.3379 50.5312C45.3819 50.5312 34.8789 61.2453 34.8789 74.4618C34.8789 87.6783 45.3819 98.3923 58.3379 98.3923Z" stroke="white" stroke-miterlimit="10"/>
<path d="M59.042 78.9529C61.1267 78.9529 63.1261 78.1081 64.6002 76.6044C66.0743 75.1006 66.9025 73.0611 66.9025 70.9345C66.9025 68.8079 66.0743 66.7683 64.6002 65.2646C63.1261 63.7608 61.1267 62.916 59.042 62.916" stroke="white" stroke-width="2" stroke-linecap="round" stroke-linejoin="round"/>
<path d="M59.0677 62.9043L53.8003 62.9173V64.8836V76.8709V87.3992" stroke="white" stroke-width="2" stroke-linecap="round" stroke-linejoin="round"/>
<path d="M59.0416 78.9531H53.7817" stroke="white" stroke-width="2" stroke-linecap="round" stroke-linejoin="round"/>
<path d="M50.626 83.5391L60.187 83.6042" stroke="white" stroke-width="2" stroke-linecap="round" stroke-linejoin="round"/>
<path d="M121.754 103.649L109.052 94.0045C108.749 93.7443 108.366 93.6016 107.97 93.6016C107.574 93.6016 107.19 93.7443 106.887 94.0045L94.1851 103.649" stroke="white" stroke-miterlimit="10" stroke-linecap="round"/>
<path d="M99.6338 107.898V118.757" stroke="white" stroke-miterlimit="10" stroke-linecap="round"/>
<path d="M107.971 107.898V118.757" stroke="white" stroke-miterlimit="10" stroke-linecap="round"/>
<path d="M116.308 107.898V118.757" stroke="white" stroke-miterlimit="10" stroke-linecap="round"/>
<path d="M96.873 122.164H119.067" stroke="white" stroke-miterlimit="10" stroke-linecap="round"/>
<path d="M93.7598 126.074H122.183" stroke="white" stroke-miterlimit="10" stroke-linecap="round"/>
<path d="M89.7671 129.711H126.173" stroke="white" stroke-miterlimit="10" stroke-linecap="round"/>
<path d="M99.7002 103.996H116.24" stroke="white" stroke-miterlimit="10" stroke-linecap="round"/>
<path d="M69.294 35.5271C69.5209 35.5091 69.7317 35.4008 69.881 35.2257C70.0303 35.0505 70.1061 34.8225 70.0921 34.5908V20.5461C70.0954 20.4967 70.0954 20.4472 70.0921 20.3979C69.8371 17.5733 64.8144 15.3184 58.6545 15.3184C52.4946 15.3184 47.4744 17.5733 47.2169 20.3979C47.2135 20.4472 47.2135 20.4967 47.2169 20.5461V34.5908C47.2028 34.8225 47.2786 35.0505 47.4279 35.2257C47.5772 35.4008 47.7881 35.5091 48.0149 35.5271H69.3119" stroke="white" stroke-linecap="round" stroke-linejoin="round"/>
<circle cx="58.6005" cy="6.69772" r="6.19772" stroke="white"/>
<path d="M11.8226 104.582H8.29395" stroke="white" stroke-linecap="round" stroke-linejoin="round"/>
<path d="M23.0135 104.582H15.0791" stroke="white" stroke-linecap="round" stroke-linejoin="round"/>
<path d="M22.353 123.402H30.6902C30.9594 123.402 31.2259 123.348 31.4743 123.243C31.7228 123.137 31.9483 122.982 32.1379 122.788C32.3276 122.593 32.4775 122.361 32.5791 122.107C32.6807 121.853 32.7319 121.581 32.7299 121.306L32.5744 106.063C32.5704 105.736 32.491 105.415 32.3426 105.125C32.1942 104.835 31.981 104.585 31.7203 104.395L24.6247 99.2301C24.4723 99.1201 24.2933 99.0549 24.1071 99.0416C23.9209 99.0283 23.7347 99.0674 23.5688 99.1545C23.4029 99.2417 23.2636 99.3737 23.1661 99.5361C23.0686 99.6984 23.0167 99.885 23.0159 100.075V104.585" stroke="white" stroke-linecap="round" stroke-linejoin="round"/>
<path d="M14.0596 123.404H17.6724" stroke="white" stroke-linecap="round" stroke-linejoin="round"/>
<path d="M4.90349 104.582H3.03971C2.49874 104.582 1.97994 104.801 1.59742 105.191C1.2149 105.582 1 106.111 1 106.663V121.332C1 121.883 1.2149 122.413 1.59742 122.803C1.97994 123.193 2.49874 123.412 3.03971 123.412H9.38574" stroke="white" stroke-linecap="round" stroke-linejoin="round"/>
<path d="M8.29431 104.583V91.334H4.90332V104.583" stroke="white" stroke-linecap="round" stroke-linejoin="round"/>
<path d="M15.0765 104.582V94.8965H11.8232V104.582" stroke="white" stroke-linecap="round" stroke-linejoin="round"/>
<path d="M17.6719 123.404V125.566C17.6719 126.117 17.8868 126.647 18.2693 127.037C18.6518 127.427 19.1706 127.646 19.7116 127.646H20.3209C20.8619 127.646 21.3807 127.427 21.7632 127.037C22.1457 126.647 22.3606 126.117 22.3606 125.566V123.404" stroke="white" stroke-linecap="round" stroke-linejoin="round"/>
<path d="M22.3534 123.405V119.03C22.3534 118.478 22.1385 117.949 21.756 117.559C21.3734 117.168 20.8546 116.949 20.3137 116.949H19.7043C19.1633 116.949 18.6445 117.168 18.262 117.559C17.8794 117.949 17.6646 118.478 17.6646 119.03V123.407" stroke="white" stroke-linecap="round" stroke-linejoin="round"/>
<path d="M9.38574 123.404V125.566C9.38574 126.117 9.60064 126.647 9.98317 127.037C10.3657 127.427 10.8845 127.646 11.4255 127.646H12.0348C12.5758 127.646 13.0946 127.427 13.4772 127.037C13.8597 126.647 14.0746 126.117 14.0746 125.566V123.404" stroke="white" stroke-linecap="round" stroke-linejoin="round"/>
<path d="M14.0592 123.405V119.03C14.0592 118.478 13.8443 117.949 13.4618 117.559C13.0793 117.168 12.5605 116.949 12.0195 116.949H11.4254C10.8845 116.949 10.3657 117.168 9.98316 117.559C9.60064 117.949 9.38574 118.478 9.38574 119.03V123.407" stroke="white" stroke-linecap="round" stroke-linejoin="round"/>
<path d="M3.81446 80.4191C2.51235 68.0418 5.08921 55.562 11.1749 44.7722C17.2607 33.9823 26.5421 25.4376 37.6862 20.3652" stroke="white" stroke-linecap="round" stroke-linejoin="round"/>
<path d="M116.39 80.4191C117.693 68.0424 115.116 55.5631 109.032 44.7733C102.947 33.9835 93.6665 25.4384 82.5234 20.3652" stroke="white" stroke-linecap="round" stroke-linejoin="round"/>
<path d="M76.9506 130.19C66.429 133.051 55.3305 132.833 44.9248 129.561" stroke="white" stroke-linecap="round" stroke-linejoin="round"/>
</svg>
