<svg width="900" height="714" viewBox="0 0 900 714" fill="none" xmlns="http://www.w3.org/2000/svg">
<path d="M825.001 244C866.422 244 900.001 210.421 900.001 169C900.001 127.579 866.422 94 825.001 94C783.579 94 750.001 127.579 750.001 169C750.001 210.421 783.579 244 825.001 244Z" fill="url(#paint0_radial)"/>
<path d="M29.1407 6.43127L0 9.92914V714H893.275L894.396 709.003L897.198 689.015L898.879 671.026L899.44 658.534L900 645.042L899.44 607.565L897.198 580.581L895.517 564.591L890.473 535.609L888.232 524.615L883.188 503.129L878.144 483.141L875.903 476.145L868.618 454.158L860.772 434.171L855.168 420.679L849.004 407.187L838.356 385.2L824.346 359.716L815.38 344.725L795.206 314.743L787.92 304.749L776.712 289.759L768.306 279.765L754.296 262.775L730.76 237.291L704.421 211.806L687.049 196.815L640.536 159.338L609.714 138.851L591.781 127.358L579.452 119.862L557.036 106.37L531.258 93.3783L512.765 84.3838L497.073 76.8883L471.856 66.3947L455.604 59.8987L442.715 54.9017L420.859 46.9066L401.245 40.9103L371.544 31.9157C371.544 31.9157 321.386 19.0734 288.605 13.427C269.67 10.1655 258.995 8.50299 239.851 6.43127C225.669 4.89659 217.648 4.12211 203.425 2.93254C189.635 1.77926 181.95 1.08689 168.12 0.435248C147.357 -0.543019 115.442 0.433465 115.442 0.433465C115.442 0.433465 87.4222 0.934618 70.6102 2.4337C53.7983 3.93279 29.1407 6.43127 29.1407 6.43127Z" fill="url(#paint1_radial)"/>
<defs>
<radialGradient id="paint0_radial" cx="0" cy="0" r="1" gradientUnits="userSpaceOnUse" gradientTransform="translate(873.112 150.235) rotate(-22.5354) scale(155.521 164.298)">
<stop stop-color="#FBB921"/>
<stop offset="0.2807" stop-color="#EBA515"/>
<stop offset="0.6582" stop-color="#DA8E06"/>
</radialGradient>
<radialGradient id="paint1_radial" cx="0" cy="0" r="1" gradientUnits="userSpaceOnUse" gradientTransform="translate(450 401) rotate(-39.0094) scale(460.721 523.7)">
<stop stop-color="#FBB921"/>
<stop offset="0.291667" stop-color="#EBA515"/>
<stop offset="1" stop-color="#DA8E06"/>
</radialGradient>
</defs>
</svg>
