<svg width="34" height="34" viewBox="0 0 34 34" fill="none" xmlns="http://www.w3.org/2000/svg">
<path d="M33 17C33 25.8366 25.8366 33 17 33C8.16344 33 1 25.8366 1 17C1 8.16344 8.16344 1 17 1C25.8366 1 33 8.16344 33 17Z" stroke="white" stroke-linecap="round" stroke-linejoin="round"/>
<path d="M25 15.3636C25 21.0909 17 26 17 26C17 26 9 21.0909 9 15.3636C9 13.4107 9.84285 11.5377 11.3431 10.1568C12.8434 8.77581 14.8783 8 17 8C19.1217 8 21.1566 8.77581 22.6569 10.1568C24.1571 11.5377 25 13.4107 25 15.3636Z" stroke="white" stroke-linecap="round" stroke-linejoin="round"/>
<path d="M17.0002 17.8182C18.4729 17.8182 19.6668 16.7192 19.6668 15.3636C19.6668 14.008 18.4729 12.9091 17.0002 12.9091C15.5274 12.9091 14.3335 14.008 14.3335 15.3636C14.3335 16.7192 15.5274 17.8182 17.0002 17.8182Z" stroke="white" stroke-linecap="round" stroke-linejoin="round"/>
</svg>
