<svg width="26" height="26" viewBox="0 0 26 26" fill="none" xmlns="http://www.w3.org/2000/svg">
<path fill-rule="evenodd" clip-rule="evenodd" d="M12.1398 2.21256C12.6563 1.85102 13.3437 1.85102 13.8602 2.21256L23.8602 9.21256C24.2612 9.49325 24.5 9.95194 24.5 10.4414V22.6001C24.5 23.086 24.286 23.5641 23.8845 23.9255C23.4812 24.2884 22.924 24.5001 22.3333 24.5001H17.5V17.0001V16.5001H17H9H8.5V17.0001V24.5001H3.66667C3.07602 24.5001 2.5188 24.2884 2.11553 23.9255C1.714 23.5641 1.5 23.086 1.5 22.6001V10.4414C1.5 9.95193 1.73882 9.49325 2.13981 9.21256L12.1398 2.21256ZM9.5 24.5001H13H16.5V17.5001H9.5V24.5001ZM14.4337 1.39333C13.5729 0.790766 12.4271 0.790767 11.5663 1.39333L1.56634 8.39333C0.898028 8.86115 0.5 9.62562 0.5 10.4414V22.6001C0.5 23.3872 0.8479 24.13 1.44657 24.6688C2.04349 25.206 2.84282 25.5001 3.66667 25.5001H13H22.3333C23.1572 25.5001 23.9565 25.206 24.5534 24.6688C25.1521 24.13 25.5 23.3872 25.5 22.6001V10.4414C25.5 9.62562 25.102 8.86115 24.4337 8.39333L14.4337 1.39333Z" fill="white"/>
</svg>
