<svg width="32" height="32" viewBox="0 0 32 32" fill="none" xmlns="http://www.w3.org/2000/svg">
<circle cx="16" cy="16" r="15.5" stroke="white"/>
<path fill-rule="evenodd" clip-rule="evenodd" d="M7.85308 12.7029C7.31842 13.0772 7 13.6888 7 14.3414V23.2001C7 23.6775 7.21071 24.1353 7.58579 24.4729C7.96086 24.8105 8.46957 25.0001 9 25.0001H23C23.5304 25.0001 24.0391 24.8105 24.4142 24.4729C24.7893 24.1353 25 23.6775 25 23.2001V14.3414C25 13.6888 24.6816 13.0772 24.1469 12.7029L17.1469 7.80294C16.4583 7.32089 15.5417 7.32089 14.8531 7.80294L7.85308 12.7029ZM19 17.0001H13V24.0001H19V17.0001Z" fill="white"/>
</svg>
