<svg width="24" height="24" viewBox="0 0 24 24" fill="none" xmlns="http://www.w3.org/2000/svg">
<path d="M8 19.1667H8.5V18.6667V9.33333V8.83333H8H5.33333H4.83333V9.33333V18.6667V19.1667H5.33333H8ZM13.3333 19.1667H13.8333V18.6667V5.33333V4.83333H13.3333H10.6667H10.1667V5.33333V18.6667V19.1667H10.6667H13.3333ZM18.6667 19.1667H19.1667V18.6667V13.3333V12.8333H18.6667H16H15.5V13.3333V18.6667V19.1667H16H18.6667ZM2.66667 0.5H21.3333C22.5239 0.5 23.5 1.47614 23.5 2.66667V21.3333C23.5 22.5239 22.5239 23.5 21.3333 23.5H2.66667C1.47614 23.5 0.5 22.5239 0.5 21.3333V2.66667C0.5 1.47614 1.47614 0.5 2.66667 0.5Z" stroke="white"/>
</svg>
