<svg width="20" height="20" viewBox="0 0 20 20" fill="none" xmlns="http://www.w3.org/2000/svg">
<path d="M6.66667 15.8056H6.91667V15.5556V7.77778V7.52778H6.66667H4.44444H4.19444V7.77778V15.5556V15.8056H4.44444H6.66667ZM11.1111 15.8056H11.3611V15.5556V4.44444V4.19444H11.1111H8.88889H8.63889V4.44444V15.5556V15.8056H8.88889H11.1111ZM15.5556 15.8056H15.8056V15.5556V11.1111V10.8611H15.5556H13.3333H13.0833V11.1111V15.5556V15.8056H13.3333H15.5556ZM2.22222 0.25H17.7778C18.8619 0.25 19.75 1.13807 19.75 2.22222V17.7778C19.75 18.8619 18.8619 19.75 17.7778 19.75H2.22222C1.13807 19.75 0.25 18.8619 0.25 17.7778V2.22222C0.25 1.13807 1.13807 0.25 2.22222 0.25Z" stroke="white" stroke-opacity="0.55" stroke-width="0.5"/>
</svg>
