<svg width="351" height="98" viewBox="0 0 351 98" fill="none" xmlns="http://www.w3.org/2000/svg">
<path d="M20.6594 40.5172L0.85305 12.6026C0.286761 11.8036 -0.00110726 10.8404 0.0338523 9.86153C0.0688119 8.88264 0.424657 7.94246 1.04649 7.18602C1.66833 6.42957 2.52161 5.89889 3.47471 5.67584C4.42781 5.45278 5.42777 5.54975 6.32034 5.95178V5.95178C16.9757 10.7711 37.2241 43.0394 37.2241 43.0394C38.7751 46.1901 41.5592 46.1436 44.9791 43.4429C46.8558 41.5338 68.1511 16.7312 73.6727 16.9329C77.7906 16.1181 81.071 20.3476 78.38 23.5759L53.6725 53.2833C52.9292 54.1777 52.5643 55.3272 52.6556 56.4869C52.7468 57.6466 53.287 58.7247 54.1611 59.4917L89.2215 90.1691C89.9139 90.7765 90.4014 91.5834 90.6171 92.4792C90.8328 93.375 90.7661 94.3156 90.4262 95.1719C90.0863 96.0282 89.4899 96.7582 88.7187 97.2617C87.9476 97.7652 87.0396 98.0175 86.1195 97.9839V97.9839C75.3478 97.5261 48.6162 71.0238 48.6162 71.0238C48.0384 70.2785 47.2395 69.7355 46.3341 69.4729C45.4286 69.2103 44.4634 69.2417 43.5768 69.5624C42.6903 69.8831 41.9282 70.4767 41.3999 71.258C40.8715 72.0392 40.6042 72.968 40.6363 73.9108L41.1559 91.3021C41.1746 91.9158 41.0666 92.5268 40.8386 93.0968C40.6106 93.6668 40.2674 94.1836 39.8307 94.6148C39.3939 95.046 38.873 95.3824 38.3004 95.6029C37.7278 95.8234 37.1158 95.9233 36.5029 95.8963L32.6254 95.7334C32.0156 95.7082 31.4174 95.558 30.868 95.2921C30.3185 95.0263 29.8295 94.6503 29.4311 94.1876C29.0327 93.7249 28.7334 93.1853 28.5519 92.6022C28.3704 92.0191 28.3104 91.4049 28.3756 90.7977L29.9266 76.0915C31.2782 63.4991 27.9822 50.8467 20.6594 40.5172V40.5172Z" fill="url(#paint0_linear)"/>
<path d="M42.1408 23.2816C48.5653 23.2816 53.7734 18.0698 53.7734 11.6408C53.7734 5.21176 48.5653 0 42.1408 0C35.7164 0 30.5083 5.21176 30.5083 11.6408C30.5083 18.0698 35.7164 23.2816 42.1408 23.2816Z" fill="url(#paint1_linear)"/>
<path d="M118.722 20.0449L112.231 26.587L119.326 36.6214H114.774L109.749 29.1713L107.632 31.2667V36.6214H104.049V20.0449H107.632V26.9363L114.146 20.0449H118.722Z" fill="white"/>
<path d="M128.284 19.6501C129.377 19.6083 130.467 19.8015 131.479 20.2164C132.492 20.6314 133.404 21.2586 134.154 22.0559C135.697 23.782 136.504 26.0436 136.403 28.3574C136.506 30.6621 135.698 32.9147 134.154 34.6279C132.565 36.1574 130.446 37.0117 128.241 37.0117C126.036 37.0117 123.917 36.1574 122.328 34.6279C120.779 32.9173 119.968 30.6636 120.071 28.3574C119.961 26.0353 120.769 23.7633 122.32 22.0326C123.088 21.2351 124.018 20.6103 125.046 20.1996C126.074 19.7888 127.178 19.6015 128.284 19.6501V19.6501ZM128.237 22.6301C127.609 22.6112 126.985 22.7421 126.418 23.012C125.85 23.2819 125.354 23.683 124.972 24.1822C124.104 25.3746 123.671 26.8295 123.747 28.3031C123.659 29.7974 124.086 31.2768 124.957 32.4938C125.352 32.9942 125.859 33.3951 126.436 33.6646C127.014 33.9341 127.647 34.0647 128.284 34.0459C128.912 34.0707 129.536 33.9423 130.104 33.672C130.671 33.4016 131.164 32.9973 131.541 32.4938C132.392 31.2685 132.81 29.7933 132.727 28.3031C132.806 26.8291 132.379 25.3724 131.517 24.1745C131.132 23.675 130.634 23.2743 130.064 23.0058C129.493 22.7372 128.867 22.6085 128.237 22.6301V22.6301Z" fill="white"/>
<path d="M138.916 20.0449H146.058C147.648 19.9596 149.218 20.4347 150.494 21.3875C151.056 21.8811 151.495 22.498 151.779 23.19C152.063 23.882 152.183 24.6303 152.13 25.3764C152.181 26.1159 152.061 26.8571 151.778 27.5423C151.496 28.2275 151.059 28.8381 150.502 29.3265C149.285 30.2609 147.776 30.7338 146.244 30.6613H142.522V36.6214H138.916V20.0449ZM142.522 23.025V27.7977H145.794C147.687 27.7977 148.633 27.0061 148.633 25.423C148.633 23.8398 147.687 23.0405 145.794 23.025H142.522Z" fill="white"/>
<path d="M168.439 20.0449V36.6214H164.81V23.1414H158.04V36.6214H154.41V20.0449H168.439Z" fill="white"/>
<path d="M179.141 19.6501C180.234 19.6083 181.324 19.8015 182.337 20.2164C183.349 20.6314 184.261 21.2586 185.012 22.0559C186.555 23.782 187.362 26.0436 187.261 28.3574C187.364 30.6621 186.556 32.9147 185.012 34.6279C183.422 36.1574 181.303 37.0117 179.098 37.0117C176.894 37.0117 174.774 36.1574 173.185 34.6279C171.636 32.9173 170.825 30.6636 170.928 28.3574C170.819 26.0353 171.627 23.7633 173.177 22.0326C173.946 21.2351 174.875 20.6103 175.903 20.1996C176.931 19.7888 178.035 19.6015 179.141 19.6501V19.6501ZM179.095 22.6301C178.466 22.6112 177.843 22.7421 177.275 23.012C176.707 23.2819 176.212 23.683 175.83 24.1822C174.961 25.3746 174.528 26.8295 174.604 28.3031C174.516 29.7974 174.943 31.2768 175.814 32.4938C176.209 32.9942 176.716 33.3951 177.294 33.6646C177.871 33.9341 178.504 34.0647 179.141 34.0459C179.769 34.0707 180.394 33.9423 180.961 33.672C181.528 33.4016 182.022 32.9973 182.398 32.4938C183.25 31.2685 183.667 29.7933 183.585 28.3031C183.664 26.8291 183.237 25.3724 182.375 24.1745C181.99 23.675 181.492 23.2743 180.921 23.0058C180.351 22.7372 179.725 22.6085 179.095 22.6301V22.6301Z" fill="white"/>
<path d="M189.773 20.0449H196.916C198.506 19.9596 200.075 20.4347 201.351 21.3875C201.913 21.8811 202.353 22.498 202.637 23.19C202.921 23.882 203.041 24.6303 202.988 25.3764C203.039 26.1159 202.918 26.8571 202.636 27.5423C202.353 28.2275 201.916 28.8381 201.359 29.3265C200.142 30.2609 198.634 30.7338 197.102 30.6613H193.379V36.6214H189.773V20.0449ZM193.379 23.025V27.7977H196.613C198.505 27.7977 199.451 27.0061 199.451 25.423C199.451 23.8398 198.513 23.0405 196.636 23.025H193.379Z" fill="white"/>
<path d="M213.503 20.0215L219.808 36.6213H215.993L214.69 32.9195H208.486L207.137 36.6213H203.414L209.719 20.0215H213.503ZM213.806 30.2654L211.619 24.057L209.386 30.2654H213.806Z" fill="white"/>
<path d="M233.511 20.0449V23.1491H228.533V36.6214H224.896V23.1413H219.917V20.0371L233.511 20.0449Z" fill="white"/>
<path d="M249.448 20.0449V36.6214H245.834V25.1203H245.764L239.56 36.6214H235.466V20.0449H239.095V31.5227H239.165L245.369 20.0449H249.448Z" fill="white"/>
<path d="M252.635 20.0452H260.476C261.819 19.9867 263.146 20.3474 264.276 21.0774C264.764 21.428 265.155 21.8965 265.414 22.4391C265.673 22.9818 265.791 23.5812 265.757 24.1816C265.771 24.9153 265.559 25.6357 265.152 26.2459C264.742 26.8471 264.169 27.3184 263.5 27.604C264.41 27.7954 265.22 28.3124 265.776 29.0582C266.333 29.8039 266.599 30.7271 266.525 31.655C266.565 32.3403 266.446 33.0258 266.177 33.6573C265.908 34.2889 265.496 34.8493 264.974 35.2946C263.827 36.1885 262.401 36.6476 260.949 36.5907H252.635V20.0452ZM256.172 22.8623V26.7425H259.475C261.305 26.7425 262.22 26.0984 262.22 24.8102C262.253 24.5043 262.198 24.1955 262.06 23.9203C261.923 23.6452 261.709 23.4153 261.445 23.2581C260.822 22.9605 260.134 22.8218 259.444 22.8545L256.172 22.8623ZM256.172 29.2182V33.7348H259.793C260.57 33.7727 261.344 33.6125 262.042 33.2691C262.337 33.0799 262.574 32.8117 262.725 32.4948C262.876 32.178 262.935 31.8252 262.895 31.4765C262.941 31.1233 262.883 30.7644 262.729 30.4434C262.575 30.1224 262.331 29.8531 262.027 29.6683C261.279 29.3334 260.464 29.1792 259.646 29.2182H256.172Z" fill="white"/>
<path d="M283.058 20.0449V36.6214H279.429V29.4895H272.667V36.6369H269.037V20.0449H272.667V26.2533H279.437V20.0449H283.058Z" fill="white"/>
<path d="M298.793 31.2899C298.847 32.038 298.726 32.7882 298.441 33.4817C298.155 34.1751 297.713 34.793 297.149 35.2866C295.875 36.2383 294.308 36.7133 292.721 36.6292H286.277V20.0449H289.883V26.005H292.907C294.44 25.9348 295.949 26.4104 297.165 27.3476C297.721 27.8352 298.157 28.4445 298.439 29.1283C298.722 29.812 298.843 30.5517 298.793 31.2899V31.2899ZM295.257 31.2434C295.257 29.6602 294.311 28.8686 292.419 28.8686H289.883V33.6414H292.442C294.319 33.6414 295.257 32.842 295.257 31.2434ZM300.561 20.0449H304.191V36.6214H300.561V20.0449Z" fill="white"/>
<path d="M321.407 20.0462V36.6227H317.778V25.1216H317.708L311.504 36.6227H307.409V20.0462H310.976V31.5241H311.046L317.25 20.0462H321.407ZM316.893 15.5762H318.196C318.196 17.8112 316.932 18.9287 314.404 18.9287C311.876 18.9287 310.612 17.8112 310.612 15.5762H311.915C312.116 16.6109 312.946 17.1283 314.404 17.1283C315.862 17.1283 316.692 16.6109 316.893 15.5762Z" fill="white"/>
<path d="M104.763 64.4908V61.3866C105.313 61.6267 105.907 61.7534 106.507 61.7591C106.955 61.7874 107.396 61.643 107.741 61.3556C107.883 61.228 107.996 61.0711 108.073 60.8957C108.149 60.7202 108.186 60.5303 108.183 60.3389C108.182 60.198 108.167 60.0574 108.136 59.9199C108.099 59.7619 108.053 59.6064 107.996 59.4542C107.934 59.2835 107.88 59.1516 107.834 59.0429L107.616 58.5928L107.423 58.197L102.56 47.9531H106.585L110.331 56.6837L113.999 47.9842H117.876L112.293 60.1837C111.755 61.5445 110.948 62.7825 109.92 63.8234C109.047 64.5354 107.943 64.9026 106.818 64.8556C106.116 64.8682 105.418 64.7443 104.763 64.4908V64.4908Z" fill="white"/>
<path d="M133.542 47.9824V64.5589H129.912V57.427H123.142V64.5744H119.513V47.9824H123.142V54.1908H129.912V47.9824H133.542Z" fill="white"/>
<path d="M150.781 47.9824V64.5589H147.152V53.0578H147.082L140.878 64.5589H136.783V47.9824H140.366V59.4602H140.436L146.64 47.9824H150.781Z" fill="white"/>
<path d="M153.968 47.9827H161.808C163.151 47.9242 164.479 48.2849 165.608 49.0149C166.365 49.6221 166.873 50.4865 167.034 51.4438C167.196 52.401 167 53.3843 166.485 54.2066C166.075 54.8082 165.502 55.2796 164.833 55.5647C165.743 55.7562 166.553 56.2732 167.109 57.0189C167.666 57.7646 167.932 58.6879 167.857 59.6157C167.899 60.3024 167.78 60.9893 167.511 61.6223C167.242 62.2553 166.83 62.8171 166.306 63.2632C165.16 64.157 163.734 64.6161 162.282 64.5592H153.968V47.9827ZM157.504 50.7998V54.68H160.808C162.638 54.68 163.553 54.0359 163.553 52.7477C163.586 52.4418 163.531 52.133 163.393 51.8578C163.256 51.5827 163.042 51.3528 162.778 51.1956C162.155 50.8953 161.468 50.754 160.777 50.7843L157.504 50.7998ZM157.504 57.1557V61.6723H161.157C161.934 61.7106 162.708 61.5503 163.406 61.2067C163.696 61.0142 163.927 60.7443 164.072 60.4276C164.218 60.1108 164.272 59.7597 164.228 59.414C164.274 59.0608 164.216 58.7019 164.062 58.3809C163.908 58.0599 163.664 57.7907 163.359 57.6058C162.612 57.2709 161.797 57.1167 160.979 57.1557H157.504Z" fill="white"/>
<path d="M182.794 47.9824V50.9625H173.976V54.5711H182.072V57.427H173.976V61.5013H182.957V64.5512H170.37V47.9824H182.794Z" fill="white"/>
<path d="M185.469 47.9824H192.611C194.201 47.8971 195.771 48.3722 197.047 49.325C197.609 49.8186 198.049 50.4355 198.333 51.1275C198.617 51.8195 198.737 52.5678 198.684 53.3139C198.733 54.0521 198.612 54.7918 198.33 55.4756C198.047 56.1593 197.611 56.7687 197.055 57.2563C195.839 58.1934 194.331 58.6691 192.798 58.5988H189.075V64.5589H185.469V47.9824ZM189.075 50.9625V55.7352H192.325C194.217 55.7352 195.163 54.9436 195.163 53.3605C195.163 51.7773 194.217 50.978 192.325 50.9625H189.075Z" fill="white"/>
<path d="M215.76 58.1583C215.67 60.0252 214.89 61.7921 213.573 63.1173C212.865 63.7538 212.038 64.2439 211.139 64.5595C210.241 64.8752 209.289 65.0101 208.339 64.9565C207.256 65.0004 206.176 64.8096 205.173 64.397C204.171 63.9845 203.269 63.36 202.53 62.5663C201.011 60.8232 200.224 58.5595 200.335 56.2492C200.256 53.971 201.053 51.7491 202.561 50.0408C203.308 49.2221 204.224 48.5769 205.246 48.1505C206.269 47.7242 207.372 47.527 208.478 47.5729C210.278 47.5149 212.038 48.1102 213.434 49.2492C214.081 49.7725 214.611 50.4252 214.992 51.1655C215.373 51.9058 215.595 52.7175 215.644 53.5485H212.084C211.944 52.7081 211.499 51.9486 210.836 51.4144C210.139 50.8855 209.282 50.6116 208.408 50.6383C207.483 50.6091 206.578 50.9119 205.857 51.492C205.19 52.0273 204.687 52.7401 204.407 53.5485C204.12 54.4197 203.979 55.3321 203.988 56.2492C203.913 57.7048 204.331 59.1431 205.175 60.3312C205.542 60.8277 206.023 61.2281 206.578 61.4984C207.133 61.7686 207.745 61.9007 208.362 61.8833C210.58 61.8833 211.844 60.6417 212.154 58.1583H215.76Z" fill="white"/>
<path d="M232.232 47.9824V64.5589H228.602V53.0578H228.533L222.329 64.5589H218.234V47.9824H221.863V59.4602H221.933L228.137 47.9824H232.232Z" fill="white"/>
<path d="M247.75 47.9824V51.0866H242.771V64.5589H239.118V51.0788H234.14V47.9746L247.75 47.9824Z" fill="white"/>
<path d="M262.12 47.9824V50.9625H253.263V54.5711H261.344V57.427H253.263V61.5013H262.244V64.5512H249.657V47.9824H262.12Z" fill="white"/>
<path d="M277.04 47.9824V51.0866H272.062V64.5589H268.409V51.0788H263.43V47.9746L277.04 47.9824Z" fill="white"/>
<path d="M117.651 75.9219V92.4984H113.999V79.0183H109.578L109.346 86.0494C109.191 90.566 107.655 92.8243 104.739 92.8243C104.046 92.8405 103.355 92.7462 102.692 92.5449V89.6114C103.091 89.8034 103.529 89.8991 103.972 89.8908C104.243 89.8969 104.51 89.8276 104.744 89.6906C104.979 89.5536 105.17 89.3542 105.298 89.1148C105.699 88.1312 105.882 87.0719 105.833 86.0106L106.112 75.9219H117.651Z" fill="white"/>
<path d="M133.216 75.9219V78.9019H124.398V82.5106H132.495V85.3664H124.398V89.4407H133.386V92.4906H120.792V75.9219H133.216Z" fill="white"/>
<path d="M149.897 75.9219V92.4984H146.267V85.3664H139.497V92.5139H135.868V75.9219H139.497V82.1303H146.267V75.9219H149.897Z" fill="white"/>
<path d="M167.136 75.9219V92.4984H163.507V79.0183H156.737V92.4984H153.107V75.9219H167.136Z" fill="white"/>
<path d="M177.838 75.5264C178.932 75.4852 180.022 75.6793 181.035 76.0956C182.048 76.512 182.96 77.1409 183.709 77.94C185.16 79.7128 185.954 81.934 185.954 84.226C185.954 86.518 185.16 88.7392 183.709 90.512C182.119 92.0415 180 92.8957 177.795 92.8957C175.591 92.8957 173.471 92.0415 171.882 90.512C170.333 88.8014 169.522 86.5477 169.626 84.2415C169.518 81.9221 170.325 79.6532 171.874 77.9244C172.642 77.1242 173.57 76.4965 174.598 76.083C175.627 75.6696 176.731 75.4798 177.838 75.5264V75.5264ZM177.792 78.5065C177.163 78.4876 176.54 78.6185 175.972 78.8883C175.404 79.1582 174.909 79.5593 174.527 80.0586C173.658 81.2509 173.226 82.7058 173.301 84.1794C173.213 85.6738 173.64 87.1531 174.511 88.3701C174.906 88.8705 175.413 89.2715 175.991 89.541C176.568 89.8105 177.201 89.941 177.838 89.9222C178.466 89.947 179.091 89.8187 179.658 89.5483C180.225 89.2779 180.719 88.8736 181.095 88.3701C181.947 87.1448 182.364 85.6697 182.282 84.1794C182.363 82.7028 181.936 81.2431 181.072 80.0431C180.686 79.545 180.187 79.1458 179.617 78.8787C179.047 78.6115 178.421 78.4839 177.792 78.5065V78.5065Z" fill="white"/>
<path d="M202.104 75.9219V92.4984H198.474V79.0183H194.031L193.798 86.0494C193.643 90.566 192.107 92.8243 189.191 92.8243C188.499 92.8405 187.807 92.7462 187.144 92.5449V89.6114C187.543 89.8034 187.981 89.8991 188.424 89.8908C188.695 89.8969 188.962 89.8276 189.197 89.6906C189.431 89.5536 189.622 89.3542 189.75 89.1148C190.152 88.1312 190.334 87.0719 190.285 86.0106L190.564 75.9219H202.104Z" fill="white"/>
<path d="M219.273 75.9219V92.4984H215.644V80.9973H215.59L209.386 92.4984H205.291V75.9219H208.92V87.3997H208.99L215.194 75.9219H219.273Z" fill="white"/>
<path d="M234.023 75.9219V79.0261H226.113V92.5061H222.484V75.9219H234.023Z" fill="white"/>
<path d="M235.861 75.9219H243.004C244.594 75.8366 246.163 76.3117 247.44 77.2645C248.487 78.3199 249.074 79.7468 249.074 81.234C249.074 82.7212 248.487 84.1481 247.44 85.2035C246.224 86.1406 244.715 86.6163 243.182 86.546H239.46V92.5061H235.854L235.861 75.9219ZM239.467 78.9019V83.6747H242.732C244.624 83.6747 245.571 82.8831 245.571 81.2999C245.571 79.7168 244.624 78.9174 242.732 78.9019H239.467Z" fill="white"/>
<path d="M259.592 75.8984L265.896 92.4982H262.12L260.817 88.7964H254.613L253.263 92.4982H249.541L255.846 75.8984H259.592ZM259.894 86.1423L257.707 79.9339L255.497 86.1423H259.894Z" fill="white"/>
<path d="M284.532 84.0239C284.578 84.9178 284.426 85.8109 284.088 86.6398C283.751 87.4686 283.235 88.2129 282.577 88.8199C281.11 90.0451 279.254 90.7056 277.343 90.6824V92.4984H273.752V90.6824C271.841 90.7056 269.985 90.0451 268.518 88.8199C267.86 88.2129 267.344 87.4686 267.006 86.6398C266.669 85.8109 266.517 84.9178 266.563 84.0239C266.52 83.1523 266.672 82.2821 267.007 81.4766C267.342 80.671 267.853 79.9505 268.502 79.3675C269.986 78.1657 271.844 77.523 273.752 77.5516V75.9219H277.335V77.5516C279.241 77.5249 281.096 78.1674 282.577 79.3675C283.229 79.9491 283.743 80.6689 284.081 81.4745C284.419 82.2801 284.573 83.1511 284.532 84.0239V84.0239ZM273.752 87.9585V80.1979C273.248 80.1851 272.746 80.2733 272.276 80.4572C271.805 80.6411 271.377 80.9171 271.015 81.2689C270.353 82.0345 270.016 83.0287 270.076 84.0394C270.036 85.0563 270.385 86.0502 271.053 86.8177C271.401 87.1832 271.82 87.4731 272.284 87.6694C272.748 87.8657 273.248 87.9641 273.752 87.9585ZM281.034 84.0239C281.091 83.5159 281.035 83.0016 280.872 82.5173C280.709 82.033 280.441 81.5904 280.089 81.2205C279.736 80.8507 279.307 80.5626 278.831 80.3766C278.355 80.1905 277.845 80.111 277.335 80.1436V87.9041C277.842 87.9076 278.345 87.8067 278.812 87.6078C279.279 87.4089 279.7 87.1162 280.049 86.7478C280.712 85.9978 281.066 85.0247 281.042 84.0239H281.034Z" fill="white"/>
<path d="M287.021 92.4984V75.9219H292.209L296.087 87.3066L299.856 75.9219H304.927V92.4984H301.507V80.7101L297.436 92.4906H294.621L290.503 80.8498V92.4906L287.021 92.4984Z" fill="white"/>
<path d="M316.358 75.8984L322.663 92.4982H318.848L317.545 88.7964H311.341L309.991 92.4982H306.323L312.628 75.8984H316.358ZM316.661 86.1423L314.474 79.9339L312.264 86.1423H316.661Z" fill="white"/>
<path d="M324.013 92.4984V75.9219H327.642V89.4019H333.156V75.9219H336.785V89.4019H342.299V75.9219H345.928V92.4984H324.013Z" fill="white"/>
<defs>
<linearGradient id="paint0_linear" x1="85.7926" y1="-1.07523" x2="18.6386" y2="86.297" gradientUnits="userSpaceOnUse">
<stop stop-color="#3C78C0"/>
<stop offset="1" stop-color="#7355A6"/>
</linearGradient>
<linearGradient id="paint1_linear" x1="53.7734" y1="0" x2="30.4918" y2="23.2651" gradientUnits="userSpaceOnUse">
<stop stop-color="#BC2225"/>
<stop offset="1" stop-color="#3C78C0"/>
</linearGradient>
</defs>
</svg>
