<svg width="73" height="78" viewBox="0 0 73 78" fill="none" xmlns="http://www.w3.org/2000/svg">
<path d="M16.5392 32.248L0.682884 10.0302C0.22953 9.39435 -0.000928521 8.62772 0.0270591 7.84861C0.0550467 7.0695 0.339925 6.32119 0.83775 5.71912C1.33557 5.11705 2.01868 4.69468 2.78171 4.51714C3.54473 4.33961 4.34527 4.41679 5.05983 4.73677C13.5902 8.57253 29.8005 34.2555 29.8005 34.2555C31.0421 36.7632 33.271 36.7262 36.0089 34.5767C37.5113 33.0572 54.5597 13.3163 58.9801 13.4769C62.2768 12.8283 64.903 16.1946 62.7486 18.7642L42.9685 42.4088C42.3735 43.1206 42.0814 44.0356 42.1544 44.9586C42.2275 45.8816 42.6599 46.7397 43.3597 47.3502L71.428 71.7669C71.9823 72.2503 72.3726 72.8926 72.5453 73.6055C72.718 74.3185 72.6646 75.0671 72.3925 75.7487C72.1204 76.4303 71.6428 77.0113 71.0255 77.4121C70.4082 77.8128 69.6813 78.0136 68.9446 77.9869C60.3211 77.6224 38.9206 56.5288 38.9206 56.5288C38.4581 55.9356 37.8185 55.5034 37.0936 55.2944C36.3688 55.0854 35.596 55.1104 34.8863 55.3656C34.1765 55.6209 33.5664 56.0934 33.1434 56.7152C32.7205 57.337 32.5065 58.0762 32.5322 58.8266L32.9481 72.6687C32.9631 73.1571 32.8766 73.6434 32.6941 74.0971C32.5115 74.5508 32.2369 74.9621 31.8872 75.3053C31.5376 75.6485 31.1205 75.9163 30.6621 76.0918C30.2037 76.2673 29.7138 76.3468 29.2231 76.3253L26.1188 76.1956C25.6307 76.1756 25.1518 76.056 24.7119 75.8444C24.272 75.6328 23.8805 75.3336 23.5616 74.9653C23.2426 74.5971 23.0031 74.1676 22.8577 73.7035C22.7124 73.2394 22.6644 72.7505 22.7166 72.2672L23.9583 60.5622C25.0403 50.5397 22.4017 40.4694 16.5392 32.248Z" fill="url(#paint0_linear)"/>
<path d="M33.7366 18.5303C38.8798 18.5303 43.0493 14.3821 43.0493 9.26513C43.0493 4.14814 38.8798 0 33.7366 0C28.5934 0 24.424 4.14814 24.424 9.26513C24.424 14.3821 28.5934 18.5303 33.7366 18.5303Z" fill="url(#paint1_linear)"/>
<defs>
<linearGradient id="paint0_linear" x1="68.6829" y1="-0.856154" x2="15.3148" y2="68.9856" gradientUnits="userSpaceOnUse">
<stop stop-color="#3C78C0"/>
<stop offset="1" stop-color="#7355A6"/>
</linearGradient>
<linearGradient id="paint1_linear" x1="43.0493" y1="0" x2="24.5192" y2="18.6251" gradientUnits="userSpaceOnUse">
<stop stop-color="#BC2225"/>
<stop offset="1" stop-color="#3C78C0"/>
</linearGradient>
</defs>
</svg>
