<svg width="26" height="20" viewBox="0 0 26 20" fill="none" xmlns="http://www.w3.org/2000/svg">
<path d="M23.5294 17.8971H23.7794V17.6471V2.35294V2.10294H23.5294H12.9412H12.6912V2.35294V17.6471V17.8971H12.9412H23.5294ZM14.3676 9.66177H22.1029V10.9265H14.3676V9.66177ZM14.3676 6.72059H22.1029V7.98529H14.3676V6.72059ZM14.3676 12.6029H22.1029V13.8676H14.3676V12.6029ZM2.35294 0.25H23.5294C24.6855 0.25 25.6324 1.19689 25.6324 2.35294V17.6471C25.6324 18.8031 24.6855 19.75 23.5294 19.75H2.35294C1.19689 19.75 0.25 18.8031 0.25 17.6471V2.35294C0.25 1.19689 1.19689 0.25 2.35294 0.25Z" stroke="white" stroke-opacity="0.55" stroke-width="0.5"/>
</svg>
