<svg width="24" height="24" viewBox="0 0 24 24" fill="none" xmlns="http://www.w3.org/2000/svg">
<path fill-rule="evenodd" clip-rule="evenodd" d="M21.8182 1H2.18182C1.95693 1 1.68223 1.11728 1.43219 1.44086C1.18199 1.76465 1 2.25152 1 2.82353V21.1765C1 21.7485 1.18199 22.2354 1.43219 22.5591C1.68223 22.8827 1.95693 23 2.18182 23H21.8182C22.0431 23 22.3178 22.8827 22.5678 22.5591C22.818 22.2354 23 21.7485 23 21.1765V2.82353C23 2.25152 22.818 1.76465 22.5678 1.44086C22.3178 1.11728 22.0431 1 21.8182 1ZM21.8182 0H2.18182C0.981818 0 0 1.27059 0 2.82353V21.1765C0 22.7294 0.981818 24 2.18182 24H21.8182C23.0182 24 24 22.7294 24 21.1765V2.82353C24 1.27059 23.0182 0 21.8182 0ZM12.5 4C12.2239 4 12 4.22386 12 4.5C12 4.77614 12.2239 5 12.5 5H21.5C21.7761 5 22 4.77614 22 4.5C22 4.22386 21.7761 4 21.5 4H12.5ZM12 9.5C12 9.22386 12.2239 9 12.5 9H21.5C21.7761 9 22 9.22386 22 9.5C22 9.77614 21.7761 10 21.5 10H12.5C12.2239 10 12 9.77614 12 9.5ZM12.5 14C12.2239 14 12 14.2239 12 14.5C12 14.7761 12.2239 15 12.5 15H21.5C21.7761 15 22 14.7761 22 14.5C22 14.2239 21.7761 14 21.5 14H12.5ZM12 19.5C12 19.2239 12.2239 19 12.5 19H21.5C21.7761 19 22 19.2239 22 19.5C22 19.7761 21.7761 20 21.5 20H12.5C12.2239 20 12 19.7761 12 19.5Z" fill="white"/>
</svg>
