<svg width="66" height="92" viewBox="0 0 66 92" fill="none" xmlns="http://www.w3.org/2000/svg">
<path d="M32.4663 3.47547C29.6048 3.64561 26.8265 4.50369 24.3674 5.97688C21.9084 7.45007 19.8411 9.49486 18.341 11.9377C16.841 14.3805 15.9525 17.1491 15.7511 20.0086C15.5496 22.8681 16.0411 25.734 17.1838 28.363H49.8602C50.6643 26.518 51.1481 24.5495 51.2908 22.542C52.0594 11.8759 43.159 2.8346 32.4663 3.47547Z" stroke="white" stroke-width="2" stroke-miterlimit="10"/>
<path d="M33.2715 9.70898V25.0579" stroke="white" stroke-width="2" stroke-miterlimit="10" stroke-linecap="round"/>
<path d="M27.0408 10.4492C20.3156 15.0949 21.7942 24.3888 21.7942 24.3888" stroke="white" stroke-width="2" stroke-miterlimit="10" stroke-linecap="round"/>
<path d="M40.7017 10.4492C47.4268 15.0949 45.9483 24.3888 45.9483 24.3888" stroke="white" stroke-width="2" stroke-miterlimit="10" stroke-linecap="round"/>
<path d="M33.4155 3.31603V0" stroke="white" stroke-width="2" stroke-miterlimit="10" stroke-linecap="round"/>
<path d="M19.707 9.80119L16.0586 6.76172" stroke="white" stroke-width="2" stroke-miterlimit="10" stroke-linecap="round"/>
<path d="M44.8364 7.44363L47.3972 4.88281" stroke="white" stroke-width="2" stroke-miterlimit="10" stroke-linecap="round"/>
<path d="M15.3593 21.668H11.0859" stroke="white" stroke-width="2" stroke-miterlimit="10" stroke-linecap="round"/>
<path d="M49.7002 13.0462L52.87 11.1289" stroke="white" stroke-width="2" stroke-miterlimit="10" stroke-linecap="round"/>
<path d="M15.0906 33.1059L51.9047 33.1538C52.2776 33.1538 52.6352 33.006 52.8994 32.7428C53.1636 32.4797 53.3127 32.1226 53.3141 31.7497V29.7792C53.3144 29.5939 53.2782 29.4104 53.2075 29.2391C53.1369 29.0678 53.0331 28.9121 52.9022 28.7809C52.7713 28.6498 52.6158 28.5457 52.4446 28.4747C52.2735 28.4037 52.09 28.3672 51.9047 28.3672H15.0959C14.7226 28.3672 14.3645 28.5153 14.1003 28.779C13.836 29.0428 13.6872 29.4006 13.6865 29.7739V31.6939C13.6858 32.0672 13.8333 32.4256 14.0965 32.6903C14.3597 32.955 14.7173 33.1045 15.0906 33.1059V33.1059Z" stroke="white" stroke-width="2" stroke-miterlimit="10"/>
<path d="M51.4552 33.25H15.9707L24.6131 56.675C24.9111 57.4827 25.4487 58.1801 26.154 58.6739C26.8592 59.1677 27.6985 59.4342 28.5594 59.4379L38.4916 59.4751C39.3479 59.4769 40.1845 59.2185 40.8907 58.7342C41.5968 58.2498 42.1392 57.5623 42.4458 56.7627L51.4552 33.25Z" stroke="white" stroke-width="2" stroke-miterlimit="10"/>
<path d="M24.2168 39.1621L26.9771 47.5732" stroke="white" stroke-width="2" stroke-miterlimit="10" stroke-linecap="round"/>
<path d="M28.6123 52.7891L29.4234 55.0733" stroke="white" stroke-width="2" stroke-miterlimit="10" stroke-linecap="round"/>
<path d="M62.0256 59.7129H3.92191C2.45326 59.7129 1.2627 60.9035 1.2627 62.3721V73.0089C1.2627 74.4776 2.45326 75.6682 3.92191 75.6682H62.0256C63.4943 75.6682 64.6848 74.4776 64.6848 73.0089V62.3721C64.6848 60.9035 63.4943 59.7129 62.0256 59.7129Z" stroke="white" stroke-miterlimit="10"/>
<path d="M51.7876 59.8457V75.535" stroke="white" stroke-miterlimit="10"/>
<path d="M11.8543 70.7945C13.5682 70.7945 14.9576 69.4051 14.9576 67.6912C14.9576 65.9773 13.5682 64.5879 11.8543 64.5879C10.1404 64.5879 8.75098 65.9773 8.75098 67.6912C8.75098 69.4051 10.1404 70.7945 11.8543 70.7945Z" stroke="white" stroke-width="2" stroke-miterlimit="10"/>
<path d="M3.91968 91.7988L62.0234 91.7988C63.492 91.7988 64.6826 90.6083 64.6826 89.1396V78.5028C64.6826 77.0341 63.492 75.8436 62.0234 75.8436H3.91968C2.45103 75.8436 1.26047 77.0341 1.26047 78.5028V89.1396C1.26047 90.6083 2.45103 91.7988 3.91968 91.7988Z" stroke="white" stroke-miterlimit="10"/>
<path d="M14.1599 75.9785L14.1572 91.6678" stroke="white" stroke-miterlimit="10"/>
<path d="M54.0906 86.9273C55.8045 86.9273 57.1939 85.5379 57.1939 83.824C57.1939 82.1101 55.8045 80.7207 54.0906 80.7207C52.3767 80.7207 50.9873 82.1101 50.9873 83.824C50.9873 85.5379 52.3767 86.9273 54.0906 86.9273Z" stroke="white" stroke-width="2" stroke-miterlimit="10"/>
</svg>
