<svg width="71" height="93" viewBox="0 0 71 93" fill="none" xmlns="http://www.w3.org/2000/svg">
<path d="M67.5719 0.929688H3.42782C2.21668 0.929688 1.23486 1.95564 1.23486 3.22121V90.108C1.23486 91.3736 2.21668 92.3995 3.42782 92.3995H67.5719C68.783 92.3995 69.7649 91.3736 69.7649 90.108V3.22121C69.7649 1.95564 68.783 0.929688 67.5719 0.929688Z" stroke="white" stroke-miterlimit="10"/>
<path d="M63.7343 7.56445H7.72249C6.7132 7.56445 5.89502 8.41941 5.89502 9.47405C5.89502 10.5287 6.7132 11.3837 7.72249 11.3837H63.7343C64.7436 11.3837 65.5618 10.5287 65.5618 9.47405C65.5618 8.41941 64.7436 7.56445 63.7343 7.56445Z" stroke="white" stroke-miterlimit="10"/>
<path d="M9.45862 22.9082H8.72763C7.51649 22.9082 6.53467 23.9342 6.53467 25.1997V39.1684C6.53467 40.434 7.51649 41.46 8.72763 41.46H9.45862C10.6698 41.46 11.6516 40.434 11.6516 39.1684V25.1997C11.6516 23.9342 10.6698 22.9082 9.45862 22.9082Z" stroke="white" stroke-miterlimit="10"/>
<path d="M17.8649 31.209H17.1339C15.9227 31.209 14.9409 32.2349 14.9409 33.5005V39.1701C14.9409 40.4357 15.9227 41.4616 17.1339 41.4616H17.8649C19.076 41.4616 20.0578 40.4357 20.0578 39.1701V33.5005C20.0578 32.2349 19.076 31.209 17.8649 31.209Z" stroke="white" stroke-miterlimit="10"/>
<path d="M26.4537 17.7812H25.7227C24.5116 17.7812 23.5298 18.8072 23.5298 20.0728V39.1688C23.5298 40.4343 24.5116 41.4603 25.7227 41.4603H26.4537C27.6649 41.4603 28.6467 40.4343 28.6467 39.1688V20.0728C28.6467 18.8072 27.6649 17.7812 26.4537 17.7812Z" stroke="white" stroke-width="2" stroke-miterlimit="10"/>
<path d="M35.4083 25.8379H34.6773C33.4662 25.8379 32.4844 26.8638 32.4844 28.1294V39.1688C32.4844 40.4344 33.4662 41.4603 34.6773 41.4603H35.4083C36.6195 41.4603 37.6013 40.4344 37.6013 39.1688V28.1294C37.6013 26.8638 36.6195 25.8379 35.4083 25.8379Z" stroke="white" stroke-miterlimit="10"/>
<path d="M43.9977 33.1621H43.2667C42.0556 33.1621 41.0737 34.1881 41.0737 35.4536V39.1697C41.0737 40.4353 42.0556 41.4612 43.2667 41.4612H43.9977C45.2088 41.4612 46.1906 40.4353 46.1906 39.1697V35.4536C46.1906 34.1881 45.2088 33.1621 43.9977 33.1621Z" stroke="white" stroke-miterlimit="10"/>
<path d="M52.9523 17.7812H52.2213C51.0101 17.7812 50.0283 18.8072 50.0283 20.0728V39.1688C50.0283 40.4343 51.0101 41.4603 52.2213 41.4603H52.9523C54.1634 41.4603 55.1452 40.4343 55.1452 39.1688V20.0728C55.1452 18.8072 54.1634 17.7812 52.9523 17.7812Z" stroke="white" stroke-width="2" stroke-miterlimit="10"/>
<path d="M61.9069 24.8613H61.1759C59.9647 24.8613 58.9829 25.8873 58.9829 27.1528V39.17C58.9829 40.4355 59.9647 41.4615 61.1759 41.4615H61.9069C63.118 41.4615 64.0998 40.4355 64.0998 39.17V27.1528C64.0998 25.8873 63.118 24.8613 61.9069 24.8613Z" stroke="white" stroke-miterlimit="10"/>
<path d="M16.1837 48.526C16.6199 48.526 17.0382 48.7071 17.3467 49.0294C17.6551 49.3517 17.8284 49.7888 17.8284 50.2446V59.7926C17.8284 60.2485 17.6551 60.6856 17.3467 61.0079C17.0382 61.3302 16.6199 61.5113 16.1837 61.5113H8.72763C8.29142 61.5113 7.87308 61.3302 7.56463 61.0079C7.25619 60.6856 7.08291 60.2485 7.08291 59.7926V50.2446C7.08291 49.7888 7.25619 49.3517 7.56463 49.0294C7.87308 48.7071 8.29142 48.526 8.72763 48.526H16.1837ZM16.1837 47.9531H8.72763C8.14602 47.9531 7.58823 48.1946 7.17697 48.6243C6.76571 49.054 6.53467 49.6369 6.53467 50.2446V59.7926C6.53467 60.4004 6.76571 60.9833 7.17697 61.413C7.58823 61.8427 8.14602 62.0842 8.72763 62.0842H16.1837C16.7653 62.0842 17.3231 61.8427 17.7343 61.413C18.1456 60.9833 18.3767 60.4004 18.3767 59.7926V50.2446C18.3767 49.6369 18.1456 49.054 17.7343 48.6243C17.3231 48.1946 16.7653 47.9531 16.1837 47.9531Z" fill="white"/>
<path d="M22.8576 50.1491H64.4654C64.5381 50.1491 64.6078 50.1189 64.6592 50.0652C64.7106 50.0114 64.7395 49.9386 64.7395 49.8626C64.7395 49.7866 64.7106 49.7138 64.6592 49.6601C64.6078 49.6063 64.5381 49.5762 64.4654 49.5762H22.8576C22.7849 49.5762 22.7152 49.6063 22.6638 49.6601C22.6124 49.7138 22.5835 49.7866 22.5835 49.8626C22.5835 49.9386 22.6124 50.0114 22.6638 50.0652C22.7152 50.1189 22.7849 50.1491 22.8576 50.1491Z" fill="white"/>
<path d="M22.8576 55.401H40.5402C40.6129 55.401 40.6826 55.3708 40.734 55.3171C40.7854 55.2634 40.8143 55.1905 40.8143 55.1146C40.8143 55.0386 40.7854 54.9657 40.734 54.912C40.6826 54.8583 40.6129 54.8281 40.5402 54.8281H22.8576C22.7849 54.8281 22.7152 54.8583 22.6638 54.912C22.6124 54.9657 22.5835 55.0386 22.5835 55.1146C22.5835 55.1905 22.6124 55.2634 22.6638 55.3171C22.7152 55.3708 22.7849 55.401 22.8576 55.401Z" fill="white"/>
<path d="M22.8576 60.7467H52.384C52.4567 60.7467 52.5264 60.7165 52.5778 60.6628C52.6292 60.6091 52.6581 60.5362 52.6581 60.4603C52.6581 60.3843 52.6292 60.3114 52.5778 60.2577C52.5264 60.204 52.4567 60.1738 52.384 60.1738H22.8576C22.7849 60.1738 22.7152 60.204 22.6638 60.2577C22.6124 60.3114 22.5835 60.3843 22.5835 60.4603C22.5835 60.5362 22.6124 60.6091 22.6638 60.6628C22.7152 60.7165 22.7849 60.7467 22.8576 60.7467Z" fill="white"/>
<mask id="path-14-inside-1" fill="white">
<path d="M6.44307 67.2408H64.4651C64.5378 67.2408 64.6076 67.2107 64.659 67.157C64.7104 67.1032 64.7393 67.0304 64.7393 66.9544C64.7393 66.8784 64.7104 66.8056 64.659 66.7519C64.6076 66.6981 64.5378 66.668 64.4651 66.668H6.44307C6.37036 66.668 6.30064 66.6981 6.24923 66.7519C6.19783 66.8056 6.16895 66.8784 6.16895 66.9544C6.16895 67.0304 6.19783 67.1032 6.24923 67.157C6.30064 67.2107 6.37036 67.2408 6.44307 67.2408Z"/>
</mask>
<path d="M6.44307 67.2408H64.4651C64.5378 67.2408 64.6076 67.2107 64.659 67.157C64.7104 67.1032 64.7393 67.0304 64.7393 66.9544C64.7393 66.8784 64.7104 66.8056 64.659 66.7519C64.6076 66.6981 64.5378 66.668 64.4651 66.668H6.44307C6.37036 66.668 6.30064 66.6981 6.24923 66.7519C6.19783 66.8056 6.16895 66.8784 6.16895 66.9544C6.16895 67.0304 6.19783 67.1032 6.24923 67.157C6.30064 67.2107 6.37036 67.2408 6.44307 67.2408Z" fill="white"/>
<path d="M6.44307 68.2408H64.4651V66.2408H6.44307V68.2408ZM64.4651 68.2408C64.8176 68.2408 65.1462 68.0942 65.3814 67.8484L63.9365 66.4655C64.0689 66.3272 64.2581 66.2408 64.4651 66.2408V68.2408ZM65.3814 67.8484C65.6152 67.604 65.7393 67.2817 65.7393 66.9544H63.7393C63.7393 66.779 63.8055 66.6024 63.9365 66.4655L65.3814 67.8484ZM65.7393 66.9544C65.7393 66.6271 65.6152 66.3048 65.3814 66.0605L63.9365 67.4433C63.8055 67.3064 63.7393 67.1298 63.7393 66.9544H65.7393ZM65.3814 66.0605C65.1462 65.8147 64.8176 65.668 64.4651 65.668V67.668C64.2581 67.668 64.0689 67.5816 63.9365 67.4433L65.3814 66.0605ZM64.4651 65.668H6.44307V67.668H64.4651V65.668ZM6.44307 65.668C6.09062 65.668 5.76198 65.8147 5.52676 66.0605L6.97171 67.4433C6.8393 67.5816 6.65011 67.668 6.44307 67.668V65.668ZM5.52676 66.0605C5.29298 66.3047 5.16895 66.6271 5.16895 66.9544H7.16895C7.16895 67.1298 7.10267 67.3064 6.97171 67.4433L5.52676 66.0605ZM5.16895 66.9544C5.16895 67.2818 5.29298 67.6041 5.52676 67.8484L6.97171 66.4655C7.10267 66.6024 7.16895 66.779 7.16895 66.9544H5.16895ZM5.52676 67.8484C5.76198 68.0941 6.09062 68.2408 6.44307 68.2408V66.2408C6.65011 66.2408 6.8393 66.3272 6.97171 66.4655L5.52676 67.8484Z" fill="white" mask="url(#path-14-inside-1)"/>
<mask id="path-16-inside-2" fill="white">
<path d="M11.1033 71.6334C11.5395 71.6334 11.9579 71.8145 12.2663 72.1368C12.5748 72.4591 12.7481 72.8963 12.7481 73.3521V75.8346C12.7481 76.2904 12.5748 76.7275 12.2663 77.0498C11.9579 77.3721 11.5395 77.5532 11.1033 77.5532H8.72763C8.29142 77.5532 7.87308 77.3721 7.56463 77.0498C7.25619 76.7275 7.08291 76.2904 7.08291 75.8346V73.3521C7.08291 72.8963 7.25619 72.4591 7.56463 72.1368C7.87308 71.8145 8.29142 71.6334 8.72763 71.6334H11.1033ZM11.1033 71.0605H8.72763C8.14602 71.0605 7.58823 71.302 7.17697 71.7317C6.76571 72.1615 6.53467 72.7443 6.53467 73.3521V75.8346C6.53467 76.4423 6.76571 77.0252 7.17697 77.4549C7.58823 77.8847 8.14602 78.1261 8.72763 78.1261H11.1033C11.6849 78.1261 12.2427 77.8847 12.654 77.4549C13.0653 77.0252 13.2963 76.4423 13.2963 75.8346V73.3521C13.2963 72.7443 13.0653 72.1615 12.654 71.7317C12.2427 71.302 11.6849 71.0605 11.1033 71.0605Z"/>
</mask>
<path d="M12.7481 73.3521H14.7481H12.7481ZM12.7481 75.8346H14.7481H12.7481ZM8.72763 77.5532V79.5532V77.5532ZM8.72763 71.6334V73.6334V71.6334ZM11.1033 73.6334C10.98 73.6334 10.8805 73.5814 10.8214 73.5196L13.7113 70.754C13.0352 70.0476 12.0991 69.6334 11.1033 69.6334V73.6334ZM10.8214 73.5196C10.7651 73.4608 10.7481 73.399 10.7481 73.3521H14.7481C14.7481 72.3935 14.3845 71.4575 13.7113 70.754L10.8214 73.5196ZM10.7481 73.3521V75.8346H14.7481V73.3521H10.7481ZM10.7481 75.8346C10.7481 75.7876 10.7651 75.7259 10.8214 75.667L13.7113 78.4326C14.3845 77.7292 14.7481 76.7931 14.7481 75.8346H10.7481ZM10.8214 75.667C10.8805 75.6052 10.98 75.5532 11.1033 75.5532V79.5532C12.0991 79.5532 13.0352 79.139 13.7113 78.4326L10.8214 75.667ZM11.1033 75.5532H8.72763V79.5532H11.1033V75.5532ZM8.72763 75.5532C8.85094 75.5532 8.95042 75.6052 9.00958 75.667L6.11969 78.4326C6.79574 79.139 7.73191 79.5532 8.72763 79.5532V75.5532ZM9.00958 75.667C9.06589 75.7259 9.08291 75.7876 9.08291 75.8346H5.08291C5.08291 76.7931 5.44649 77.7292 6.11969 78.4326L9.00958 75.667ZM9.08291 75.8346V73.3521H5.08291V75.8346H9.08291ZM9.08291 73.3521C9.08291 73.399 9.06589 73.4608 9.00958 73.5196L6.11969 70.754C5.44649 71.4575 5.08291 72.3935 5.08291 73.3521H9.08291ZM9.00958 73.5196C8.95042 73.5814 8.85094 73.6334 8.72763 73.6334V69.6334C7.73191 69.6334 6.79574 70.0476 6.11969 70.754L9.00958 73.5196ZM8.72763 73.6334H11.1033V69.6334H8.72763V73.6334ZM11.1033 69.0605H8.72763V73.0605H11.1033V69.0605ZM8.72763 69.0605C7.58651 69.0605 6.5109 69.535 5.73203 70.3489L8.62192 73.1145C8.66557 73.0689 8.70553 73.0605 8.72763 73.0605V69.0605ZM5.73203 70.3489C4.95602 71.1598 4.53467 72.2416 4.53467 73.3521H8.53467C8.53467 73.2471 8.57541 73.1631 8.62192 73.1145L5.73203 70.3489ZM4.53467 73.3521V75.8346H8.53467V73.3521H4.53467ZM4.53467 75.8346C4.53467 76.9451 4.95602 78.0268 5.73203 78.8377L8.62192 76.0721C8.57541 76.0235 8.53467 75.9395 8.53467 75.8346H4.53467ZM5.73203 78.8377C6.5109 79.6516 7.58651 80.1261 8.72763 80.1261V76.1261C8.70553 76.1261 8.66557 76.1177 8.62192 76.0721L5.73203 78.8377ZM8.72763 80.1261H11.1033V76.1261H8.72763V80.1261ZM11.1033 80.1261C12.2445 80.1261 13.3201 79.6516 14.0989 78.8377L11.209 76.0721C11.1654 76.1177 11.1254 76.1261 11.1033 76.1261V80.1261ZM14.0989 78.8377C14.8749 78.0268 15.2963 76.9451 15.2963 75.8346H11.2963C11.2963 75.9395 11.2556 76.0235 11.209 76.0721L14.0989 78.8377ZM15.2963 75.8346V73.3521H11.2963V75.8346H15.2963ZM15.2963 73.3521C15.2963 72.2416 14.8749 71.1598 14.0989 70.3489L11.209 73.1145C11.2556 73.1631 11.2963 73.2471 11.2963 73.3521H15.2963ZM14.0989 70.3489C13.3201 69.535 12.2445 69.0605 11.1033 69.0605V73.0605C11.1254 73.0605 11.1654 73.0689 11.209 73.1145L14.0989 70.3489Z" fill="white" mask="url(#path-16-inside-2)"/>
<path d="M58.1602 74.7655L58.1424 74.7825L58.1602 74.7655L58.3541 74.58L58.1602 74.7655Z" stroke="white"/>
<mask id="path-19-inside-3" fill="white">
<path d="M10.2152 82.026C10.6514 82.026 11.0697 82.2071 11.3782 82.5294C11.6866 82.8517 11.8599 83.2888 11.8599 83.7446V85.2991C11.8599 85.7549 11.6866 86.192 11.3782 86.5143C11.0697 86.8366 10.6514 87.0177 10.2152 87.0177H8.72763C8.29142 87.0177 7.87308 86.8366 7.56463 86.5143C7.25619 86.192 7.08291 85.7549 7.08291 85.2991V83.7446C7.08291 83.2888 7.25619 82.8517 7.56463 82.5294C7.87308 82.2071 8.29142 82.026 8.72763 82.026H10.2152ZM10.2152 81.4531H8.72763C8.14602 81.4531 7.58823 81.6946 7.17697 82.1243C6.76571 82.554 6.53467 83.1369 6.53467 83.7446V85.2991C6.53467 85.9068 6.76571 86.4897 7.17697 86.9194C7.58823 87.3492 8.14602 87.5906 8.72763 87.5906H10.2152C10.7968 87.5906 11.3546 87.3492 11.7658 86.9194C12.1771 86.4897 12.4081 85.9068 12.4081 85.2991V83.7446C12.4081 83.1369 12.1771 82.554 11.7658 82.1243C11.3546 81.6946 10.7968 81.4531 10.2152 81.4531Z"/>
</mask>
<path d="M8.72763 87.0177V88.0177V87.0177ZM10.2152 83.026C10.3716 83.026 10.5311 83.0905 10.6557 83.2208L12.1007 81.838C11.6084 81.3236 10.9312 81.026 10.2152 81.026V83.026ZM10.6557 83.2208C10.7818 83.3525 10.8599 83.5402 10.8599 83.7446H12.8599C12.8599 83.0375 12.5915 82.3509 12.1007 81.838L10.6557 83.2208ZM10.8599 83.7446V85.2991H12.8599V83.7446H10.8599ZM10.8599 85.2991C10.8599 85.5035 10.7818 85.6912 10.6557 85.8229L12.1007 87.2057C12.5915 86.6928 12.8599 86.0063 12.8599 85.2991H10.8599ZM10.6557 85.8229C10.5311 85.9532 10.3716 86.0177 10.2152 86.0177V88.0177C10.9312 88.0177 11.6084 87.7201 12.1007 87.2057L10.6557 85.8229ZM10.2152 86.0177H8.72763V88.0177H10.2152V86.0177ZM8.72763 86.0177C8.57118 86.0177 8.41175 85.9532 8.28711 85.8229L6.84216 87.2057C7.33441 87.7201 8.01166 88.0177 8.72763 88.0177V86.0177ZM8.28711 85.8229C8.16104 85.6912 8.08291 85.5035 8.08291 85.2991H6.08291C6.08291 86.0063 6.35134 86.6928 6.84216 87.2057L8.28711 85.8229ZM8.08291 85.2991V83.7446H6.08291V85.2991H8.08291ZM8.08291 83.7446C8.08291 83.5402 8.16104 83.3525 8.28711 83.2208L6.84216 81.838C6.35134 82.3509 6.08291 83.0375 6.08291 83.7446H8.08291ZM8.28711 83.2208C8.41175 83.0905 8.57118 83.026 8.72763 83.026V81.026C8.01166 81.026 7.33441 81.3236 6.84216 81.838L8.28711 83.2208ZM8.72763 83.026H10.2152V81.026H8.72763V83.026ZM10.2152 80.4531H8.72763V82.4531H10.2152V80.4531ZM8.72763 80.4531C7.86626 80.4531 7.04956 80.8111 6.4545 81.4329L7.89945 82.8157C8.1269 82.578 8.42578 82.4531 8.72763 82.4531V80.4531ZM6.4545 81.4329C5.86087 82.0532 5.53467 82.8855 5.53467 83.7446H7.53467C7.53467 83.3883 7.67056 83.0549 7.89945 82.8157L6.4545 81.4329ZM5.53467 83.7446V85.2991H7.53467V83.7446H5.53467ZM5.53467 85.2991C5.53467 86.1582 5.86087 86.9905 6.4545 87.6108L7.89945 86.228C7.67056 85.9888 7.53467 85.6554 7.53467 85.2991H5.53467ZM6.4545 87.6108C7.04956 88.2326 7.86626 88.5906 8.72763 88.5906V86.5906C8.42578 86.5906 8.1269 86.4657 7.89945 86.228L6.4545 87.6108ZM8.72763 88.5906H10.2152V86.5906H8.72763V88.5906ZM10.2152 88.5906C11.0766 88.5906 11.8933 88.2326 12.4883 87.6108L11.0434 86.228C10.8159 86.4657 10.517 86.5906 10.2152 86.5906V88.5906ZM12.4883 87.6108C13.0819 86.9905 13.4081 86.1582 13.4081 85.2991H11.4081C11.4081 85.6554 11.2723 85.9888 11.0434 86.228L12.4883 87.6108ZM13.4081 85.2991V83.7446H11.4081V85.2991H13.4081ZM13.4081 83.7446C13.4081 82.8855 13.0819 82.0532 12.4883 81.4329L11.0434 82.8157C11.2723 83.0549 11.4081 83.3883 11.4081 83.7446H13.4081ZM12.4883 81.4329C11.8933 80.8111 11.0766 80.4531 10.2152 80.4531V82.4531C10.517 82.4531 10.8159 82.578 11.0434 82.8157L12.4883 81.4329Z" fill="white" mask="url(#path-19-inside-3)"/>
<mask id="path-21-inside-4" fill="white">
<path d="M15.1052 84.8092H63.9168C63.9895 84.8092 64.0592 84.779 64.1106 84.7253C64.162 84.6716 64.1909 84.5987 64.1909 84.5228C64.1909 84.4468 64.162 84.3739 64.1106 84.3202C64.0592 84.2665 63.9895 84.2363 63.9168 84.2363H15.1052C15.0325 84.2363 14.9628 84.2665 14.9113 84.3202C14.8599 84.3739 14.8311 84.4468 14.8311 84.5228C14.8311 84.5987 14.8599 84.6716 14.9113 84.7253C14.9628 84.779 15.0325 84.8092 15.1052 84.8092Z"/>
</mask>
<path d="M15.1052 85.8092H63.9168V83.8092H15.1052V85.8092ZM63.9168 85.8092C64.2692 85.8092 64.5979 85.6625 64.8331 85.4167L63.3882 84.0339C63.5206 83.8955 63.7098 83.8092 63.9168 83.8092V85.8092ZM64.8331 85.4167C65.0669 85.1724 65.1909 84.8501 65.1909 84.5228H63.1909C63.1909 84.3474 63.2572 84.1708 63.3882 84.0339L64.8331 85.4167ZM65.1909 84.5228C65.1909 84.1954 65.0669 83.8731 64.8331 83.6288L63.3882 85.0116C63.2572 84.8748 63.1909 84.6982 63.1909 84.5228H65.1909ZM64.8331 83.6288C64.5979 83.383 64.2692 83.2363 63.9168 83.2363V85.2363C63.7098 85.2363 63.5206 85.15 63.3882 85.0116L64.8331 83.6288ZM63.9168 83.2363H15.1052V85.2363H63.9168V83.2363ZM15.1052 83.2363C14.7527 83.2363 14.4241 83.383 14.1889 83.6288L15.6338 85.0116C15.5014 85.15 15.3122 85.2363 15.1052 85.2363V83.2363ZM14.1889 83.6288C13.9551 83.8731 13.8311 84.1954 13.8311 84.5228H15.8311C15.8311 84.6982 15.7648 84.8748 15.6338 85.0116L14.1889 83.6288ZM13.8311 84.5228C13.8311 84.8501 13.9551 85.1724 14.1889 85.4167L15.6338 84.0339C15.7648 84.1708 15.8311 84.3473 15.8311 84.5228H13.8311ZM14.1889 85.4167C14.4241 85.6625 14.7527 85.8092 15.1052 85.8092V83.8092C15.3122 83.8092 15.5014 83.8956 15.6338 84.0339L14.1889 85.4167Z" fill="white" mask="url(#path-21-inside-4)"/>
</svg>
