<svg width="32" height="32" viewBox="0 0 32 32" fill="none" xmlns="http://www.w3.org/2000/svg">
<path fill-rule="evenodd" clip-rule="evenodd" d="M7.93806 5.80632C8.43088 5.32058 9.09776 5.04897 9.79164 5.04897H17.2292C17.3605 5.04897 17.4866 5.10066 17.5802 5.19287L25.0176 12.5234C25.113 12.6174 25.1666 12.7457 25.1666 12.8795V24.399C25.1666 25.0895 24.8883 25.7501 24.3952 26.2361C23.9024 26.7218 23.2355 26.9934 22.5416 26.9934H9.79164C9.09777 26.9934 8.43088 26.7218 7.93806 26.2361C7.44499 25.7501 7.16664 25.0895 7.16664 24.399V7.64342C7.16664 6.95297 7.44498 6.29229 7.93806 5.80632ZM9.79164 6.04897H16.5V12.9238C16.5 13.2 16.7238 13.4238 17 13.4238H24.1666V24.399C24.1666 24.8195 23.9972 25.2243 23.6933 25.5239C23.389 25.8237 22.9749 25.9934 22.5416 25.9934H9.79164C9.35834 25.9934 8.94423 25.8237 8.64003 25.5239C8.33605 25.2243 8.16664 24.8195 8.16664 24.399V7.64342C8.16664 7.2229 8.33606 6.81811 8.64002 6.51853C8.94423 6.21869 9.35835 6.04897 9.79164 6.04897ZM17.5 12.4238H23.492L17.5 6.51791V12.4238Z" fill="white"/>
<path fill-rule="evenodd" clip-rule="evenodd" d="M32 16C32 24.8366 24.8366 32 16 32C7.16344 32 0 24.8366 0 16C0 7.16344 7.16344 0 16 0C24.8366 0 32 7.16344 32 16ZM31 16C31 24.2843 24.2843 31 16 31C7.71573 31 1 24.2843 1 16C1 7.71573 7.71573 1 16 1C24.2843 1 31 7.71573 31 16Z" fill="white"/>
</svg>
