<svg width="32" height="32" viewBox="0 0 32 32" fill="none" xmlns="http://www.w3.org/2000/svg">
<path d="M24 24.0003V22.2225C24 21.2795 23.5786 20.3752 22.8284 19.7084C22.0783 19.0416 21.0609 18.667 20 18.667H12C10.9391 18.667 9.92172 19.0416 9.17157 19.7084C8.42143 20.3752 8 21.2795 8 22.2225V24.0003" stroke="white" stroke-linecap="round" stroke-linejoin="round"/>
<path d="M16 14.3999C18.2091 14.3999 20 12.9673 20 11.2C20 9.43268 18.2091 8 16 8C13.7909 8 12 9.43268 12 11.2C12 12.9673 13.7909 14.3999 16 14.3999Z" stroke="white" stroke-linecap="round" stroke-linejoin="round"/>
<circle cx="16" cy="16" r="15.5" stroke="white"/>
</svg>
