<svg width="21" height="20" viewBox="0 0 21 20" fill="none" xmlns="http://www.w3.org/2000/svg">
<path fill-rule="evenodd" clip-rule="evenodd" d="M15.1176 3.76462C15.1176 5.84375 13.0108 7.52923 10.4118 7.52923C7.81278 7.52923 5.70588 5.84375 5.70588 3.76462C5.70588 1.68548 7.81278 0 10.4118 0C13.0108 0 15.1176 1.68548 15.1176 3.76462ZM5.70588 11.5492C4.22813 11.5492 2.79062 12.0699 1.71397 13.0269C0.633479 13.9873 0 15.3169 0 16.7321V18.8235C0 19.3758 0.447715 19.8235 1 19.8235C1.55228 19.8235 2 19.3758 2 18.8235V16.7321C2 15.9285 2.35811 15.1303 3.04267 14.5218C3.73107 13.9099 4.68748 13.5492 5.70588 13.5492H15.1176C16.1361 13.5492 17.0925 13.9099 17.7809 14.5218C18.4654 15.1303 18.8235 15.9285 18.8235 16.7321V18.8235C18.8235 19.3758 19.2712 19.8235 19.8235 19.8235C20.3758 19.8235 20.8235 19.3758 20.8235 18.8235V16.7321C20.8235 15.3169 20.1901 13.9873 19.1096 13.0269C18.0329 12.0699 16.5954 11.5492 15.1176 11.5492H5.70588Z" fill="white"/>
</svg>
