<svg width="165" height="156" viewBox="0 0 165 156" fill="none" xmlns="http://www.w3.org/2000/svg">
<g clip-path="url(#clip0)">
<path d="M114 155.999V148.888C114 145.116 112.367 141.499 109.46 138.832C106.553 136.164 102.611 134.666 98.5 134.666H67.5C63.3891 134.666 59.4467 136.164 56.5398 138.832C53.633 141.499 52 145.116 52 148.888V155.999" stroke="white" stroke-linecap="round" stroke-linejoin="round"/>
<path d="M83 120.444C91.5604 120.444 98.5 114.077 98.5 106.222C98.5 98.3675 91.5604 92 83 92C74.4396 92 67.5 98.3675 67.5 106.222C67.5 114.077 74.4396 120.444 83 120.444Z" stroke="white" stroke-linecap="round" stroke-linejoin="round"/>
<path d="M47.9219 15H46.4141V4.85938H40.8047V15H39.3047V3.625H47.9219V15ZM50.0469 10.6953C50.0469 9.86719 50.2083 9.1224 50.5312 8.46094C50.8594 7.79948 51.3125 7.28906 51.8906 6.92969C52.474 6.57031 53.138 6.39062 53.8828 6.39062C55.0339 6.39062 55.9635 6.78906 56.6719 7.58594C57.3854 8.38281 57.7422 9.44271 57.7422 10.7656V10.8672C57.7422 11.6901 57.5833 12.4297 57.2656 13.0859C56.9531 13.737 56.5026 14.2448 55.9141 14.6094C55.3307 14.974 54.6589 15.1562 53.8984 15.1562C52.7526 15.1562 51.8229 14.7578 51.1094 13.9609C50.401 13.1641 50.0469 12.1094 50.0469 10.7969V10.6953ZM51.5 10.8672C51.5 11.8047 51.7161 12.5573 52.1484 13.125C52.5859 13.6927 53.1693 13.9766 53.8984 13.9766C54.6328 13.9766 55.2161 13.6901 55.6484 13.1172C56.0807 12.5391 56.2969 11.7318 56.2969 10.6953C56.2969 9.76823 56.0755 9.01823 55.6328 8.44531C55.1953 7.86719 54.612 7.57812 53.8828 7.57812C53.1693 7.57812 52.5938 7.86198 52.1562 8.42969C51.7188 8.9974 51.5 9.8099 51.5 10.8672ZM66.125 11.3281H65.1094V15H63.6641V11.3281H62.6484L60.2812 15H58.4531L61.4766 10.625L58.7422 6.54688H60.4922L62.6719 10.0469H63.6641V6.54688H65.1094V10.0469H66.0938L68.2891 6.54688H70.0391L67.2969 10.6328L70.3203 15H68.4922L66.125 11.3281ZM76.8516 15C76.7682 14.8333 76.7005 14.5365 76.6484 14.1094C75.9766 14.8073 75.1745 15.1562 74.2422 15.1562C73.4089 15.1562 72.724 14.9219 72.1875 14.4531C71.6562 13.9792 71.3906 13.3802 71.3906 12.6562C71.3906 11.776 71.724 11.0938 72.3906 10.6094C73.0625 10.1198 74.0052 9.875 75.2188 9.875H76.625V9.21094C76.625 8.70573 76.474 8.30469 76.1719 8.00781C75.8698 7.70573 75.4245 7.55469 74.8359 7.55469C74.3203 7.55469 73.888 7.6849 73.5391 7.94531C73.1901 8.20573 73.0156 8.52083 73.0156 8.89062H71.5625C71.5625 8.46875 71.7109 8.0625 72.0078 7.67188C72.3099 7.27604 72.7161 6.96354 73.2266 6.73438C73.7422 6.50521 74.3073 6.39062 74.9219 6.39062C75.8958 6.39062 76.6589 6.63542 77.2109 7.125C77.763 7.60938 78.0495 8.27865 78.0703 9.13281V13.0234C78.0703 13.7995 78.1693 14.4167 78.3672 14.875V15H76.8516ZM74.4531 13.8984C74.9062 13.8984 75.3359 13.7812 75.7422 13.5469C76.1484 13.3125 76.4427 13.0078 76.625 12.6328V10.8984H75.4922C73.7214 10.8984 72.8359 11.4167 72.8359 12.4531C72.8359 12.9062 72.987 13.2604 73.2891 13.5156C73.5911 13.7708 73.9792 13.8984 74.4531 13.8984ZM87.2656 6.54688V15H85.8125V7.74219H82.9375L82.7656 10.9062C82.6719 12.3594 82.4271 13.3984 82.0312 14.0234C81.6406 14.6484 81.0182 14.974 80.1641 15H79.5859V13.7266L80 13.6953C80.4688 13.6432 80.8047 13.3724 81.0078 12.8828C81.2109 12.3932 81.3411 11.487 81.3984 10.1641L81.5547 6.54688H87.2656ZM92.3516 12.8828L94.3203 6.54688H95.8672L92.4688 16.3047C91.9427 17.7109 91.1068 18.4141 89.9609 18.4141L89.6875 18.3906L89.1484 18.2891V17.1172L89.5391 17.1484C90.0286 17.1484 90.4089 17.0495 90.6797 16.8516C90.9557 16.6536 91.1823 16.2917 91.3594 15.7656L91.6797 14.9062L88.6641 6.54688H90.2422L92.3516 12.8828ZM102.633 6.54688H104.078V15H102.633V8.83594L98.7344 15H97.2891V6.54688H98.7344V12.7188L102.633 6.54688ZM103.023 3.46875C103.023 4.09896 102.807 4.60677 102.375 4.99219C101.948 5.3724 101.385 5.5625 100.688 5.5625C99.9896 5.5625 99.4245 5.36979 98.9922 4.98438C98.5599 4.59896 98.3438 4.09375 98.3438 3.46875H99.5234C99.5234 3.83333 99.6224 4.11979 99.8203 4.32812C100.018 4.53125 100.307 4.63281 100.688 4.63281C101.052 4.63281 101.336 4.53125 101.539 4.32812C101.747 4.125 101.852 3.83854 101.852 3.46875H103.023ZM109.789 13.9766C110.305 13.9766 110.755 13.8203 111.141 13.5078C111.526 13.1953 111.74 12.8047 111.781 12.3359H113.148C113.122 12.8203 112.956 13.2812 112.648 13.7188C112.341 14.1562 111.93 14.5052 111.414 14.7656C110.904 15.026 110.362 15.1562 109.789 15.1562C108.638 15.1562 107.721 14.7734 107.039 14.0078C106.362 13.237 106.023 12.1849 106.023 10.8516V10.6094C106.023 9.78646 106.174 9.05469 106.477 8.41406C106.779 7.77344 107.211 7.27604 107.773 6.92188C108.341 6.56771 109.01 6.39062 109.781 6.39062C110.729 6.39062 111.516 6.67448 112.141 7.24219C112.771 7.8099 113.107 8.54688 113.148 9.45312H111.781C111.74 8.90625 111.531 8.45833 111.156 8.10938C110.786 7.75521 110.328 7.57812 109.781 7.57812C109.047 7.57812 108.477 7.84375 108.07 8.375C107.669 8.90104 107.469 9.66406 107.469 10.6641V10.9375C107.469 11.9115 107.669 12.6615 108.07 13.1875C108.471 13.7135 109.044 13.9766 109.789 13.9766ZM121.055 7.71875H118.219V15H116.773V7.71875H113.992V6.54688H121.055V7.71875ZM127.555 15C127.471 14.8333 127.404 14.5365 127.352 14.1094C126.68 14.8073 125.878 15.1562 124.945 15.1562C124.112 15.1562 123.427 14.9219 122.891 14.4531C122.359 13.9792 122.094 13.3802 122.094 12.6562C122.094 11.776 122.427 11.0938 123.094 10.6094C123.766 10.1198 124.708 9.875 125.922 9.875H127.328V9.21094C127.328 8.70573 127.177 8.30469 126.875 8.00781C126.573 7.70573 126.128 7.55469 125.539 7.55469C125.023 7.55469 124.591 7.6849 124.242 7.94531C123.893 8.20573 123.719 8.52083 123.719 8.89062H122.266C122.266 8.46875 122.414 8.0625 122.711 7.67188C123.013 7.27604 123.419 6.96354 123.93 6.73438C124.445 6.50521 125.01 6.39062 125.625 6.39062C126.599 6.39062 127.362 6.63542 127.914 7.125C128.466 7.60938 128.753 8.27865 128.773 9.13281V13.0234C128.773 13.7995 128.872 14.4167 129.07 14.875V15H127.555ZM125.156 13.8984C125.609 13.8984 126.039 13.7812 126.445 13.5469C126.852 13.3125 127.146 13.0078 127.328 12.6328V10.8984H126.195C124.424 10.8984 123.539 11.4167 123.539 12.4531C123.539 12.9062 123.69 13.2604 123.992 13.5156C124.294 13.7708 124.682 13.8984 125.156 13.8984ZM130.992 17.2656L130.172 16.7031C130.661 16.0208 130.917 15.3177 130.938 14.5938V13.2891H132.352V14.4219C132.352 14.9479 132.221 15.474 131.961 16C131.706 16.526 131.383 16.9479 130.992 17.2656ZM28.1953 29.8672C28.1953 31.1536 27.901 32.1901 27.3125 32.9766C26.724 33.763 25.9271 34.1562 24.9219 34.1562C23.8958 34.1562 23.0885 33.8307 22.5 33.1797V37.25H21.0547V25.5469H22.375L22.4453 26.4844C23.0339 25.7552 23.8516 25.3906 24.8984 25.3906C25.9141 25.3906 26.7161 25.7734 27.3047 26.5391C27.8984 27.3047 28.1953 28.3698 28.1953 29.7344V29.8672ZM26.75 29.7031C26.75 28.75 26.5469 27.9974 26.1406 27.4453C25.7344 26.8932 25.1771 26.6172 24.4688 26.6172C23.5938 26.6172 22.9375 27.0052 22.5 27.7812V31.8203C22.9323 32.5911 23.5938 32.9766 24.4844 32.9766C25.1771 32.9766 25.7266 32.7031 26.1328 32.1562C26.5443 31.6042 26.75 30.7865 26.75 29.7031ZM35.2578 34C35.1745 33.8333 35.1068 33.5365 35.0547 33.1094C34.3828 33.8073 33.5807 34.1562 32.6484 34.1562C31.8151 34.1562 31.1302 33.9219 30.5938 33.4531C30.0625 32.9792 29.7969 32.3802 29.7969 31.6562C29.7969 30.776 30.1302 30.0938 30.7969 29.6094C31.4688 29.1198 32.4115 28.875 33.625 28.875H35.0312V28.2109C35.0312 27.7057 34.8802 27.3047 34.5781 27.0078C34.276 26.7057 33.8307 26.5547 33.2422 26.5547C32.7266 26.5547 32.2943 26.6849 31.9453 26.9453C31.5964 27.2057 31.4219 27.5208 31.4219 27.8906H29.9688C29.9688 27.4688 30.1172 27.0625 30.4141 26.6719C30.7161 26.276 31.1224 25.9635 31.6328 25.7344C32.1484 25.5052 32.7135 25.3906 33.3281 25.3906C34.3021 25.3906 35.0651 25.6354 35.6172 26.125C36.1693 26.6094 36.4557 27.2786 36.4766 28.1328V32.0234C36.4766 32.7995 36.5755 33.4167 36.7734 33.875V34H35.2578ZM32.8594 32.8984C33.3125 32.8984 33.7422 32.7812 34.1484 32.5469C34.5547 32.3125 34.849 32.0078 35.0312 31.6328V29.8984H33.8984C32.1276 29.8984 31.2422 30.4167 31.2422 31.4531C31.2422 31.9062 31.3932 32.2604 31.6953 32.5156C31.9974 32.7708 32.3854 32.8984 32.8594 32.8984ZM43.3906 27.8594C43.3906 27.4635 43.2396 27.151 42.9375 26.9219C42.6354 26.6875 42.2214 26.5703 41.6953 26.5703C41.1849 26.5703 40.7578 26.7031 40.4141 26.9688C40.0755 27.2344 39.9062 27.5469 39.9062 27.9062H38.4688C38.4688 27.1719 38.776 26.5703 39.3906 26.1016C40.0052 25.6328 40.7734 25.3984 41.6953 25.3984C42.6849 25.3984 43.4557 25.612 44.0078 26.0391C44.5599 26.4609 44.8359 27.0651 44.8359 27.8516C44.8359 28.2318 44.7214 28.5807 44.4922 28.8984C44.263 29.2161 43.9375 29.4688 43.5156 29.6562C44.5 29.9896 44.9922 30.6458 44.9922 31.625C44.9922 32.401 44.6927 33.0156 44.0938 33.4688C43.4948 33.9219 42.6953 34.1484 41.6953 34.1484C40.7214 34.1484 39.9167 33.9115 39.2812 33.4375C38.651 32.9583 38.3359 32.3125 38.3359 31.5H39.7734C39.7734 31.9115 39.9557 32.2656 40.3203 32.5625C40.6901 32.8542 41.1484 33 41.6953 33C42.2474 33 42.6927 32.8724 43.0312 32.6172C43.3698 32.362 43.5391 32.0312 43.5391 31.625C43.5391 31.151 43.3958 30.8125 43.1094 30.6094C42.8281 30.401 42.388 30.2969 41.7891 30.2969H40.3438V29.0781H41.9141C42.8984 29.0521 43.3906 28.6458 43.3906 27.8594ZM51.7344 32.0859L54.6094 25.5469H56.4141V34H54.9688V27.8516L52.2344 34H51.2344L48.4453 27.7188V34H47V25.5469H48.875L51.7344 32.0859ZM62.25 34.1562C61.1042 34.1562 60.1719 33.7812 59.4531 33.0312C58.7344 32.276 58.375 31.2682 58.375 30.0078V29.7422C58.375 28.9036 58.5339 28.1562 58.8516 27.5C59.1745 26.8385 59.6224 26.3229 60.1953 25.9531C60.7734 25.5781 61.3984 25.3906 62.0703 25.3906C63.1693 25.3906 64.0234 25.7526 64.6328 26.4766C65.2422 27.2005 65.5469 28.237 65.5469 29.5859V30.1875H59.8203C59.8411 31.0208 60.0833 31.6953 60.5469 32.2109C61.0156 32.7214 61.6094 32.9766 62.3281 32.9766C62.8385 32.9766 63.2708 32.8724 63.625 32.6641C63.9792 32.4557 64.2891 32.1797 64.5547 31.8359L65.4375 32.5234C64.7292 33.612 63.6667 34.1562 62.25 34.1562ZM62.0703 26.5781C61.487 26.5781 60.9974 26.7917 60.6016 27.2188C60.2057 27.6406 59.9609 28.2344 59.8672 29H64.1016V28.8906C64.0599 28.1562 63.862 27.5885 63.5078 27.1875C63.1536 26.7812 62.6745 26.5781 62.0703 26.5781ZM70.6172 32.9766C71.1328 32.9766 71.5833 32.8203 71.9688 32.5078C72.3542 32.1953 72.5677 31.8047 72.6094 31.3359H73.9766C73.9505 31.8203 73.7839 32.2812 73.4766 32.7188C73.1693 33.1562 72.7578 33.5052 72.2422 33.7656C71.7318 34.026 71.1901 34.1562 70.6172 34.1562C69.4661 34.1562 68.5495 33.7734 67.8672 33.0078C67.1901 32.237 66.8516 31.1849 66.8516 29.8516V29.6094C66.8516 28.7865 67.0026 28.0547 67.3047 27.4141C67.6068 26.7734 68.0391 26.276 68.6016 25.9219C69.1693 25.5677 69.8385 25.3906 70.6094 25.3906C71.5573 25.3906 72.3438 25.6745 72.9688 26.2422C73.599 26.8099 73.9349 27.5469 73.9766 28.4531H72.6094C72.5677 27.9062 72.3594 27.4583 71.9844 27.1094C71.6146 26.7552 71.1562 26.5781 70.6094 26.5781C69.875 26.5781 69.3047 26.8438 68.8984 27.375C68.4974 27.901 68.2969 28.6641 68.2969 29.6641V29.9375C68.2969 30.9115 68.4974 31.6615 68.8984 32.1875C69.2995 32.7135 69.8724 32.9766 70.6172 32.9766ZM81.8828 26.7188H79.0469V34H77.6016V26.7188H74.8203V25.5469H81.8828V26.7188ZM88.7578 25.5469H90.2031V34H88.7578V27.8359L84.8594 34H83.4141V25.5469H84.8594V31.7188L88.7578 25.5469ZM98.8047 26.7188H95.9688V34H94.5234V26.7188H91.7422V25.5469H98.8047V26.7188ZM103.094 34.1562C101.948 34.1562 101.016 33.7812 100.297 33.0312C99.5781 32.276 99.2188 31.2682 99.2188 30.0078V29.7422C99.2188 28.9036 99.3776 28.1562 99.6953 27.5C100.018 26.8385 100.466 26.3229 101.039 25.9531C101.617 25.5781 102.242 25.3906 102.914 25.3906C104.013 25.3906 104.867 25.7526 105.477 26.4766C106.086 27.2005 106.391 28.237 106.391 29.5859V30.1875H100.664C100.685 31.0208 100.927 31.6953 101.391 32.2109C101.859 32.7214 102.453 32.9766 103.172 32.9766C103.682 32.9766 104.115 32.8724 104.469 32.6641C104.823 32.4557 105.133 32.1797 105.398 31.8359L106.281 32.5234C105.573 33.612 104.51 34.1562 103.094 34.1562ZM102.914 26.5781C102.331 26.5781 101.841 26.7917 101.445 27.2188C101.049 27.6406 100.805 28.2344 100.711 29H104.945V28.8906C104.904 28.1562 104.706 27.5885 104.352 27.1875C103.997 26.7812 103.518 26.5781 102.914 26.5781ZM112.266 34V22.625H115.984C117.219 22.625 118.146 22.8802 118.766 23.3906C119.391 23.901 119.703 24.6562 119.703 25.6562C119.703 26.1875 119.552 26.6589 119.25 27.0703C118.948 27.4766 118.536 27.7917 118.016 28.0156C118.63 28.1875 119.115 28.5156 119.469 29C119.828 29.4792 120.008 30.0521 120.008 30.7188C120.008 31.7396 119.677 32.5417 119.016 33.125C118.354 33.7083 117.419 34 116.211 34H112.266ZM113.766 28.6797V32.7734H116.242C116.94 32.7734 117.49 32.5938 117.891 32.2344C118.297 31.8698 118.5 31.3698 118.5 30.7344C118.5 29.3646 117.755 28.6797 116.266 28.6797H113.766ZM113.766 27.4766H116.031C116.688 27.4766 117.211 27.3125 117.602 26.9844C117.997 26.6562 118.195 26.2109 118.195 25.6484C118.195 25.0234 118.013 24.5703 117.648 24.2891C117.284 24.0026 116.729 23.8594 115.984 23.8594H113.766V27.4766ZM127.227 34C127.143 33.8333 127.076 33.5365 127.023 33.1094C126.352 33.8073 125.549 34.1562 124.617 34.1562C123.784 34.1562 123.099 33.9219 122.562 33.4531C122.031 32.9792 121.766 32.3802 121.766 31.6562C121.766 30.776 122.099 30.0938 122.766 29.6094C123.438 29.1198 124.38 28.875 125.594 28.875H127V28.2109C127 27.7057 126.849 27.3047 126.547 27.0078C126.245 26.7057 125.799 26.5547 125.211 26.5547C124.695 26.5547 124.263 26.6849 123.914 26.9453C123.565 27.2057 123.391 27.5208 123.391 27.8906H121.938C121.938 27.4688 122.086 27.0625 122.383 26.6719C122.685 26.276 123.091 25.9635 123.602 25.7344C124.117 25.5052 124.682 25.3906 125.297 25.3906C126.271 25.3906 127.034 25.6354 127.586 26.125C128.138 26.6094 128.424 27.2786 128.445 28.1328V32.0234C128.445 32.7995 128.544 33.4167 128.742 33.875V34H127.227ZM124.828 32.8984C125.281 32.8984 125.711 32.7812 126.117 32.5469C126.523 32.3125 126.818 32.0078 127 31.6328V29.8984H125.867C124.096 29.8984 123.211 30.4167 123.211 31.4531C123.211 31.9062 123.362 32.2604 123.664 32.5156C123.966 32.7708 124.354 32.8984 124.828 32.8984ZM132.289 25.5469V32.8203H135.383V25.5469H136.828V32.8203H139.914V25.5469H141.367V34H130.836V25.5469H132.289ZM147.156 34.1562C146.01 34.1562 145.078 33.7812 144.359 33.0312C143.641 32.276 143.281 31.2682 143.281 30.0078V29.7422C143.281 28.9036 143.44 28.1562 143.758 27.5C144.081 26.8385 144.529 26.3229 145.102 25.9531C145.68 25.5781 146.305 25.3906 146.977 25.3906C148.076 25.3906 148.93 25.7526 149.539 26.4766C150.148 27.2005 150.453 28.237 150.453 29.5859V30.1875H144.727C144.747 31.0208 144.99 31.6953 145.453 32.2109C145.922 32.7214 146.516 32.9766 147.234 32.9766C147.745 32.9766 148.177 32.8724 148.531 32.6641C148.885 32.4557 149.195 32.1797 149.461 31.8359L150.344 32.5234C149.635 33.612 148.573 34.1562 147.156 34.1562ZM146.977 26.5781C146.393 26.5781 145.904 26.7917 145.508 27.2188C145.112 27.6406 144.867 28.2344 144.773 29H149.008V28.8906C148.966 28.1562 148.768 27.5885 148.414 27.1875C148.06 26.7812 147.581 26.5781 146.977 26.5781ZM44.1094 48.9297C44.1094 47.5182 44.3828 46.4089 44.9297 45.6016C45.4766 44.7943 46.2266 44.3906 47.1797 44.3906C47.6224 44.3906 48.0104 44.4661 48.3438 44.6172V41H49.7891V44.6641C50.1536 44.4818 50.5807 44.3906 51.0703 44.3906C52.0286 44.3906 52.7812 44.7943 53.3281 45.6016C53.875 46.4089 54.1484 47.5729 54.1484 49.0938C54.1484 50.3385 53.875 51.3281 53.3281 52.0625C52.7865 52.7969 52.0391 53.1641 51.0859 53.1641C50.5807 53.1641 50.1484 53.0807 49.7891 52.9141V56.25H48.3438V52.9375C48 53.0885 47.6068 53.1641 47.1641 53.1641C46.2161 53.1641 45.4688 52.7969 44.9219 52.0625C44.3802 51.3281 44.1094 50.3229 44.1094 49.0469V48.9297ZM52.7031 48.9297C52.7031 47.8672 52.5208 47.0443 52.1562 46.4609C51.7917 45.8724 51.2891 45.5781 50.6484 45.5781C50.3203 45.5781 50.0339 45.6302 49.7891 45.7344V51.8516C50.0234 51.9401 50.3151 51.9844 50.6641 51.9844C51.3099 51.9844 51.8099 51.7344 52.1641 51.2344C52.5234 50.7344 52.7031 49.9661 52.7031 48.9297ZM45.5547 49.0938C45.5547 50.0417 45.724 50.7604 46.0625 51.25C46.401 51.7396 46.888 51.9844 47.5234 51.9844C47.8255 51.9844 48.099 51.9375 48.3438 51.8438V45.7109C48.125 45.6224 47.8568 45.5781 47.5391 45.5781C46.9036 45.5781 46.4141 45.862 46.0703 46.4297C45.7266 46.9974 45.5547 47.8854 45.5547 49.0938ZM55.6484 48.6953C55.6484 47.8672 55.8099 47.1224 56.1328 46.4609C56.4609 45.7995 56.9141 45.2891 57.4922 44.9297C58.0755 44.5703 58.7396 44.3906 59.4844 44.3906C60.6354 44.3906 61.5651 44.7891 62.2734 45.5859C62.987 46.3828 63.3438 47.4427 63.3438 48.7656V48.8672C63.3438 49.6901 63.1849 50.4297 62.8672 51.0859C62.5547 51.737 62.1042 52.2448 61.5156 52.6094C60.9323 52.974 60.2604 53.1562 59.5 53.1562C58.3542 53.1562 57.4245 52.7578 56.7109 51.9609C56.0026 51.1641 55.6484 50.1094 55.6484 48.7969V48.6953ZM57.1016 48.8672C57.1016 49.8047 57.3177 50.5573 57.75 51.125C58.1875 51.6927 58.7708 51.9766 59.5 51.9766C60.2344 51.9766 60.8177 51.6901 61.25 51.1172C61.6823 50.5391 61.8984 49.7318 61.8984 48.6953C61.8984 47.7682 61.6771 47.0182 61.2344 46.4453C60.7969 45.8672 60.2135 45.5781 59.4844 45.5781C58.7708 45.5781 58.1953 45.862 57.7578 46.4297C57.3203 46.9974 57.1016 47.8099 57.1016 48.8672ZM71.2656 45.7188H68.4297V53H66.9844V45.7188H64.2031V44.5469H71.2656V45.7188ZM71.9609 48.6953C71.9609 47.8672 72.1224 47.1224 72.4453 46.4609C72.7734 45.7995 73.2266 45.2891 73.8047 44.9297C74.388 44.5703 75.0521 44.3906 75.7969 44.3906C76.9479 44.3906 77.8776 44.7891 78.5859 45.5859C79.2995 46.3828 79.6562 47.4427 79.6562 48.7656V48.8672C79.6562 49.6901 79.4974 50.4297 79.1797 51.0859C78.8672 51.737 78.4167 52.2448 77.8281 52.6094C77.2448 52.974 76.5729 53.1562 75.8125 53.1562C74.6667 53.1562 73.737 52.7578 73.0234 51.9609C72.3151 51.1641 71.9609 50.1094 71.9609 48.7969V48.6953ZM73.4141 48.8672C73.4141 49.8047 73.6302 50.5573 74.0625 51.125C74.5 51.6927 75.0833 51.9766 75.8125 51.9766C76.5469 51.9766 77.1302 51.6901 77.5625 51.1172C77.9948 50.5391 78.2109 49.7318 78.2109 48.6953C78.2109 47.7682 77.9896 47.0182 77.5469 46.4453C77.1094 45.8672 76.526 45.5781 75.7969 45.5781C75.0833 45.5781 74.5078 45.862 74.0703 46.4297C73.6328 46.9974 73.4141 47.8099 73.4141 48.8672ZM90.0859 46.8594C90.0859 46.4635 89.9349 46.151 89.6328 45.9219C89.3307 45.6875 88.9167 45.5703 88.3906 45.5703C87.8802 45.5703 87.4531 45.7031 87.1094 45.9688C86.7708 46.2344 86.6016 46.5469 86.6016 46.9062H85.1641C85.1641 46.1719 85.4714 45.5703 86.0859 45.1016C86.7005 44.6328 87.4688 44.3984 88.3906 44.3984C89.3802 44.3984 90.151 44.612 90.7031 45.0391C91.2552 45.4609 91.5312 46.0651 91.5312 46.8516C91.5312 47.2318 91.4167 47.5807 91.1875 47.8984C90.9583 48.2161 90.6328 48.4688 90.2109 48.6562C91.1953 48.9896 91.6875 49.6458 91.6875 50.625C91.6875 51.401 91.388 52.0156 90.7891 52.4688C90.1901 52.9219 89.3906 53.1484 88.3906 53.1484C87.4167 53.1484 86.612 52.9115 85.9766 52.4375C85.3464 51.9583 85.0312 51.3125 85.0312 50.5H86.4688C86.4688 50.9115 86.651 51.2656 87.0156 51.5625C87.3854 51.8542 87.8438 52 88.3906 52C88.9427 52 89.388 51.8724 89.7266 51.6172C90.0651 51.362 90.2344 51.0312 90.2344 50.625C90.2344 50.151 90.0911 49.8125 89.8047 49.6094C89.5234 49.401 89.0833 49.2969 88.4844 49.2969H87.0391V48.0781H88.6094C89.5938 48.0521 90.0859 47.6458 90.0859 46.8594ZM93.4922 51.8203L93.9922 51.2031C94.5547 50.474 94.875 49.3802 94.9531 47.9219L95.0859 44.5469H100.531V51.8203H101.617V55.4844H100.172V53H94.2734V55.4844H92.8281L92.8359 51.8203H93.4922ZM95.2031 51.8203H99.0859V45.8828H96.4844L96.3984 47.8984C96.3099 49.5807 95.9115 50.888 95.2031 51.8203ZM106.727 53.1562C105.581 53.1562 104.648 52.7812 103.93 52.0312C103.211 51.276 102.852 50.2682 102.852 49.0078V48.7422C102.852 47.9036 103.01 47.1562 103.328 46.5C103.651 45.8385 104.099 45.3229 104.672 44.9531C105.25 44.5781 105.875 44.3906 106.547 44.3906C107.646 44.3906 108.5 44.7526 109.109 45.4766C109.719 46.2005 110.023 47.237 110.023 48.5859V49.1875H104.297C104.318 50.0208 104.56 50.6953 105.023 51.2109C105.492 51.7214 106.086 51.9766 106.805 51.9766C107.315 51.9766 107.747 51.8724 108.102 51.6641C108.456 51.4557 108.766 51.1797 109.031 50.8359L109.914 51.5234C109.206 52.612 108.143 53.1562 106.727 53.1562ZM106.547 45.5781C105.964 45.5781 105.474 45.7917 105.078 46.2188C104.682 46.6406 104.438 47.2344 104.344 48H108.578V47.8906C108.536 47.1562 108.339 46.5885 107.984 46.1875C107.63 45.7812 107.151 45.5781 106.547 45.5781ZM115.094 51.9766C115.609 51.9766 116.06 51.8203 116.445 51.5078C116.831 51.1953 117.044 50.8047 117.086 50.3359H118.453C118.427 50.8203 118.26 51.2812 117.953 51.7188C117.646 52.1562 117.234 52.5052 116.719 52.7656C116.208 53.026 115.667 53.1562 115.094 53.1562C113.943 53.1562 113.026 52.7734 112.344 52.0078C111.667 51.237 111.328 50.1849 111.328 48.8516V48.6094C111.328 47.7865 111.479 47.0547 111.781 46.4141C112.083 45.7734 112.516 45.276 113.078 44.9219C113.646 44.5677 114.315 44.3906 115.086 44.3906C116.034 44.3906 116.82 44.6745 117.445 45.2422C118.076 45.8099 118.411 46.5469 118.453 47.4531H117.086C117.044 46.9062 116.836 46.4583 116.461 46.1094C116.091 45.7552 115.633 45.5781 115.086 45.5781C114.352 45.5781 113.781 45.8438 113.375 46.375C112.974 46.901 112.773 47.6641 112.773 48.6641V48.9375C112.773 49.9115 112.974 50.6615 113.375 51.1875C113.776 51.7135 114.349 51.9766 115.094 51.9766ZM121.656 47.4609H123.852C124.81 47.4714 125.568 47.7214 126.125 48.2109C126.682 48.7005 126.961 49.3646 126.961 50.2031C126.961 51.0469 126.674 51.724 126.102 52.2344C125.529 52.7448 124.758 53 123.789 53H120.211V44.5469H121.656V47.4609ZM121.656 48.6406V51.8203H123.805C124.346 51.8203 124.766 51.6823 125.062 51.4062C125.359 51.125 125.508 50.7422 125.508 50.2578C125.508 49.7891 125.362 49.4062 125.07 49.1094C124.784 48.8073 124.38 48.651 123.859 48.6406H121.656Z" fill="white"/>
</g>
<defs>
<clipPath id="clip0">
<rect width="165" height="156" fill="white"/>
</clipPath>
</defs>
</svg>
