<svg width="70" height="92" viewBox="0 0 70 92" fill="none" xmlns="http://www.w3.org/2000/svg">
<path d="M24.0359 5.03758C26.9662 2.14563 30.9264 0.515143 35.0595 0.500012L35.3583 0.504021C39.4687 0.627638 43.3661 2.34537 46.2149 5.28789C49.0645 8.23126 50.6381 12.1656 50.5992 16.2467C50.5603 20.3278 48.9119 24.2319 46.0065 27.1211C43.1017 30.0099 39.1717 31.6541 35.0592 31.7H34.7603C30.6288 31.6068 26.701 29.9022 23.8267 26.956C20.9512 24.0086 19.3615 20.056 19.4006 15.9542C19.4397 11.8525 21.1046 7.93039 24.0359 5.03758Z" stroke="white"/>
<path d="M58.4172 41.6114C52.0858 39.1189 43.8028 37.7389 35.0826 37.7271L35.1338 38.7153L35.031 37.727C35.0308 37.727 35.0306 37.727 35.0304 37.727V38.7207C35.0101 38.7207 34.9899 38.7207 34.9696 38.7207V38.727L34.9693 38.7207C26.3195 38.7271 18.1466 40.0928 11.9495 42.5354L11.9493 42.5355C5.32927 45.1437 1.90453 48.606 1.53629 52.0282L1.53397 52.0498L1.53071 52.0713C1.51072 52.203 1.50048 52.3356 1.5 52.4682V88.1479C1.5 89.7013 2.79654 91.0007 4.43011 91.0007H7.3958C8.62359 91.0007 9.70008 89.9528 9.70008 88.4216V75.2001V75.1999V75.1998V75.1997V75.1996V75.1995V75.1994V75.1993V75.1992V75.199V75.1989V75.1988V75.1987V75.1986V75.1985V75.1984V75.1982V75.1981V75.198V75.1979V75.1978V75.1977V75.1976V75.1974V75.1973V75.1972V75.1971V75.197V75.1969V75.1968V75.1966V75.1965V75.1964V75.1963V75.1962V75.1961V75.1959V75.1958V75.1957V75.1956V75.1955V75.1953V75.1952V75.1951V75.195V75.1949V75.1948V75.1946V75.1945V75.1944V75.1943V75.1942V75.194V75.1939V75.1938V75.1937V75.1936V75.1934V75.1933V75.1932V75.1931V75.193V75.1928V75.1927V75.1926V75.1925V75.1923V75.1922V75.1921V75.192V75.1919V75.1917V75.1916V75.1915V75.1914V75.1912V75.1911V75.191V75.1909V75.1907V75.1906V75.1905V75.1904V75.1903V75.1901V75.19V75.1899V75.1898V75.1896V75.1895V75.1894V75.1893V75.1891V75.189V75.1889V75.1888V75.1886V75.1885V75.1884V75.1883V75.1881V75.188V75.1879V75.1877V75.1876V75.1875V75.1874V75.1872V75.1871V75.187V75.1869V75.1867V75.1866V75.1865V75.1863V75.1862V75.1861V75.186V75.1858V75.1857V75.1856V75.1855V75.1853V75.1852V75.1851V75.1849V75.1848V75.1847V75.1846V75.1844V75.1843V75.1842V75.184V75.1839V75.1838V75.1837V75.1835V75.1834V75.1833V75.1831V75.183V75.1829V75.1827V75.1826V75.1825V75.1824V75.1822V75.1821V75.182V75.1818V75.1817V75.1816V75.1814V75.1813V75.1812V75.181V75.1809V75.1808V75.1807V75.1805V75.1804V75.1803V75.1801V75.18V75.1799V75.1797V75.1796V75.1795V75.1793V75.1792V75.1791V75.179V75.1788V75.1787V75.1786V75.1784V75.1783V75.1782V75.178V75.1779V75.1778V75.1776V75.1775V75.1774V75.1772V75.1771V75.177V75.1768V75.1767V75.1766V75.1764V75.1763V75.1762V75.176V75.1759V75.1758V75.1757V75.1755V75.1754V75.1753V75.1751V75.175V75.1749V75.1747V75.1746V75.1745V75.1743V75.1742V75.1741V75.1739V75.1738V75.1737V75.1735V75.1734V75.1733V75.1731V75.173V75.1729V75.1727V75.1726V75.1725V75.1723V75.1722V75.1721V75.1719V75.1718V75.1717V75.1715V75.1714V75.1713V75.1711V75.171V75.1709V75.1707V75.1706V75.1705V75.1703V75.1702V75.1701V75.1699V75.1698V75.1697V75.1695V75.1694V75.1693V75.1691V75.169V75.1689V75.1687V75.1686V75.1685V75.1683V75.1682V75.1681V75.1679V75.1678V75.1677V75.1675V75.1674V75.1673V75.1672V75.167V75.1669V75.1668V75.1666V75.1665V75.1664V75.1662V75.1661V75.166V75.1658V75.1657V75.1656V75.1654V75.1653V75.1652V75.165V75.1649V75.1648V75.1646V75.1645V75.1644V75.1642V75.1641V75.164V75.1638V75.1637V75.1636V75.1635V75.1633V75.1632V75.1631V75.1629V75.1628V75.1627V75.1625V75.1624V75.1623V75.1621V75.162V75.1619V75.1618V75.1616V75.1615V75.1614V75.1612V75.1611V75.161V75.1608V75.1607V75.1606V75.1604V75.1603V75.1602V75.1601V75.1599V75.1598V75.1597V75.1595V75.1594V75.1593V75.1592V75.159V75.1589V75.1588V75.1586V75.1585V75.1584V75.1582V75.1581V75.158V75.1579V75.1577V75.1576V75.1575V75.1573V75.1572V75.1571V75.157V75.1568V75.1567V75.1566V75.1565V75.1563V75.1562V75.1561V75.1559V75.1558V75.1557V75.1556V75.1554V75.1553V75.1552V75.1551V75.1549V75.1548V75.1547V75.1546V75.1544V75.1543V75.1542V75.1541V75.1539V75.1538V75.1537V75.1536V75.1534V75.1533V75.1532V75.1531V75.1529V75.1528V75.1527V75.1526V75.1524V75.1523V75.1522V75.1521V75.1519V75.1518V75.1517V75.1516V75.1514V75.1513V75.1512V75.1511V75.151V75.1508V75.1507V75.1506V75.1505V75.1503V75.1502V75.1501V75.15V75.1499V75.1497V75.1496V75.1495V75.1494V75.1493V75.1491V75.149V75.1489V75.1488V75.1487V75.1485V75.1484V75.1483V75.1482V75.1481V75.1479V75.1478V75.1477V75.1476V75.1475V75.1474V75.1472V75.1471V75.147V75.1469V75.1468V75.1466V75.1465V75.1464V75.1463V75.1462V75.1461V75.1459V75.1458V75.1457V75.1456V75.1455V75.1454V75.1453V75.1451V75.145V75.1449V75.1448V75.1447V75.1446V75.1445V75.1443V75.1442V75.1441V75.144V75.1439V75.1438V75.1437V75.1436V75.1434V75.1433V75.1432V75.1431V75.143V75.1429V75.1428V75.1427V75.1425V75.1424V75.1423V75.1422V75.1421V75.142V75.1419V75.1418V75.1417V75.1416V75.1415V75.1413V75.1412V75.1411V75.141V75.1409V75.1408V75.1407V75.1406V75.1405V75.1404V75.1403V75.1402V75.1401V75.14V75.1399V75.1397V75.1396V75.1395V75.1394V75.1393V75.1392V75.1391V75.139V75.1389V75.1388V75.1387V75.1386V75.1385V75.1384V75.1383V75.1382V75.1381V75.138V75.1379V75.1378V75.1377V75.1376V75.1375V75.1374V75.1373V75.1372V75.1371V75.137V75.1369V75.0948L9.70362 75.0528C9.77183 74.2448 10.2045 73.5319 10.777 72.9483C11.3548 72.3594 12.135 71.8382 13.0484 71.3995L13.0495 71.399C15.2144 70.3626 18.0258 69.8273 20.9539 69.8273C23.8836 69.8273 26.7031 70.3716 28.8568 71.3983L28.8584 71.3991C29.7725 71.8369 30.553 72.3584 31.1309 72.9477C31.7035 73.5317 32.1359 74.245 32.2041 75.0528L32.2077 75.0948V75.1369V75.137V75.1371V75.1372V75.1374V75.1375V75.1376V75.1377V75.1378V75.1379V75.138V75.1382V75.1383V75.1384V75.1385V75.1386V75.1387V75.1388V75.139V75.1391V75.1392V75.1393V75.1394V75.1395V75.1396V75.1398V75.1399V75.14V75.1401V75.1402V75.1403V75.1405V75.1406V75.1407V75.1408V75.1409V75.141V75.1411V75.1413V75.1414V75.1415V75.1416V75.1417V75.1418V75.1419V75.1421V75.1422V75.1423V75.1424V75.1425V75.1426V75.1427V75.1429V75.143V75.1431V75.1432V75.1433V75.1434V75.1435V75.1437V75.1438V75.1439V75.144V75.1441V75.1442V75.1443V75.1445V75.1446V75.1447V75.1448V75.1449V75.145V75.1451V75.1453V75.1454V75.1455V75.1456V75.1457V75.1458V75.1459V75.146V75.1462V75.1463V75.1464V75.1465V75.1466V75.1467V75.1468V75.147V75.1471V75.1472V75.1473V75.1474V75.1475V75.1476V75.1478V75.1479V75.148V75.1481V75.1482V75.1483V75.1484V75.1486V75.1487V75.1488V75.1489V75.149V75.1491V75.1492V75.1493V75.1495V75.1496V75.1497V75.1498V75.1499V75.15V75.1501V75.1502V75.1504V75.1505V75.1506V75.1507V75.1508V75.1509V75.151V75.1512V75.1513V75.1514V75.1515V75.1516V75.1517V75.1518V75.1519V75.1521V75.1522V75.1523V75.1524V75.1525V75.1526V75.1527V75.1529V75.153V75.1531V75.1532V75.1533V75.1534V75.1535V75.1536V75.1538V75.1539V75.154V75.1541V75.1542V75.1543V75.1544V75.1545V75.1547V75.1548V75.1549V75.155V75.1551V75.1552V75.1553V75.1554V75.1556V75.1557V75.1558V75.1559V75.156V75.1561V75.1562V75.1563V75.1565V75.1566V75.1567V75.1568V75.1569V75.157V75.1571V75.1572V75.1574V75.1575V75.1576V75.1577V75.1578V75.1579V75.158V75.1581V75.1583V75.1584V75.1585V75.1586V75.1587V75.1588V75.1589V75.159V75.1591V75.1593V75.1594V75.1595V75.1596V75.1597V75.1598V75.1599V75.16V75.1602V75.1603V75.1604V75.1605V75.1606V75.1607V75.1608V75.1609V75.161V75.1612V75.1613V75.1614V75.1615V75.1616V75.1617V75.1618V75.1619V75.1621V75.1622V75.1623V75.1624V75.1625V75.1626V75.1627V75.1628V75.1629V75.1631V75.1632V75.1633V75.1634V75.1635V75.1636V75.1637V75.1638V75.1639V75.1641V75.1642V75.1643V75.1644V75.1645V75.1646V75.1647V75.1648V75.165V75.1651V75.1652V75.1653V75.1654V75.1655V75.1656V75.1657V75.1658V75.166V75.1661V75.1662V75.1663V75.1664V75.1665V75.1666V75.1667V75.1668V75.1669V75.1671V75.1672V75.1673V75.1674V75.1675V75.1676V75.1677V75.1678V75.1679V75.1681V75.1682V75.1683V75.1684V75.1685V75.1686V75.1687V75.1688V75.1689V75.1691V75.1692V75.1693V75.1694V75.1695V75.1696V75.1697V75.1698V75.1699V75.17V75.1702V75.1703V75.1704V75.1705V75.1706V75.1707V75.1708V75.1709V75.171V75.1712V75.1713V75.1714V75.1715V75.1716V75.1717V75.1718V75.1719V75.172V75.1721V75.1723V75.1724V75.1725V75.1726V75.1727V75.1728V75.1729V75.173V75.1731V75.1732V75.1734V75.1735V75.1736V75.1737V75.1738V75.1739V75.174V75.1741V75.1742V75.1743V75.1744V75.1746V75.1747V75.1748V75.1749V75.175V75.1751V75.1752V75.1753V75.1754V75.1755V75.1757V75.1758V75.1759V75.176V75.1761V75.1762V75.1763V75.1764V75.1765V75.1766V75.1768V75.1769V75.177V75.1771V75.1772V75.1773V75.1774V75.1775V75.1776V75.1777V75.1778V75.178V75.1781V75.1782V75.1783V75.1784V75.1785V75.1786V75.1787V75.1788V75.1789V75.179V75.1792V75.1793V75.1794V75.1795V75.1796V75.1797V75.1798V75.1799V75.18V75.1801V75.1802V75.1804V75.1805V75.1806V75.1807V75.1808V75.1809V75.181V75.1811V75.1812V75.1813V75.1814V75.1816V75.1817V75.1818V75.1819V75.182V75.1821V75.1822V75.1823V75.1824V75.1825V75.1826V75.1827V75.1829V75.183V75.1831V75.1832V75.1833V75.1834V75.1835V75.1836V75.1837V75.1838V75.1839V75.184V75.1842V75.1843V75.1844V75.1845V75.1846V75.1847V75.1848V75.1849V75.185V75.1851V75.1852V75.1853V75.1855V75.1856V75.1857V75.1858V75.1859V75.186V75.1861V75.1862V75.1863V75.1864V75.1865V75.1866V75.1868V75.1869V75.187V75.1871V75.1872V75.1873V75.1874V75.1875V75.1876V75.1877V75.1878V75.1879V75.188V75.1882V75.1883V75.1884V75.1885V75.1886V75.1887V75.1888V75.1889V75.189V75.1891V75.1892V75.1893V75.1894V75.1896V75.1897V75.1898V75.1899V75.19V75.1901V75.1902V75.1903V75.1904V75.1905V75.1906V75.1907V75.1908V75.191V75.1911V75.1912V75.1913V75.1914V75.1915V75.1916V75.1917V75.1918V75.1919V75.192V75.1921V75.1922V75.1923V75.1925V75.1926V75.1927V75.1928V75.1929V75.193V75.1931V75.1932V75.1933V75.1934V75.1935V75.1936V75.1937V88.4216C32.2077 89.9523 33.286 91.0007 34.5119 91.0007H35.4881C36.7158 91.0007 37.7923 89.9528 37.7923 88.4216V75.2001V75.1999V75.1998V75.1997V75.1996V75.1995V75.1994V75.1993V75.1992V75.199V75.1989V75.1988V75.1987V75.1986V75.1985V75.1984V75.1982V75.1981V75.198V75.1979V75.1978V75.1977V75.1976V75.1974V75.1973V75.1972V75.1971V75.197V75.1969V75.1968V75.1966V75.1965V75.1964V75.1963V75.1962V75.1961V75.1959V75.1958V75.1957V75.1956V75.1955V75.1953V75.1952V75.1951V75.195V75.1949V75.1948V75.1946V75.1945V75.1944V75.1943V75.1942V75.194V75.1939V75.1938V75.1937V75.1936V75.1934V75.1933V75.1932V75.1931V75.1929V75.1928V75.1927V75.1926V75.1925V75.1923V75.1922V75.1921V75.192V75.1918V75.1917V75.1916V75.1915V75.1914V75.1912V75.1911V75.191V75.1909V75.1907V75.1906V75.1905V75.1904V75.1902V75.1901V75.19V75.1899V75.1897V75.1896V75.1895V75.1894V75.1892V75.1891V75.189V75.1889V75.1887V75.1886V75.1885V75.1884V75.1882V75.1881V75.188V75.1879V75.1877V75.1876V75.1875V75.1873V75.1872V75.1871V75.187V75.1868V75.1867V75.1866V75.1865V75.1863V75.1862V75.1861V75.1859V75.1858V75.1857V75.1856V75.1854V75.1853V75.1852V75.185V75.1849V75.1848V75.1847V75.1845V75.1844V75.1843V75.1841V75.184V75.1839V75.1837V75.1836V75.1835V75.1834V75.1832V75.1831V75.183V75.1828V75.1827V75.1826V75.1824V75.1823V75.1822V75.182V75.1819V75.1818V75.1817V75.1815V75.1814V75.1813V75.1811V75.181V75.1809V75.1807V75.1806V75.1805V75.1803V75.1802V75.1801V75.1799V75.1798V75.1797V75.1795V75.1794V75.1793V75.1791V75.179V75.1789V75.1787V75.1786V75.1785V75.1783V75.1782V75.1781V75.1779V75.1778V75.1777V75.1775V75.1774V75.1773V75.1771V75.177V75.1769V75.1767V75.1766V75.1765V75.1763V75.1762V75.1761V75.1759V75.1758V75.1757V75.1755V75.1754V75.1753V75.1751V75.175V75.1749V75.1747V75.1746V75.1745V75.1743V75.1742V75.174V75.1739V75.1738V75.1736V75.1735V75.1734V75.1732V75.1731V75.173V75.1728V75.1727V75.1726V75.1724V75.1723V75.1722V75.172V75.1719V75.1718V75.1716V75.1715V75.1713V75.1712V75.1711V75.1709V75.1708V75.1707V75.1705V75.1704V75.1703V75.1701V75.17V75.1699V75.1697V75.1696V75.1695V75.1693V75.1692V75.169V75.1689V75.1688V75.1686V75.1685V75.1684V75.1682V75.1681V75.168V75.1678V75.1677V75.1676V75.1674V75.1673V75.1671V75.167V75.1669V75.1667V75.1666V75.1665V75.1663V75.1662V75.1661V75.1659V75.1658V75.1657V75.1655V75.1654V75.1652V75.1651V75.165V75.1648V75.1647V75.1646V75.1644V75.1643V75.1642V75.164V75.1639V75.1638V75.1636V75.1635V75.1633V75.1632V75.1631V75.1629V75.1628V75.1627V75.1625V75.1624V75.1623V75.1621V75.162V75.1619V75.1617V75.1616V75.1615V75.1613V75.1612V75.1611V75.1609V75.1608V75.1606V75.1605V75.1604V75.1602V75.1601V75.16V75.1598V75.1597V75.1596V75.1594V75.1593V75.1592V75.159V75.1589V75.1588V75.1586V75.1585V75.1584V75.1582V75.1581V75.158V75.1578V75.1577V75.1576V75.1574V75.1573V75.1572V75.157V75.1569V75.1568V75.1566V75.1565V75.1564V75.1562V75.1561V75.156V75.1558V75.1557V75.1556V75.1554V75.1553V75.1552V75.155V75.1549V75.1548V75.1546V75.1545V75.1544V75.1542V75.1541V75.154V75.1538V75.1537V75.1536V75.1534V75.1533V75.1532V75.153V75.1529V75.1528V75.1527V75.1525V75.1524V75.1523V75.1521V75.152V75.1519V75.1517V75.1516V75.1515V75.1514V75.1512V75.1511V75.151V75.1508V75.1507V75.1506V75.1504V75.1503V75.1502V75.1501V75.1499V75.1498V75.1497V75.1495V75.1494V75.1493V75.1492V75.149V75.1489V75.1488V75.1486V75.1485V75.1484V75.1483V75.1481V75.148V75.1479V75.1477V75.1476V75.1475V75.1474V75.1472V75.1471V75.147V75.1469V75.1467V75.1466V75.1465V75.1463V75.1462V75.1461V75.146V75.1458V75.1457V75.1456V75.1455V75.1453V75.1452V75.1451V75.145V75.1448V75.1447V75.1446V75.1445V75.1443V75.1442V75.1441V75.144V75.1438V75.1437V75.1436V75.1435V75.1434V75.1432V75.1431V75.143V75.1429V75.1427V75.1426V75.1425V75.1424V75.1423V75.1421V75.142V75.1419V75.1418V75.1416V75.1415V75.1414V75.1413V75.1412V75.141V75.1409V75.1408V75.1407V75.1406V75.1404V75.1403V75.1402V75.1401V75.14V75.1398V75.1397V75.1396V75.1395V75.1394V75.1393V75.1391V75.139V75.1389V75.1388V75.1387V75.1385V75.1384V75.1383V75.1382V75.1381V75.138V75.1379V75.1377V75.1376V75.1375V75.1374V75.1373V75.1372V75.137V75.1369V75.1368V75.1367V75.1366V75.1365V75.1364V75.1362V75.1361V75.136V75.1359V75.1358V75.1357V75.1356V75.1355V75.1353V75.1352V75.1351V75.135V75.1349V75.1348V75.0926L37.7959 75.0507C37.8641 74.2427 38.2967 73.5298 38.8693 72.9462C39.4471 72.3573 40.2272 71.836 41.1407 71.3974L41.1417 71.3969C43.3067 70.3605 46.1181 69.8251 49.0461 69.8251C51.9759 69.8251 54.7954 70.3695 56.9491 71.3962L56.9507 71.397C57.8648 71.8348 58.6452 72.3563 59.2232 72.9456C59.7958 73.5296 60.2282 74.2429 60.2964 75.0507L60.2999 75.0926V75.1348H59.2999V75.1916V88.4195C59.2999 90.4259 60.7524 91.9986 62.6042 91.9986H65.5699C67.7369 91.9986 69.5 90.2701 69.5 88.1458V52.4729C69.4994 52.2905 69.4854 52.1083 69.458 51.9276M58.4172 41.6114L58.0509 42.5419L58.0517 42.5422L58.4172 41.6114ZM58.4172 41.6114C65.1075 44.2389 69.026 47.9043 69.458 51.9276M69.458 51.9276L68.4637 52.0343L68.466 52.056L68.4693 52.0776L69.458 51.9276ZM60.2999 75.1915V75.1916V75.1915ZM60.2999 75.1915V75.1914M60.2999 75.1915V75.1914M60.2999 75.1914V75.1913M60.2999 75.1914V75.1913M60.2999 75.1913V75.1912M60.2999 75.1913V75.1912M60.2999 75.1912V75.1911M60.2999 75.1912V75.1911M60.2999 75.1911V75.191M60.2999 75.1911V75.191M60.2999 75.191V75.1909M60.2999 75.191V75.1909M60.2999 75.1909V75.1908M60.2999 75.1909V75.1908M60.2999 75.1908V75.1907M60.2999 75.1908V75.1907M60.2999 75.1907V75.1906M60.2999 75.1907V75.1906M60.2999 75.1906V75.1905M60.2999 75.1906V75.1905M60.2999 75.1905V75.1903M60.2999 75.1905V75.1903M60.2999 75.1903V75.1902M60.2999 75.1903V75.1902M60.2999 75.1902V75.1901M60.2999 75.1902V75.1901M60.2999 75.1901V75.19M60.2999 75.1901V75.19M60.2999 75.19V75.1899M60.2999 75.19V75.1899M60.2999 75.1899V75.1898M60.2999 75.1899V75.1898M60.2999 75.1898V75.1897M60.2999 75.1898V75.1897M60.2999 75.1897V75.1896M60.2999 75.1897V75.1896M60.2999 75.1896V75.1895M60.2999 75.1896V75.1895M60.2999 75.1895V75.1894M60.2999 75.1895V75.1894M60.2999 75.1894V75.1893M60.2999 75.1894V75.1893M60.2999 75.1893V75.1892M60.2999 75.1893V75.1892M60.2999 75.1892V75.1891M60.2999 75.1892V75.1891M60.2999 75.1891V75.189M60.2999 75.1891V75.189M60.2999 75.189V75.1888M60.2999 75.189V75.1888M60.2999 75.1888V75.1887M60.2999 75.1888V75.1887M60.2999 75.1887V75.1886M60.2999 75.1887V75.1886M60.2999 75.1886V75.1885M60.2999 75.1886V75.1885M60.2999 75.1885V75.1884M60.2999 75.1885V75.1884M60.2999 75.1884V75.1883M60.2999 75.1884V75.1883M60.2999 75.1883V75.1882M60.2999 75.1883V75.1882M60.2999 75.1882V75.1881M60.2999 75.1882V75.1881M60.2999 75.1881V75.188M60.2999 75.1881V75.188M60.2999 75.188V75.1879M60.2999 75.188V75.1879M60.2999 75.1879V75.1878M60.2999 75.1879V75.1878M60.2999 75.1878V75.1877M60.2999 75.1878V75.1877M60.2999 75.1877V75.1876M60.2999 75.1877V75.1876M60.2999 75.1876V75.1875M60.2999 75.1876V75.1875M60.2999 75.1875V75.1873M60.2999 75.1875V75.1873M60.2999 75.1873V75.1872M60.2999 75.1873V75.1872M60.2999 75.1872V75.1871M60.2999 75.1872V75.1871M60.2999 75.1871V75.187M60.2999 75.1871V75.187M60.2999 75.187V75.1869M60.2999 75.187V75.1869M60.2999 75.1869V75.1868M60.2999 75.1869V75.1868M60.2999 75.1868V75.1867M60.2999 75.1868V75.1867M60.2999 75.1867V75.1866M60.2999 75.1867V75.1866M60.2999 75.1866V75.1865M60.2999 75.1866V75.1865M60.2999 75.1865V75.1864M60.2999 75.1865V75.1864M60.2999 75.1864V75.1863M60.2999 75.1864V75.1863M60.2999 75.1863V75.1862M60.2999 75.1863V75.1862M60.2999 75.1862V75.1861M60.2999 75.1862V75.1861M60.2999 75.1861V75.1859M60.2999 75.1861V75.1859M60.2999 75.1859V75.1858M60.2999 75.1859V75.1858M60.2999 75.1858V75.1857M60.2999 75.1858V75.1857M60.2999 75.1857V75.1856M60.2999 75.1857V75.1856M60.2999 75.1856V75.1855M60.2999 75.1856V75.1855M60.2999 75.1855V75.1854M60.2999 75.1855V75.1854M60.2999 75.1854V75.1853M60.2999 75.1854V75.1853M60.2999 75.1853V75.1852M60.2999 75.1853V75.1852M60.2999 75.1852V75.1851M60.2999 75.1852V75.1851M60.2999 75.1851V75.185M60.2999 75.1851V75.185M60.2999 75.185V75.1849M60.2999 75.185V75.1849M60.2999 75.1849V75.1848M60.2999 75.1849V75.1848M60.2999 75.1848V75.1846M60.2999 75.1848V75.1846M60.2999 75.1846V75.1845M60.2999 75.1846V75.1845M60.2999 75.1845V75.1844M60.2999 75.1845V75.1844M60.2999 75.1844V75.1843M60.2999 75.1844V75.1843M60.2999 75.1843V75.1842M60.2999 75.1843V75.1842M60.2999 75.1842V75.1841M60.2999 75.1842V75.1841M60.2999 75.1841V75.184M60.2999 75.1841V75.184M60.2999 75.184V75.1839M60.2999 75.184V75.1839M60.2999 75.1839V75.1838M60.2999 75.1839V75.1838M60.2999 75.1838V75.1837M60.2999 75.1838V75.1837M60.2999 75.1837V75.1836M60.2999 75.1837V75.1836M60.2999 75.1836V75.1835M60.2999 75.1836V75.1835M60.2999 75.1835V75.1833M60.2999 75.1835V75.1833M60.2999 75.1833V75.1832M60.2999 75.1833V75.1832M60.2999 75.1832V75.1831M60.2999 75.1832V75.1831M60.2999 75.1831V75.183M60.2999 75.1831V75.183M60.2999 75.183V75.1829M60.2999 75.183V75.1829M60.2999 75.1829V75.1828M60.2999 75.1829V75.1828M60.2999 75.1828V75.1827M60.2999 75.1828V75.1827M60.2999 75.1827V75.1826M60.2999 75.1827V75.1826M60.2999 75.1826V75.1825M60.2999 75.1826V75.1825M60.2999 75.1825V75.1824M60.2999 75.1825V75.1824M60.2999 75.1824V75.1823M60.2999 75.1824V75.1823M60.2999 75.1823V75.1822M60.2999 75.1823V75.1822M60.2999 75.1822V75.1821M60.2999 75.1822V75.1821M60.2999 75.1821V75.1819M60.2999 75.1821V75.1819M60.2999 75.1819V75.1818M60.2999 75.1819V75.1818M60.2999 75.1818V75.1817M60.2999 75.1818V75.1817M60.2999 75.1817V75.1816M60.2999 75.1817V75.1816M60.2999 75.1816V75.1815M60.2999 75.1816V75.1815M60.2999 75.1815V75.1814M60.2999 75.1815V75.1814M60.2999 75.1814V75.1813M60.2999 75.1814V75.1813M60.2999 75.1813V75.1812M60.2999 75.1813V75.1812M60.2999 75.1812V75.1811M60.2999 75.1812V75.1811M60.2999 75.1811V75.181M60.2999 75.1811V75.181M60.2999 75.181V75.1809M60.2999 75.181V75.1809M60.2999 75.1809V75.1808M60.2999 75.1809V75.1808M60.2999 75.1808V75.1806M60.2999 75.1808V75.1806M60.2999 75.1806V75.1805M60.2999 75.1806V75.1805M60.2999 75.1805V75.1804M60.2999 75.1805V75.1804M60.2999 75.1804V75.1803M60.2999 75.1804V75.1803M60.2999 75.1803V75.1802M60.2999 75.1803V75.1802M60.2999 75.1802V75.1801M60.2999 75.1802V75.1801M60.2999 75.1801V75.18M60.2999 75.1801V75.18M60.2999 75.18V75.1799M60.2999 75.18V75.1799M60.2999 75.1799V75.1798M60.2999 75.1799V75.1798M60.2999 75.1798V75.1797M60.2999 75.1798V75.1797M60.2999 75.1797V75.1796M60.2999 75.1797V75.1796M60.2999 75.1796V75.1794M60.2999 75.1796V75.1794M60.2999 75.1794V75.1793M60.2999 75.1794V75.1793M60.2999 75.1793V75.1792M60.2999 75.1793V75.1792M60.2999 75.1792V75.1791M60.2999 75.1792V75.1791M60.2999 75.1791V75.179M60.2999 75.1791V75.179M60.2999 75.179V75.1789M60.2999 75.179V75.1789M60.2999 75.1789V75.1788M60.2999 75.1789V75.1788M60.2999 75.1788V75.1787M60.2999 75.1788V75.1787M60.2999 75.1787V75.1786M60.2999 75.1787V75.1786M60.2999 75.1786V75.1785M60.2999 75.1786V75.1785M60.2999 75.1785V75.1784M60.2999 75.1785V75.1784M60.2999 75.1784V75.1782M60.2999 75.1784V75.1782M60.2999 75.1782V75.1781M60.2999 75.1782V75.1781M60.2999 75.1781V75.178M60.2999 75.1781V75.178M60.2999 75.178V75.1779M60.2999 75.178V75.1779M60.2999 75.1779V75.1778M60.2999 75.1779V75.1778M60.2999 75.1778V75.1777M60.2999 75.1778V75.1777M60.2999 75.1777V75.1776M60.2999 75.1777V75.1776M60.2999 75.1776V75.1775M60.2999 75.1776V75.1775M60.2999 75.1775V75.1774M60.2999 75.1775V75.1774M60.2999 75.1774V75.1773M60.2999 75.1774V75.1773M60.2999 75.1773V75.1772M60.2999 75.1773V75.1772M60.2999 75.1772V75.1771M60.2999 75.1772V75.1771M60.2999 75.1771V75.1769M60.2999 75.1771V75.1769M60.2999 75.1769V75.1768M60.2999 75.1769V75.1768M60.2999 75.1768V75.1767M60.2999 75.1768V75.1767M60.2999 75.1767V75.1766M60.2999 75.1767V75.1766M60.2999 75.1766V75.1765M60.2999 75.1766V75.1765M60.2999 75.1765V75.1764M60.2999 75.1765V75.1764M60.2999 75.1764V75.1763M60.2999 75.1764V75.1763M60.2999 75.1763V75.1762M60.2999 75.1763V75.1762M60.2999 75.1762V75.1761M60.2999 75.1762V75.1761M60.2999 75.1761V75.176M60.2999 75.1761V75.176M60.2999 75.176V75.1758M60.2999 75.176V75.1758M60.2999 75.1758V75.1757M60.2999 75.1758V75.1757M60.2999 75.1757V75.1756M60.2999 75.1757V75.1756M60.2999 75.1756V75.1755M60.2999 75.1756V75.1755M60.2999 75.1755V75.1754M60.2999 75.1755V75.1754M60.2999 75.1754V75.1753M60.2999 75.1754V75.1753M60.2999 75.1753V75.1752M60.2999 75.1753V75.1752M60.2999 75.1752V75.1751M60.2999 75.1752V75.1751M60.2999 75.1751V75.175M60.2999 75.1751V75.175M60.2999 75.175V75.1749M60.2999 75.175V75.1749M60.2999 75.1749V75.1748M60.2999 75.1749V75.1748M60.2999 75.1748V75.1746M60.2999 75.1748V75.1746M60.2999 75.1746V75.1745M60.2999 75.1746V75.1745M60.2999 75.1745V75.1744M60.2999 75.1745V75.1744M60.2999 75.1744V75.1743M60.2999 75.1744V75.1743M60.2999 75.1743V75.1742M60.2999 75.1743V75.1742M60.2999 75.1742V75.1741M60.2999 75.1742V75.1741M60.2999 75.1741V75.174M60.2999 75.1741V75.174M60.2999 75.174V75.1739M60.2999 75.174V75.1739M60.2999 75.1739V75.1738M60.2999 75.1739V75.1738M60.2999 75.1738V75.1737M60.2999 75.1738V75.1737M60.2999 75.1737V75.1736M60.2999 75.1737V75.1736M60.2999 75.1736V75.1734M60.2999 75.1736V75.1734M60.2999 75.1734V75.1733M60.2999 75.1734V75.1733M60.2999 75.1733V75.1732M60.2999 75.1733V75.1732M60.2999 75.1732V75.1731M60.2999 75.1732V75.1731M60.2999 75.1731V75.173M60.2999 75.1731V75.173M60.2999 75.173V75.1729M60.2999 75.173V75.1729M60.2999 75.1729V75.1728M60.2999 75.1729V75.1728M60.2999 75.1728V75.1727M60.2999 75.1728V75.1727M60.2999 75.1727V75.1726M60.2999 75.1727V75.1726M60.2999 75.1726V75.1725M60.2999 75.1726V75.1725M60.2999 75.1725V75.1723M60.2999 75.1725V75.1723M60.2999 75.1723V75.1722M60.2999 75.1723V75.1722M60.2999 75.1722V75.1721M60.2999 75.1722V75.1721M60.2999 75.1721V75.172M60.2999 75.1721V75.172M60.2999 75.172V75.1719M60.2999 75.172V75.1719M60.2999 75.1719V75.1718M60.2999 75.1719V75.1718M60.2999 75.1718V75.1717M60.2999 75.1718V75.1717M60.2999 75.1717V75.1716M60.2999 75.1717V75.1716M60.2999 75.1716V75.1715M60.2999 75.1716V75.1715M60.2999 75.1715V75.1714M60.2999 75.1715V75.1714M60.2999 75.1714V75.1712M60.2999 75.1714V75.1712M60.2999 75.1712V75.1711M60.2999 75.1712V75.1711M60.2999 75.1711V75.171M60.2999 75.1711V75.171M60.2999 75.171V75.1709M60.2999 75.171V75.1709M60.2999 75.1709V75.1708M60.2999 75.1709V75.1708M60.2999 75.1708V75.1707M60.2999 75.1708V75.1707M60.2999 75.1707V75.1706M60.2999 75.1707V75.1706M60.2999 75.1706V75.1705M60.2999 75.1706V75.1705M60.2999 75.1705V75.1704M60.2999 75.1705V75.1704M60.2999 75.1704V75.1703M60.2999 75.1704V75.1703M60.2999 75.1703V75.1701M60.2999 75.1703V75.1701M60.2999 75.1701V75.17M60.2999 75.1701V75.17M60.2999 75.17V75.1699M60.2999 75.17V75.1699M60.2999 75.1699V75.1698M60.2999 75.1699V75.1698M60.2999 75.1698V75.1697M60.2999 75.1698V75.1697M60.2999 75.1697V75.1696M60.2999 75.1697V75.1696M60.2999 75.1696V75.1695M60.2999 75.1696V75.1695M60.2999 75.1695V75.1694M60.2999 75.1695V75.1694M60.2999 75.1694V75.1693M60.2999 75.1694V75.1693M60.2999 75.1693V75.1692M60.2999 75.1693V75.1692M60.2999 75.1692V75.169M60.2999 75.1692V75.169M60.2999 75.169V75.1689M60.2999 75.169V75.1689M60.2999 75.1689V75.1688M60.2999 75.1689V75.1688M60.2999 75.1688V75.1687M60.2999 75.1688V75.1687M60.2999 75.1687V75.1686M60.2999 75.1687V75.1686M60.2999 75.1686V75.1685M60.2999 75.1686V75.1685M60.2999 75.1685V75.1684M60.2999 75.1685V75.1684M60.2999 75.1684V75.1683M60.2999 75.1684V75.1683M60.2999 75.1683V75.1682M60.2999 75.1683V75.1682M60.2999 75.1682V75.1681M60.2999 75.1682V75.1681M60.2999 75.1681V75.1679M60.2999 75.1681V75.1679M60.2999 75.1679V75.1678M60.2999 75.1679V75.1678M60.2999 75.1678V75.1677M60.2999 75.1678V75.1677M60.2999 75.1677V75.1676M60.2999 75.1677V75.1676M60.2999 75.1676V75.1675M60.2999 75.1676V75.1675M60.2999 75.1675V75.1674M60.2999 75.1675V75.1674M60.2999 75.1674V75.1673M60.2999 75.1674V75.1673M60.2999 75.1673V75.1672M60.2999 75.1673V75.1672M60.2999 75.1672V75.1671M60.2999 75.1672V75.1671M60.2999 75.1671V75.1669M60.2999 75.1671V75.1669M60.2999 75.1669V75.1668M60.2999 75.1669V75.1668M60.2999 75.1668V75.1667M60.2999 75.1668V75.1667M60.2999 75.1667V75.1666M60.2999 75.1667V75.1666M60.2999 75.1666V75.1665M60.2999 75.1666V75.1665M60.2999 75.1665V75.1664M60.2999 75.1665V75.1664M60.2999 75.1664V75.1663M60.2999 75.1664V75.1663M60.2999 75.1663V75.1662M60.2999 75.1663V75.1662M60.2999 75.1662V75.1661M60.2999 75.1662V75.1661M60.2999 75.1661V75.166M60.2999 75.1661V75.166M60.2999 75.166V75.1658M60.2999 75.166V75.1658M60.2999 75.1658V75.1657M60.2999 75.1658V75.1657M60.2999 75.1657V75.1656M60.2999 75.1657V75.1656M60.2999 75.1656V75.1655M60.2999 75.1656V75.1655M60.2999 75.1655V75.1654M60.2999 75.1655V75.1654M60.2999 75.1654V75.1653M60.2999 75.1654V75.1653M60.2999 75.1653V75.1652M60.2999 75.1653V75.1652M60.2999 75.1652V75.1651M60.2999 75.1652V75.1651M60.2999 75.1651V75.165M60.2999 75.1651V75.165M60.2999 75.165V75.1648M60.2999 75.165V75.1648M60.2999 75.1648V75.1647M60.2999 75.1648V75.1647M60.2999 75.1647V75.1646M60.2999 75.1647V75.1646M60.2999 75.1646V75.1645M60.2999 75.1646V75.1645M60.2999 75.1645V75.1644M60.2999 75.1645V75.1644M60.2999 75.1644V75.1643M60.2999 75.1644V75.1643M60.2999 75.1643V75.1642M60.2999 75.1643V75.1642M60.2999 75.1642V75.1641M60.2999 75.1642V75.1641M60.2999 75.1641V75.164M60.2999 75.1641V75.164M60.2999 75.164V75.1638M60.2999 75.164V75.1638M60.2999 75.1638V75.1637M60.2999 75.1638V75.1637M60.2999 75.1637V75.1636M60.2999 75.1637V75.1636M60.2999 75.1636V75.1635M60.2999 75.1636V75.1635M60.2999 75.1635V75.1634M60.2999 75.1635V75.1634M60.2999 75.1634V75.1633M60.2999 75.1634V75.1633M60.2999 75.1633V75.1632M60.2999 75.1633V75.1632M60.2999 75.1632V75.1631M60.2999 75.1632V75.1631M60.2999 75.1631V75.163M60.2999 75.1631V75.163M60.2999 75.163V75.1628M60.2999 75.163V75.1628M60.2999 75.1628V75.1627M60.2999 75.1628V75.1627M60.2999 75.1627V75.1626M60.2999 75.1627V75.1626M60.2999 75.1626V75.1625M60.2999 75.1626V75.1625M60.2999 75.1625V75.1624M60.2999 75.1625V75.1624M60.2999 75.1624V75.1623M60.2999 75.1624V75.1623M60.2999 75.1623V75.1622M60.2999 75.1623V75.1622M60.2999 75.1622V75.1621M60.2999 75.1622V75.1621M60.2999 75.1621V75.162M60.2999 75.1621V75.162M60.2999 75.162V75.1618M60.2999 75.162V75.1618M60.2999 75.1618V75.1617M60.2999 75.1618V75.1617M60.2999 75.1617V75.1616M60.2999 75.1617V75.1616M60.2999 75.1616V75.1615M60.2999 75.1616V75.1615M60.2999 75.1615V75.1614M60.2999 75.1615V75.1614M60.2999 75.1614V75.1613M60.2999 75.1614V75.1613M60.2999 75.1613V75.1612M60.2999 75.1613V75.1612M60.2999 75.1612V75.1611M60.2999 75.1612V75.1611M60.2999 75.1611V75.161M60.2999 75.1611V75.161M60.2999 75.161V75.1608M60.2999 75.161V75.1608M60.2999 75.1608V75.1607M60.2999 75.1608V75.1607M60.2999 75.1607V75.1606M60.2999 75.1607V75.1606M60.2999 75.1606V75.1605M60.2999 75.1606V75.1605M60.2999 75.1605V75.1604M60.2999 75.1605V75.1604M60.2999 75.1604V75.1603M60.2999 75.1604V75.1603M60.2999 75.1603V75.1602M60.2999 75.1603V75.1602M60.2999 75.1602V75.1601M60.2999 75.1602V75.1601M60.2999 75.1601V75.16M60.2999 75.1601V75.16M60.2999 75.16V75.1598M60.2999 75.16V75.1598M60.2999 75.1598V75.1597M60.2999 75.1598V75.1597M60.2999 75.1597V75.1596M60.2999 75.1597V75.1596M60.2999 75.1596V75.1595M60.2999 75.1596V75.1595M60.2999 75.1595V75.1594M60.2999 75.1595V75.1594M60.2999 75.1594V75.1593M60.2999 75.1594V75.1593M60.2999 75.1593V75.1592M60.2999 75.1593V75.1592M60.2999 75.1592V75.1591M60.2999 75.1592V75.1591M60.2999 75.1591V75.1589M60.2999 75.1591V75.1589M60.2999 75.1589V75.1588M60.2999 75.1589V75.1588M60.2999 75.1588V75.1587M60.2999 75.1588V75.1587M60.2999 75.1587V75.1586M60.2999 75.1587V75.1586M60.2999 75.1586V75.1585M60.2999 75.1586V75.1585M60.2999 75.1585V75.1584M60.2999 75.1585V75.1584M60.2999 75.1584V75.1583M60.2999 75.1584V75.1583M60.2999 75.1583V75.1582M60.2999 75.1583V75.1582M60.2999 75.1582V75.1581M60.2999 75.1582V75.1581M60.2999 75.1581V75.1579M60.2999 75.1581V75.1579M60.2999 75.1579V75.1578M60.2999 75.1579V75.1578M60.2999 75.1578V75.1577M60.2999 75.1578V75.1577M60.2999 75.1577V75.1576M60.2999 75.1577V75.1576M60.2999 75.1576V75.1575M60.2999 75.1576V75.1575M60.2999 75.1575V75.1574M60.2999 75.1575V75.1574M60.2999 75.1574V75.1573M60.2999 75.1574V75.1573M60.2999 75.1573V75.1572M60.2999 75.1573V75.1572M60.2999 75.1572V75.157M60.2999 75.1572V75.157M60.2999 75.157V75.1569M60.2999 75.157V75.1569M60.2999 75.1569V75.1568M60.2999 75.1569V75.1568M60.2999 75.1568V75.1567M60.2999 75.1568V75.1567M60.2999 75.1567V75.1566M60.2999 75.1567V75.1566M60.2999 75.1566V75.1565M60.2999 75.1566V75.1565M60.2999 75.1565V75.1564M60.2999 75.1565V75.1564M60.2999 75.1564V75.1563M60.2999 75.1564V75.1563M60.2999 75.1563V75.1561M60.2999 75.1563V75.1561M60.2999 75.1561V75.156M60.2999 75.1561V75.156M60.2999 75.156V75.1559M60.2999 75.156V75.1559M60.2999 75.1559V75.1558M60.2999 75.1559V75.1558M60.2999 75.1558V75.1557M60.2999 75.1558V75.1557M60.2999 75.1557V75.1556M60.2999 75.1557V75.1556M60.2999 75.1556V75.1555M60.2999 75.1556V75.1555M60.2999 75.1555V75.1554M60.2999 75.1555V75.1554M60.2999 75.1554V75.1553M60.2999 75.1554V75.1553M60.2999 75.1553V75.1551M60.2999 75.1553V75.1551M60.2999 75.1551V75.155M60.2999 75.1551V75.155M60.2999 75.155V75.1549M60.2999 75.155V75.1549M60.2999 75.1549V75.1548M60.2999 75.1549V75.1548M60.2999 75.1548V75.1547M60.2999 75.1548V75.1547M60.2999 75.1547V75.1546M60.2999 75.1547V75.1546M60.2999 75.1546V75.1545M60.2999 75.1546V75.1545M60.2999 75.1545V75.1544M60.2999 75.1545V75.1544M60.2999 75.1544V75.1542M60.2999 75.1544V75.1542M60.2999 75.1542V75.1541M60.2999 75.1542V75.1541M60.2999 75.1541V75.154M60.2999 75.1541V75.154M60.2999 75.154V75.1539M60.2999 75.154V75.1539M60.2999 75.1539V75.1538M60.2999 75.1539V75.1538M60.2999 75.1538V75.1537M60.2999 75.1538V75.1537M60.2999 75.1537V75.1536M60.2999 75.1537V75.1536M60.2999 75.1536V75.1535M60.2999 75.1536V75.1535M60.2999 75.1535V75.1533M60.2999 75.1535V75.1533M60.2999 75.1533V75.1532M60.2999 75.1533V75.1532M60.2999 75.1532V75.1531M60.2999 75.1532V75.1531M60.2999 75.1531V75.153M60.2999 75.1531V75.153M60.2999 75.153V75.1529M60.2999 75.153V75.1529M60.2999 75.1529V75.1528M60.2999 75.1529V75.1528M60.2999 75.1528V75.1527M60.2999 75.1528V75.1527M60.2999 75.1527V75.1525M60.2999 75.1527V75.1525M60.2999 75.1525V75.1524M60.2999 75.1525V75.1524M60.2999 75.1524V75.1523M60.2999 75.1524V75.1523M60.2999 75.1523V75.1522M60.2999 75.1523V75.1522M60.2999 75.1522V75.1521V75.1522Z" stroke="white" stroke-width="2"/>
<mask id="path-3-inside-1" fill="white">
<path d="M21.1778 54.0327H21.2786C22.6948 54.046 24.0477 54.618 25.0396 55.6228C26.0316 56.6276 26.5813 57.9829 26.568 59.3907C26.5546 60.7984 25.9792 62.1432 24.9684 63.1292C23.9575 64.1153 22.594 64.6617 21.1778 64.6485H21.0771C19.6609 64.6352 18.308 64.0632 17.316 63.0584C16.3241 62.0536 15.7743 60.6983 15.7877 59.2905C15.8011 57.8828 16.3764 56.538 17.3873 55.552C18.3981 54.5659 19.7616 54.0194 21.1778 54.0327ZM21.1778 52.4395C19.3553 52.4506 17.6102 53.1737 16.3193 54.4527C15.0284 55.7317 14.2953 57.4639 14.2781 59.2756C14.261 61.0872 14.9612 62.8329 16.2277 64.1358C17.4942 65.4387 19.2253 66.1943 21.0473 66.2395H21.1778C23.0004 66.2283 24.7455 65.5052 26.0364 64.2262C27.3273 62.9473 28.0604 61.215 28.0775 59.4033C28.0947 57.5917 27.3944 55.846 26.128 54.5431C24.8615 53.2402 23.1304 52.4846 21.3084 52.4395H21.1778Z"/>
</mask>
<path d="M21.2786 54.0327L21.2973 52.0328L21.288 52.0327H21.2786V54.0327ZM21.1778 64.6485L21.1966 62.6485L21.1872 62.6485H21.1778V64.6485ZM21.0771 64.6485L21.0583 66.6484L21.0677 66.6485H21.0771V64.6485ZM21.1778 52.4395V50.4394L21.1656 50.4395L21.1778 52.4395ZM21.0473 66.2395L20.9977 68.2388L21.0225 68.2395H21.0473V66.2395ZM21.1778 66.2395V68.2395L21.19 68.2394L21.1778 66.2395ZM21.3084 52.4395L21.3579 50.4401L21.3331 50.4395H21.3084V52.4395ZM21.1778 56.0327H21.2786V52.0327H21.1778V56.0327ZM21.2598 56.0326C22.1495 56.041 22.9969 56.4004 23.6163 57.0279L26.4629 54.2177C25.0985 52.8356 23.2401 52.051 21.2973 52.0328L21.2598 56.0326ZM23.6163 57.0279C24.2354 57.6549 24.5764 58.4982 24.5681 59.3717L28.5679 59.4096C28.5863 57.4676 27.8277 55.6002 26.4629 54.2177L23.6163 57.0279ZM24.5681 59.3717C24.5598 60.2451 24.2028 61.082 23.5718 61.6975L26.3649 64.5609C27.7556 63.2044 28.5495 61.3517 28.5679 59.4096L24.5681 59.3717ZM23.5718 61.6975C22.9404 62.3135 22.0862 62.6569 21.1966 62.6485L21.1591 66.6484C23.1018 66.6666 24.9746 65.9171 26.3649 64.5609L23.5718 61.6975ZM21.1778 62.6485H21.0771V66.6485H21.1778V62.6485ZM21.0958 62.6485C20.2062 62.6402 19.3588 62.2808 18.7393 61.6533L15.8928 64.4635C17.2572 65.8456 19.1156 66.6302 21.0583 66.6484L21.0958 62.6485ZM18.7393 61.6533C18.1203 61.0262 17.7793 60.1829 17.7876 59.3095L13.7878 59.2715C13.7693 61.2136 14.5279 63.081 15.8928 64.4635L18.7393 61.6533ZM17.7876 59.3095C17.7959 58.436 18.1528 57.5991 18.7838 56.9836L15.9908 54.1203C14.6001 55.4768 13.8062 57.3295 13.7878 59.2715L17.7876 59.3095ZM18.7838 56.9836C19.4152 56.3677 20.2694 56.0243 21.1591 56.0326L21.1966 52.0328C19.2538 52.0146 17.381 52.7641 15.9908 54.1203L18.7838 56.9836ZM21.1656 50.4395C18.8218 50.4538 16.5753 51.3836 14.9116 53.0319L17.7269 55.8734C18.6451 54.9637 19.8887 54.4474 21.19 54.4394L21.1656 50.4395ZM14.9116 53.0319C13.2476 54.6806 12.3004 56.9162 12.2782 59.2567L16.278 59.2945C16.2902 58.0117 16.8092 56.7827 17.7269 55.8734L14.9116 53.0319ZM12.2782 59.2567C12.2561 61.5972 13.1609 63.8502 14.7936 65.5298L17.6618 62.7418C16.7616 61.8157 16.2659 60.5773 16.278 59.2945L12.2782 59.2567ZM14.7936 65.5298C16.4259 67.2091 18.6546 68.1807 20.9977 68.2388L21.0969 64.2401C19.796 64.2078 18.5624 63.6683 17.6618 62.7418L14.7936 65.5298ZM21.0473 68.2395H21.1778V64.2395H21.0473V68.2395ZM21.19 68.2394C23.5339 68.2251 25.7804 67.2953 27.444 65.647L24.6287 62.8055C23.7106 63.7152 22.467 64.2316 21.1656 64.2395L21.19 68.2394ZM27.444 65.647C29.1081 63.9983 30.0553 61.7627 30.0774 59.4222L26.0776 59.3844C26.0655 60.6672 25.5464 61.8962 24.6287 62.8055L27.444 65.647ZM30.0774 59.4222C30.0996 57.0817 29.1948 54.8287 27.5621 53.1491L24.6938 55.9371C25.5941 56.8632 26.0897 58.1016 26.0776 59.3844L30.0774 59.4222ZM27.5621 53.1491C25.9298 51.4698 23.7011 50.4982 21.3579 50.4401L21.2588 54.4388C22.5597 54.4711 23.7932 55.0106 24.6938 55.9371L27.5621 53.1491ZM21.3084 50.4395H21.1778V54.4395H21.3084V50.4395Z" fill="white" mask="url(#path-3-inside-1)"/>
<mask id="path-5-inside-2" fill="white">
<path d="M49.4547 54.0327H49.5554C50.9716 54.046 52.3245 54.618 53.3165 55.6228C54.3084 56.6276 54.8582 57.9829 54.8448 59.3907C54.8315 60.7984 54.2561 62.1432 53.2452 63.1292C52.2344 64.1153 50.8709 64.6617 49.4547 64.6485H49.3539C47.9377 64.6352 46.5849 64.0632 45.5929 63.0584C44.601 62.0536 44.0512 60.6983 44.0645 59.2905C44.0779 57.8828 44.6533 56.538 45.6641 55.552C46.675 54.5659 48.0385 54.0194 49.4547 54.0327ZM49.4547 52.4395C47.6321 52.4506 45.887 53.1737 44.5962 54.4527C43.3053 55.7317 42.5721 57.4639 42.555 59.2756C42.5379 61.0872 43.2381 62.8329 44.5046 64.1358C45.771 65.4387 47.5021 66.1943 49.3242 66.2395H49.4547C51.2773 66.2283 53.0224 65.5052 54.3132 64.2262C55.6041 62.9473 56.3372 61.215 56.3544 59.4033C56.3715 57.5917 55.6713 55.846 54.4048 54.5431C53.1384 53.2402 51.4073 52.4846 49.5852 52.4395H49.4547Z"/>
</mask>
<path d="M49.5554 54.0327L49.5742 52.0328L49.5648 52.0327H49.5554V54.0327ZM49.4547 64.6485L49.4734 62.6485L49.4641 62.6485H49.4547V64.6485ZM49.3539 64.6485L49.3352 66.6484L49.3446 66.6485H49.3539V64.6485ZM49.4547 52.4395V50.4394L49.4425 50.4395L49.4547 52.4395ZM49.3242 66.2395L49.2746 68.2388L49.2994 68.2395H49.3242V66.2395ZM49.4547 66.2395V68.2395L49.4669 68.2394L49.4547 66.2395ZM49.5852 52.4395L49.6348 50.4401L49.61 50.4395H49.5852V52.4395ZM49.4547 56.0327H49.5554V52.0327H49.4547V56.0327ZM49.5367 56.0326C50.4263 56.041 51.2737 56.4004 51.8932 57.0279L54.7398 54.2177C53.3753 52.8356 51.517 52.051 49.5742 52.0328L49.5367 56.0326ZM51.8932 57.0279C52.5122 57.6549 52.8532 58.4982 52.8449 59.3717L56.8447 59.4096C56.8632 57.4676 56.1046 55.6002 54.7398 54.2177L51.8932 57.0279ZM52.8449 59.3717C52.8366 60.2451 52.4797 61.082 51.8487 61.6975L54.6418 64.5609C56.0324 63.2044 56.8263 61.3517 56.8447 59.4096L52.8449 59.3717ZM51.8487 61.6975C51.2173 62.3135 50.3631 62.6569 49.4734 62.6485L49.4359 66.6484C51.3787 66.6666 53.2515 65.9171 54.6418 64.5609L51.8487 61.6975ZM49.4547 62.6485H49.3539V66.6485H49.4547V62.6485ZM49.3727 62.6485C48.4831 62.6402 47.6357 62.2808 47.0162 61.6533L44.1696 64.4635C45.5341 65.8456 47.3924 66.6302 49.3352 66.6484L49.3727 62.6485ZM47.0162 61.6533C46.3971 61.0262 46.0562 60.1829 46.0645 59.3095L42.0646 59.2715C42.0462 61.2136 42.8048 63.081 44.1696 64.4635L47.0162 61.6533ZM46.0645 59.3095C46.0727 58.436 46.4297 57.5991 47.0607 56.9836L44.2676 54.1203C42.8769 55.4768 42.0831 57.3295 42.0646 59.2715L46.0645 59.3095ZM47.0607 56.9836C47.6921 56.3677 48.5463 56.0243 49.4359 56.0326L49.4734 52.0328C47.5307 52.0146 45.6579 52.7641 44.2676 54.1203L47.0607 56.9836ZM49.4425 50.4395C47.0987 50.4538 44.8521 51.3836 43.1885 53.0319L46.0038 55.8734C46.9219 54.9637 48.1656 54.4474 49.4669 54.4394L49.4425 50.4395ZM43.1885 53.0319C41.5245 54.6806 40.5772 56.9162 40.5551 59.2567L44.5549 59.2945C44.567 58.0117 45.0861 56.7827 46.0038 55.8734L43.1885 53.0319ZM40.5551 59.2567C40.5329 61.5972 41.4378 63.8502 43.0705 65.5298L45.9387 62.7418C45.0385 61.8157 44.5428 60.5773 44.5549 59.2945L40.5551 59.2567ZM43.0705 65.5298C44.7028 67.2091 46.9314 68.1807 49.2746 68.2388L49.3737 64.2401C48.0728 64.2078 46.8393 63.6683 45.9387 62.7418L43.0705 65.5298ZM49.3242 68.2395H49.4547V64.2395H49.3242V68.2395ZM49.4669 68.2394C51.8107 68.2251 54.0572 67.2953 55.7209 65.647L52.9056 62.8055C51.9875 63.7152 50.7438 64.2316 49.4425 64.2395L49.4669 68.2394ZM55.7209 65.647C57.3849 63.9983 58.3322 61.7627 58.3543 59.4222L54.3545 59.3844C54.3423 60.6672 53.8233 61.8962 52.9056 62.8055L55.7209 65.647ZM58.3543 59.4222C58.3764 57.0817 57.4716 54.8287 55.8389 53.1491L52.9707 55.9371C53.8709 56.8632 54.3666 58.1016 54.3545 59.3844L58.3543 59.4222ZM55.8389 53.1491C54.2066 51.4698 51.9779 50.4982 49.6348 50.4401L49.5356 54.4388C50.8366 54.4711 52.0701 55.0106 52.9707 55.9371L55.8389 53.1491ZM49.5852 50.4395H49.4547V54.4395H49.5852V50.4395Z" fill="white" mask="url(#path-5-inside-2)"/>
</svg>
